<svg width="165" height="119" viewBox="0 0 165 119" fill="none" xmlns="http://www.w3.org/2000/svg">
<path d="M50.5295 89.4974C50.5295 89.4974 52.5557 90.0598 53.6577 89.9271C54.762 89.7949 56.6423 89.5234 56.6423 89.5234C56.6423 89.5234 56.4747 89.7109 56.3445 89.9866C56.3445 89.9866 55.7574 91.0914 55.9757 92.0842C56.1969 93.0754 57.4176 94.6084 59.1141 95.4518C60.8106 96.2953 63.7641 96.4459 65.2786 96.1521C66.7953 95.859 80.5843 91.9567 80.5843 91.9567L90.8123 88.5188L99.9442 84.9633L109.064 81.3068L117.306 77.804L126.804 73.5297L138.254 68.2814L147.057 63.7816L154.352 59.2474C154.352 59.2474 157.642 56.8269 158.144 56.2617C158.645 55.6965 160.058 54.1918 160.201 52.7918C160.344 51.3919 160.267 49.6421 158.926 47.9816C157.584 46.3205 155.496 45.4114 154.112 45.1383C152.727 44.8651 151.031 44.7409 148.613 45.0641C146.196 45.3874 143.37 46.6505 143.37 46.6505L139.227 48.9208C139.227 48.9208 140.077 46.8369 140.028 43.5391C139.98 40.2413 138.559 37.2017 137.545 35.6264C136.529 34.0528 133.787 31.2392 130.862 29.9687C127.937 28.6983 127.618 28.5932 125.301 28.031C122.984 27.4687 118.802 27.493 116.88 28.0664C114.958 28.6398 112.577 29.6921 111.672 30.3227C110.767 30.9534 108.789 32.3093 107.214 34.1987C105.639 36.088 105.562 36.669 105.562 36.669L104.566 35.8201C104.566 35.8201 99.593 32.5627 95.805 31.3642C92.0152 30.1628 88.8879 29.5108 87.018 29.3326C85.1482 29.1544 80.7969 28.9351 77.9138 29.4345C75.0314 29.9316 71.8934 30.8714 69.5264 31.6901C67.1589 32.511 63.1566 34.002 59.0872 34.8757C55.0179 35.7494 49.9209 36.7611 47.5126 37.0404C45.1044 37.3197 38.9618 38.0072 35.749 37.8386C32.5362 37.6699 29.1745 37.4638 26.065 36.3982C22.9555 35.3327 20.3173 33.8871 18.7677 32.6867C17.2182 31.4864 14.51 28.4395 14.51 28.4395L13.8066 28.8283L16.0193 41.0908L17.4749 47.0233C17.4749 47.0233 18.9212 51.1923 21.1834 52.9187C23.445 54.6474 25.5344 55.8138 27.2559 56.5637C28.9775 57.3136 37.181 60.5366 40.7779 62.3027C44.3747 64.0687 46.2801 64.9633 46.2801 64.9633C46.2801 64.9633 49.1973 66.6915 50.2388 68.1446C51.2798 69.6001 51.6677 70.8267 51.6677 70.8267C51.6677 70.8267 49.7684 71.8538 47.68 73.6962C45.5916 75.5385 45.3721 76.1205 44.4502 77.8082C43.5306 79.4966 43.7218 82.2702 44.3572 83.952C44.9925 85.6338 46.8166 87.7173 48.4149 88.5712C50.0069 89.4307 50.5295 89.4974 50.5295 89.4974Z" fill="white"/>
<path d="M109.69 38.4411C106.976 37.2957 103.503 38.3634 102.673 41.3988C102.316 42.7024 102.504 44.1835 103.317 45.2844C104.363 46.7021 106.162 47.2183 107.8 47.5863C108.021 47.6359 108.115 47.2941 107.892 47.244C105.141 46.6269 102.286 45.1157 102.942 41.7988C103.533 38.8166 106.892 37.645 109.51 38.7475C109.719 38.8353 109.899 38.5288 109.69 38.4411Z" fill="black"/>
<path d="M105.006 38.0569C107.631 32.4423 113.238 28.4241 119.428 27.8325C126.171 27.186 134.344 30.5036 137.864 36.4926C141.361 42.4463 139.958 50.3011 135.721 55.4885C131.536 60.6115 124.511 62.8115 118.103 61.3197C111.135 59.6947 105.83 53.6332 104.783 46.6118C104.75 46.3877 104.407 46.4816 104.44 46.7057C105.385 53.0371 109.778 58.6976 115.793 60.9868C122.013 63.3529 129.457 61.999 134.348 57.4638C139.33 52.8454 141.577 45.2633 139.301 38.7685C136.892 31.8932 129.236 27.9533 122.313 27.4535C114.972 26.9248 107.808 31.2326 104.7 37.8769C104.606 38.0817 104.909 38.2633 105.006 38.0569Z" fill="black"/>
<path d="M131.75 51.9246C129.154 50.0087 125.698 49.3172 123.002 51.4273C122.822 51.5676 123.073 51.8182 123.252 51.6802C125.821 49.6683 129.128 50.4271 131.572 52.2317C131.754 52.366 131.932 52.0589 131.75 51.9246Z" fill="black"/>
<path d="M103.156 45.8772C96.4157 44.2204 89.2543 42.8225 82.2874 42.8073C77.4157 42.7959 70.9828 44.8683 70.4848 50.6247C69.9522 56.8023 77.1073 60.1773 81.4412 62.8624C84.3088 64.6385 87.2731 66.465 90.5907 67.2561C92.9127 67.8098 95.789 67.9837 97.8239 66.4963C100.162 64.7894 99.7891 61.6174 98.5302 59.36C97.0943 56.7861 94.505 55.021 91.6146 54.5253C91.3923 54.4878 91.2983 54.8295 91.5229 54.8676C94.0881 55.308 96.3992 56.7515 97.8509 58.9285C99.4351 61.3048 100.012 64.9669 97.0699 66.5535C94.6448 67.863 91.4837 67.2825 89.0189 66.4216C86.2369 65.4486 83.7202 63.8595 81.2286 62.3138C77.0678 59.7313 70.3198 56.5168 70.8402 50.6221C71.3797 44.5099 78.5633 42.986 83.5057 43.19C90.0786 43.4617 96.6864 44.6525 103.066 46.2201C103.284 46.2736 103.376 45.9313 103.156 45.8772Z" fill="black"/>
<path d="M139.527 48.97C142.996 46.6145 147.238 45.1144 151.46 45.0668C153.94 45.0392 156.506 45.6875 158.265 47.531C159.853 49.1967 160.649 51.687 159.632 53.858C158.65 55.9528 156.479 57.3817 154.668 58.6917C152.784 60.0532 150.83 61.3201 148.833 62.5095C144.885 64.8587 140.766 66.9104 136.607 68.8509C119.394 76.8867 101.897 84.6776 83.8538 90.6638C78.8739 92.3159 73.8409 93.8193 68.7541 95.1126C66.2056 95.7603 63.4565 96.435 60.8372 95.8041C59.7573 95.5441 58.7284 95.0752 57.8645 94.3741C57.3941 93.9937 56.9831 93.5558 56.6588 93.0408C56.5048 92.7941 56.3662 92.5173 56.2647 92.2479C55.9783 91.4912 56.2001 91.7952 56.7 90.9704C56.5815 91.1661 56.8879 91.346 57.0064 91.1503C57.4544 90.4094 56.2607 89.862 55.8227 90.6203C55.0619 91.9354 56.7357 93.9224 57.6607 94.6692C61.3541 97.645 66.4458 96.0962 70.5415 95.0143C81.4001 92.1441 92.0005 88.3755 102.414 84.1825C112.701 80.0413 122.824 75.5065 132.924 70.9311C137.946 68.6568 142.949 66.3139 147.731 63.5644C150.053 62.232 152.321 60.8025 154.5 59.2459C156.305 57.9564 158.367 56.6059 159.571 54.6954C162.234 50.4729 158.41 45.8749 154.199 44.969C149.206 43.8953 143.459 45.8704 139.346 48.662C139.162 48.7913 139.337 49.0974 139.527 48.97Z" fill="black"/>
<path d="M82.2109 79.3783C76.7178 81.6952 71.1959 83.9457 65.6444 86.1246C60.9074 87.9837 55.2396 91.0438 50.0724 89.1774C45.0147 87.3501 42.2333 81.1896 45.3392 76.4719C46.8442 74.1871 49.3236 72.5743 51.5676 71.0916C53.7223 69.6682 55.9736 68.3954 58.2681 67.2173C59.641 66.5114 74.6648 59.5253 74.8191 59.8896C74.731 59.6801 74.4259 59.86 74.5124 60.0667C74.529 60.1053 74.5432 60.1434 74.5604 60.1798C74.5912 60.2565 74.6889 60.2754 74.7607 60.2628C75.0769 60.2057 75.3109 59.9529 75.0943 59.6478C74.6414 59.0103 72.8511 60.1963 72.4539 60.3736C69.5767 61.645 66.6814 62.8749 63.8147 64.1712C58.2003 66.7124 52.5082 69.5165 47.7168 73.4499C45.6538 75.1425 44.0327 77.2127 43.7359 79.9363C43.4721 82.3629 44.2322 84.8388 45.8223 86.6909C47.4029 88.5331 49.705 89.7272 52.1063 90.0306C55.0612 90.4041 57.9715 89.4473 60.6978 88.4192C67.9891 85.6718 75.2071 82.7139 82.3874 79.6873C82.5975 79.5968 82.4181 79.2895 82.2109 79.3783Z" fill="black"/>
<path d="M102.194 84.2092C98.9274 79.1465 95.8372 73.1894 93.417 67.671C93.417 67.671 92.2148 67.5935 89.7415 66.828C87.2683 66.0626 85.3237 65.0132 85.3237 65.0132C85.4865 69.846 84.8336 75.2038 82.4453 79.4068C82.4453 79.4068 89.0301 80.1635 93.644 81.4291C98.2579 82.6948 102.194 84.2092 102.194 84.2092Z" fill="black"/>
<path d="M105.67 36.3832C96.0556 29.4434 83.7746 27.1336 72.3912 30.5749C69.2185 31.5348 66.1177 32.7096 62.9347 33.6349C59.9428 34.5039 56.912 35.2351 53.8509 35.8238C47.424 37.0613 40.7291 37.8479 34.1751 37.5789C26.573 37.2688 19.5752 34.3933 14.6564 28.4598C14.5104 28.2837 14.2597 28.5345 14.4035 28.71C18.2814 33.3887 23.6853 36.4803 29.675 37.486C35.8356 38.5203 42.3448 37.9066 48.4945 37.0644C54.8195 36.1983 61.0468 34.7287 67.1007 32.7015C70.2308 31.6544 73.342 30.5044 76.5957 29.8817C79.6998 29.2875 82.8886 29.144 86.0397 29.4062C93.0497 29.9906 99.7962 32.581 105.49 36.6896C105.675 36.8223 105.852 36.5152 105.67 36.3832Z" fill="black"/>
<path d="M13.6544 28.9862C14.2842 33.2446 15.0698 37.4786 16.0245 41.6749C16.8265 45.1992 17.4749 48.9684 19.9038 51.7888C22.258 54.5231 25.561 56.1444 28.8535 57.4669C32.9834 59.1238 37.1221 60.7024 41.1481 62.6103C44.8205 64.3501 49.7305 66.2088 51.3027 70.3185C51.3834 70.5285 51.7253 70.4391 51.6458 70.2246C50.5407 67.3382 47.9108 65.6331 45.2805 64.2582C41.6032 62.336 37.8031 60.6256 33.9551 59.076C30.1184 57.5294 26.0275 56.311 22.6558 53.8323C20.9887 52.6054 19.528 51.0644 18.596 49.2028C17.6794 47.3746 17.2537 45.321 16.7804 43.345C15.6383 38.5702 14.7171 33.747 13.9982 28.89C13.9624 28.6676 13.6215 28.7621 13.6544 28.9862Z" fill="black"/>
<path d="M82.5288 72.6417C82.6708 73.6361 82.585 74.6136 82.2915 75.572C82.2231 75.7909 82.566 75.8804 82.6338 75.6637C82.9474 74.6397 83.0209 73.6077 82.8719 72.5478C82.8396 72.3214 82.4982 72.4183 82.5288 72.6417Z" fill="black"/>
<path d="M80.6059 75.7831C80.4484 77.074 80.1203 78.3167 79.6153 79.5168C79.5281 79.7234 79.834 79.9056 79.9217 79.6968C80.4536 78.4329 80.7968 77.1429 80.9607 75.7828C80.9897 75.5558 80.6338 75.5607 80.6059 75.7831Z" fill="black"/>
<path d="M77.9377 78.0913C77.7786 78.9317 77.5022 79.7259 77.0998 80.4791C76.9921 80.6801 77.2986 80.8601 77.4062 80.659C77.824 79.8758 78.1152 79.0537 78.28 78.1831C78.3228 77.9597 77.9811 77.8657 77.9377 78.0913Z" fill="black"/>
<path d="M73.9247 79.4303C73.6201 80.0286 73.3171 80.6298 73.0125 81.2282C72.9093 81.4305 73.2158 81.6104 73.3189 81.4081C73.6236 80.8098 73.9265 80.2086 74.2312 79.6102C74.3326 79.405 74.0284 79.2257 73.9247 79.4303Z" fill="black"/>
<path d="M68.9107 81.2004C68.6971 81.7693 68.3655 82.2675 67.9314 82.6917C67.7689 82.8512 68.0168 83.1035 68.1816 82.9446C68.6624 82.4742 69.0161 81.9208 69.253 81.2921C69.3323 81.0785 68.9894 80.9891 68.9107 81.2004Z" fill="black"/>
<path d="M65.6771 81.9313C65.1036 82.8025 64.5325 83.6743 63.9591 84.5455C63.8343 84.7371 64.1391 84.9141 64.2655 84.7254C64.8389 83.8542 65.4101 82.9824 65.9835 82.1112C66.1082 81.9196 65.8012 81.7419 65.6771 81.9313Z" fill="black"/>
<path d="M60.5471 85.0107C60.2698 85.2788 59.9954 85.5453 59.7181 85.8134C59.5532 85.9722 59.804 86.2229 59.9683 86.0663C60.2456 85.7982 60.52 85.5317 60.7973 85.2636C60.9599 85.1042 60.7097 84.8512 60.5471 85.0107Z" fill="black"/>
<path d="M55.2418 85.8051C54.9988 85.9454 54.7586 86.0841 54.5155 86.2244C54.3188 86.338 54.4958 86.6447 54.6926 86.5311C54.9357 86.3908 55.1758 86.2521 55.4189 86.1118C55.6186 85.9965 55.4415 85.6898 55.2418 85.8051Z" fill="black"/>
<path d="M51.5336 86.1982C51.2609 86.1937 50.9904 86.1897 50.7177 86.1851C50.4891 86.1801 50.4917 86.5355 50.7203 86.5405C50.993 86.545 51.2635 86.549 51.5362 86.5536C51.7631 86.5557 51.7605 86.2003 51.5336 86.1982Z" fill="black"/>
<path d="M48.3848 85.5896C48.0802 85.7134 47.7732 85.8366 47.4685 85.9604C47.2602 86.044 47.349 86.3882 47.5625 86.3036C47.8672 86.1797 48.1741 86.0565 48.4788 85.9327C48.6877 85.8468 48.596 85.5043 48.3848 85.5896Z" fill="black"/>
<path d="M45.7316 83.5698C45.953 83.6292 46.0447 83.2868 45.8233 83.2275C45.6042 83.1688 45.5125 83.5111 45.7316 83.5698Z" fill="black"/>
<path d="M93.2072 86.0717C93.173 86.1995 93.1388 86.3273 93.1051 86.4529C93.0458 86.6742 93.3881 86.7659 93.4474 86.5446C93.4817 86.4168 93.5159 86.289 93.5496 86.1635C93.6083 85.9444 93.2659 85.8527 93.2072 86.0717Z" fill="black"/>
<path d="M89.8453 86.0491C89.4085 86.5655 88.9711 87.0843 88.5343 87.6007C88.3875 87.7742 88.6355 88.0265 88.7845 87.8537C89.2213 87.3372 89.6587 86.8185 90.0955 86.302C90.24 86.1279 89.9921 85.8756 89.8453 86.0491Z" fill="black"/>
<path d="M83.796 87.7301C83.809 87.7361 83.8238 87.7449 83.8369 87.7509C83.9062 87.7841 83.9945 87.7833 84.0516 87.7253C84.3148 87.446 83.979 87.1383 83.6865 87.3535C83.4277 87.5434 83.2448 87.9249 83.0582 88.1831C82.7913 88.5494 82.526 88.9186 82.2591 89.2849C82.1242 89.4689 82.4313 89.6465 82.5656 89.4648C82.7826 89.1659 82.9997 88.8669 83.2139 88.5697C83.3142 88.4327 83.4151 88.2934 83.5131 88.1558C83.5636 88.0861 83.6134 88.0188 83.6639 87.9491C83.791 87.8217 83.8383 87.6632 83.8037 87.4729C83.8744 87.465 83.9456 87.4547 84.0185 87.4473C84.0054 87.4414 83.9907 87.4325 83.9776 87.4266C83.7724 87.3251 83.5902 87.631 83.796 87.7301Z" fill="black"/>
<path d="M77.6914 89.81C77.2355 90.2333 76.7813 90.6595 76.3255 91.0828C76.1589 91.2388 76.4075 91.4888 76.5757 91.3357C77.0315 90.9124 77.4857 90.4862 77.9416 90.0629C78.1064 89.9041 77.8579 89.6541 77.6914 89.81Z" fill="black"/>
<path d="M73.277 90.9214C72.9335 91.7197 72.4219 92.3873 71.7395 92.926C71.56 93.0663 71.8108 93.3169 71.9897 93.1789C72.6936 92.624 73.2303 91.9264 73.5851 91.1042C73.6706 90.8948 73.367 90.7131 73.277 90.9214Z" fill="black"/>
<path d="M69.1683 91.0018C68.4317 91.8978 67.6162 92.7139 66.7189 93.4518C66.5428 93.5979 66.7936 93.8485 66.9691 93.7048C67.8664 92.9668 68.679 92.1524 69.4185 91.2547C69.5613 91.0777 69.3111 90.8248 69.1683 91.0018Z" fill="black"/>
<path d="M64.4689 92.9395C64.2601 92.952 64.0535 92.9652 63.8447 92.9777C63.6187 92.9905 63.6191 93.3453 63.8473 93.3331C64.0562 93.3205 64.2627 93.3074 64.4715 93.2949C64.6981 93.2798 64.6978 92.925 64.4689 92.9395Z" fill="black"/>
<path d="M62.1085 92.6202C61.8332 93.0087 61.5562 93.3943 61.2809 93.7829C61.1482 93.9675 60.2818 95.2934 60.0508 94.8499C59.9459 94.6481 59.6392 94.8252 59.7441 95.027C60.3893 96.2614 62.1643 93.1513 62.4149 92.8002C62.5459 92.6127 62.2388 92.435 62.1085 92.6202Z" fill="black"/>
<path d="M58.907 91.7794C58.6376 92.1915 58.2379 92.4782 57.7652 92.6083C57.5459 92.6694 57.6381 93.0097 57.8592 92.9515C58.424 92.7971 58.8963 92.4491 59.2129 91.9616C59.3365 91.7648 59.0318 91.5878 58.907 91.7794Z" fill="black"/>
<path d="M97.8571 63.3598C97.8057 63.5515 97.755 63.7409 97.7036 63.9326C97.6443 64.1539 97.9866 64.2457 98.0459 64.0243C98.0973 63.8326 98.148 63.6432 98.1994 63.4515C98.2581 63.2324 97.9164 63.1384 97.8571 63.3598Z" fill="black"/>
<path d="M96.4526 64.1013C96.5563 64.6818 96.5311 65.2597 96.3851 65.832C96.3287 66.0517 96.6704 66.1457 96.7274 65.9238C96.8899 65.2898 96.9093 64.6517 96.7958 64.0073C96.7531 63.7831 96.4122 63.8777 96.4526 64.1013Z" fill="black"/>
<path d="M93.9132 64.4406C94.065 65.1613 94.0649 65.8828 93.9158 66.6035C93.8708 66.8263 94.2125 66.9203 94.2581 66.6953C94.4214 65.9123 94.4185 65.1288 94.2563 64.3467C94.2085 64.1235 93.8654 64.2175 93.9132 64.4406Z" fill="black"/>
<path d="M90.5605 65.2324C90.4452 65.407 90.3306 65.5793 90.2153 65.7539C90.0883 65.9449 90.3954 66.1225 90.5218 65.9338C90.637 65.7593 90.7517 65.587 90.8669 65.4124C90.9917 65.2208 90.6852 65.0408 90.5605 65.2324Z" fill="black"/>
<path d="M87.2559 63.2977C86.8864 63.6268 86.7482 64.1425 86.9037 64.6122C86.9757 64.8272 87.3182 64.7355 87.2468 64.5183C87.1273 64.1609 87.2239 63.8004 87.5061 63.5506C87.6766 63.3982 87.4264 63.1453 87.2559 63.2977Z" fill="black"/>
<path d="M84.3826 61.7525C84.2015 62.0635 84.1954 62.4239 84.3516 62.7446C84.4507 62.9497 84.7575 62.7726 84.6583 62.5675C84.5598 62.3601 84.5752 62.1294 84.6891 61.9324C84.8036 61.7332 84.4966 61.5555 84.3826 61.7525Z" fill="black"/>
<path d="M82.3305 60.0726C82.2751 60.5348 82.2192 60.9992 82.1638 61.4613C82.1377 61.6867 82.4908 61.6834 82.5192 61.4587C82.5745 60.9966 82.6305 60.5322 82.6858 60.07C82.712 59.8447 82.3589 59.8479 82.3305 60.0726Z" fill="black"/>
<path d="M79.7997 58.783C79.7608 59.1835 79.7203 59.5812 79.6815 59.9817C79.6599 60.2083 80.013 60.205 80.0369 59.9791C80.0757 59.5785 80.1162 59.1809 80.155 58.7804C80.1766 58.5538 79.8212 58.5564 79.7997 58.783Z" fill="black"/>
<path d="M77.4163 57.171C76.9245 57.5822 76.8807 58.3116 77.2661 58.8086C77.4064 58.9881 77.657 58.7373 77.519 58.5584C77.2464 58.2066 77.3358 57.6997 77.6665 57.4239C77.8432 57.2756 77.5924 57.0249 77.4163 57.171Z" fill="black"/>
<path d="M75.2068 55.4488C75.0379 55.9514 75.0404 56.4805 75.2113 56.9836C75.2834 57.1986 75.6259 57.107 75.5545 56.8897C75.401 56.4401 75.4017 55.9902 75.5514 55.5412C75.6215 55.3251 75.2792 55.2334 75.2068 55.4488Z" fill="black"/>
<path d="M73.961 54.046C73.7305 54.4588 73.67 54.922 73.7896 55.3796C73.8477 55.6006 74.1886 55.5061 74.1327 55.2856C74.0374 54.9201 74.0837 54.5558 74.2674 54.226C74.3774 54.0255 74.071 53.8456 73.961 54.046Z" fill="black"/>
<path d="M73.3614 52.4497C73.1079 52.9761 73.0061 53.5383 73.0783 54.1178C73.1067 54.3406 73.4608 54.3425 73.4337 54.1151C73.369 53.5988 73.4416 53.0998 73.6679 52.6296C73.7664 52.4261 73.4606 52.2439 73.3614 52.4497Z" fill="black"/>
<path d="M73.2691 50.5391C72.6513 51.1563 72.2306 51.9046 72.0232 52.7515C71.9691 52.9718 72.3108 53.0658 72.3656 52.8433C72.5583 52.051 72.9423 51.3664 73.517 50.7915C73.6802 50.6297 73.4317 50.3797 73.2691 50.5391Z" fill="black"/>
<path d="M72.9862 48.4551C72.7391 48.8659 72.4915 49.2789 72.2467 49.6903C72.1282 49.886 72.4347 50.066 72.5532 49.8703C72.8002 49.4595 73.0479 49.0465 73.2926 48.6351C73.4088 48.4387 73.1018 48.2611 72.9862 48.4551Z" fill="black"/>
<path d="M103.094 79.8081C103.181 80.2422 103.27 80.6747 103.357 81.1088C103.403 81.3314 103.743 81.2391 103.7 81.0149C103.614 80.5808 103.524 80.1483 103.437 79.7141C103.392 79.4916 103.049 79.5832 103.094 79.8081Z" fill="black"/>
<path d="M106.562 78.5064C106.718 78.8002 106.745 79.1181 106.652 79.4358C106.589 79.6559 106.931 79.7477 106.995 79.5275C107.113 79.1215 107.067 78.7029 106.868 78.3293C106.76 78.1292 106.454 78.3063 106.562 78.5064Z" fill="black"/>
<path d="M109.948 77.1415C110.007 77.4313 110.067 77.7189 110.124 78.0081C110.17 78.2307 110.513 78.1367 110.467 77.9142C110.408 77.6243 110.348 77.3368 110.291 77.0476C110.243 76.8244 109.902 76.9189 109.948 77.1415Z" fill="black"/>
<path d="M113.855 75.5298C113.915 75.8196 113.975 76.1071 114.032 76.3964C114.077 76.6189 114.42 76.525 114.375 76.3024C114.316 76.0126 114.256 75.725 114.199 75.4358C114.151 75.2126 113.81 75.3072 113.855 75.5298Z" fill="black"/>
<path d="M117.812 73.7795C117.635 74.1405 117.598 74.5341 117.72 74.919C117.789 75.1357 118.132 75.044 118.063 74.8251C117.97 74.5335 117.984 74.234 118.119 73.9595C118.217 73.756 117.914 73.5744 117.812 73.7795Z" fill="black"/>
<path d="M122.319 72.2159C122.314 72.4886 122.31 72.759 122.305 73.0317C122.3 73.2603 122.656 73.2577 122.661 73.0291C122.665 72.7564 122.669 72.486 122.674 72.2132C122.676 71.9863 122.321 71.9867 122.319 72.2159Z" fill="black"/>
<path d="M127.441 69.9025C127.42 70.2391 127.399 70.5735 127.377 70.9101C127.362 71.1385 127.718 71.1359 127.732 70.9075C127.754 70.5708 127.775 70.2365 127.797 69.8999C127.811 69.6738 127.458 69.677 127.441 69.9025Z" fill="black"/>
<path d="M131.911 68.4926C131.941 68.6375 131.973 68.7808 132.003 68.9257C132.051 69.1489 132.392 69.0543 132.346 68.8318C132.317 68.6868 132.284 68.5436 132.254 68.3987C132.206 68.1778 131.863 68.2695 131.911 68.4926Z" fill="black"/>
<path d="M137.492 65.9939C137.458 66.1217 137.424 66.2495 137.39 66.375C137.331 66.5964 137.673 66.6881 137.733 66.4667C137.767 66.3389 137.801 66.2111 137.835 66.0856C137.893 65.8665 137.552 65.7725 137.492 65.9939Z" fill="black"/>
<path d="M142.198 62.9548C142.079 63.3998 141.959 63.8471 141.84 64.2921C141.78 64.5134 142.123 64.6052 142.182 64.3838C142.301 63.9388 142.421 63.4915 142.54 63.0465C142.6 62.8251 142.257 62.7334 142.198 62.9548Z" fill="black"/>
<path d="M147.037 60.2035C147.05 60.4123 147.063 60.6188 147.075 60.8277C147.088 61.0537 147.443 61.0533 147.431 60.825C147.418 60.6162 147.405 60.4097 147.393 60.2009C147.38 59.9749 147.025 59.9752 147.037 60.2035Z" fill="black"/>
<path d="M151.303 58.0224C151.201 58.4035 151.098 58.7869 150.996 59.168C150.936 59.3893 151.279 59.4811 151.338 59.2597C151.44 58.8786 151.543 58.4952 151.645 58.1141C151.704 57.8927 151.362 57.801 151.303 58.0224Z" fill="black"/>
<path d="M154.955 55.2001C155.027 55.6964 155.097 56.1945 155.169 56.6909C155.202 56.9149 155.543 56.8204 155.513 56.5969C155.44 56.1005 155.371 55.6025 155.298 55.1061C155.263 54.8815 154.921 54.9783 154.955 55.2001Z" fill="black"/>
<path d="M157.502 51.7905C157.562 52.0803 157.622 52.3679 157.679 52.6571C157.724 52.8796 158.067 52.7857 158.022 52.5631C157.963 52.2733 157.903 51.9857 157.846 51.6965C157.798 51.4733 157.457 51.5679 157.502 51.7905Z" fill="black"/>
<path d="M102.023 37.3162C101.556 37.5336 101.088 37.7481 100.621 37.9654C100.414 38.0617 100.592 38.3661 100.798 38.2722C101.265 38.0548 101.733 37.8403 102.2 37.6229C102.409 37.5273 102.229 37.2223 102.023 37.3162Z" fill="black"/>
<path d="M99.8598 36.3598C98.6953 36.4612 97.6102 36.8504 96.6561 37.5266C96.4716 37.6582 96.6464 37.9643 96.8332 37.8333C97.7356 37.1946 98.7605 36.8113 99.8631 36.7129C100.088 36.6949 100.088 36.3402 99.8598 36.3598Z" fill="black"/>
<path d="M95.9416 35.8115C94.7924 35.9194 93.7124 36.2806 92.7341 36.8917C92.5401 37.0134 92.7172 37.3201 92.9112 37.1984C93.8368 36.6197 94.8576 36.2695 95.9448 36.1646C96.1704 36.1443 96.1701 35.7896 95.9416 35.8115Z" fill="black"/>
<path d="M91.0232 34.9608C90.2437 35.2044 89.5128 35.5589 88.8379 36.0238C88.6518 36.1525 88.8259 36.4609 89.015 36.3305C89.6632 35.883 90.3642 35.54 91.1149 35.3033C91.3338 35.2348 91.2421 34.8923 91.0232 34.9608Z" fill="black"/>
<path d="M84.9925 34.3916C84.5874 34.6255 84.1852 34.8577 83.7801 35.0916C83.5833 35.2052 83.7604 35.5119 83.9571 35.3983C84.3622 35.1644 84.7644 34.9322 85.1695 34.6983C85.3669 34.5824 85.1898 34.2757 84.9925 34.3916Z" fill="black"/>
<path d="M79.4621 34.2183C79.2322 34.5651 79.0017 34.9143 78.774 35.2618C78.647 35.4528 78.9541 35.6304 79.0805 35.4417C79.3104 35.0949 79.5409 34.7457 79.7685 34.3982C79.8933 34.2066 79.5862 34.029 79.4621 34.2183Z" fill="black"/>
<path d="M73.5024 35.7205C73.7238 35.7798 73.8155 35.4374 73.5941 35.3781C73.3751 35.3194 73.2811 35.6611 73.5024 35.7205Z" fill="black"/>
<path d="M74.2889 33.8351C73.4756 34.4879 72.6646 35.1414 71.8513 35.7942C71.6735 35.9373 71.9243 36.188 72.1015 36.0471C72.9148 35.3943 73.7258 34.7409 74.5391 34.088C74.7169 33.9449 74.4661 33.6942 74.2889 33.8351Z" fill="black"/>
<path d="M68.5252 35.3359C67.8753 35.9812 67.2255 36.6264 66.5756 37.2717C66.4124 37.4334 66.6633 37.6841 66.8258 37.5246C67.4757 36.8794 68.1255 36.2341 68.7754 35.5889C68.9386 35.4271 68.6878 35.1765 68.5252 35.3359Z" fill="black"/>
<path d="M62.7162 37.2159C61.7805 37.924 60.8448 38.632 59.9067 39.3395C59.7262 39.4746 59.9027 39.7836 60.0838 39.6462C61.0196 38.9382 61.9553 38.2301 62.8933 37.5226C63.0744 37.3852 62.8996 37.0791 62.7162 37.2159Z" fill="black"/>
<path d="M55.6264 38.4446C55.1089 38.8514 54.5892 39.2576 54.0711 39.6667C53.8916 39.8069 54.1425 40.0576 54.3213 39.9196C54.8388 39.5128 55.3585 39.1066 55.8766 38.6975C56.0567 38.555 55.8058 38.3044 55.6264 38.4446Z" fill="black"/>
<path d="M49.8306 39.5087C49.1511 40.009 48.4716 40.5094 47.7898 41.0091C47.607 41.1436 47.7841 41.4503 47.9669 41.3158C48.6464 40.8155 49.3259 40.3151 50.0077 39.8154C50.1905 39.6809 50.0163 39.3725 49.8306 39.5087Z" fill="black"/>
<path d="M43.7343 40.1329C42.9966 40.6862 42.198 41.1472 41.3456 41.4985C41.1367 41.5844 41.2284 41.927 41.4396 41.8417C42.3225 41.4766 43.1487 41.0131 43.9137 40.4402C44.0919 40.3046 43.9154 39.9956 43.7343 40.1329Z" fill="black"/>
<path d="M37.0852 40.5111C36.5354 40.5912 36.0117 40.7566 35.5146 41.005C35.3112 41.107 35.4882 41.4138 35.6917 41.3117C36.1633 41.0761 36.6587 40.9251 37.1797 40.8519C37.4038 40.819 37.3092 40.4782 37.0852 40.5111Z" fill="black"/>
<path d="M30.8665 40.1411C30.2549 40.3881 29.6449 40.638 29.0333 40.8851C28.825 40.9687 28.916 41.3135 29.1272 41.2282C29.7389 40.9812 30.3488 40.7312 30.9605 40.4842C31.1694 40.3983 31.0783 40.0535 30.8665 40.1411Z" fill="black"/>
<path d="M25.2207 39.0294C24.6096 39.2741 23.9957 39.5206 23.3847 39.7653C23.1764 39.8489 23.2652 40.1931 23.4786 40.1085C24.0897 39.8637 24.7036 39.6173 25.3146 39.3725C25.5235 39.2866 25.4318 38.9441 25.2207 39.0294Z" fill="black"/>
<path d="M20.4808 37.96C19.9695 37.8328 19.4581 37.7055 18.9445 37.5777C18.7242 37.5236 18.6302 37.8653 18.8528 37.92C19.3641 38.0472 19.8755 38.1745 20.3891 38.3023C20.6094 38.3565 20.7011 38.0141 20.4808 37.96Z" fill="black"/>
<path d="M17.2705 35.7006C16.8762 35.9399 16.3437 35.5721 16.3925 35.1254C16.4163 34.8994 16.0632 34.9026 16.0371 35.128C15.958 35.843 16.8431 36.3737 17.4476 36.0074C17.6433 35.8886 17.4662 35.5819 17.2705 35.7006Z" fill="black"/>
<path d="M123.559 60.6023C123.781 60.6617 123.872 60.3193 123.651 60.26C123.43 60.2007 123.338 60.543 123.559 60.6023Z" fill="black"/>
<path d="M119.724 60.3916C119.946 60.451 120.037 60.1086 119.816 60.0493C119.595 59.99 119.503 60.3323 119.724 60.3916Z" fill="black"/>
<path d="M115.431 58.8328C115.652 58.8921 115.744 58.5498 115.523 58.4905C115.304 58.4318 115.212 58.7741 115.431 58.8328Z" fill="black"/>
<path d="M112.734 56.6767C112.955 56.736 113.047 56.3937 112.825 56.3343C112.604 56.275 112.512 56.6173 112.734 56.6767Z" fill="black"/>
<path d="M110.66 54.4823C110.882 54.5416 110.974 54.1993 110.752 54.14C110.531 54.0807 110.439 54.423 110.66 54.4823Z" fill="black"/>
<path d="M108.166 51.5611C108.387 51.6204 108.479 51.2781 108.257 51.2188C108.036 51.1595 107.944 51.5018 108.166 51.5611Z" fill="black"/>
<path d="M107.516 50.1594C107.738 50.2187 107.829 49.8764 107.608 49.8171C107.389 49.7584 107.297 50.1007 107.516 50.1594Z" fill="black"/>
<path d="M111.492 50.6109C111.714 50.6702 111.805 50.3279 111.584 50.2686C111.363 50.2093 111.271 50.5516 111.492 50.6109Z" fill="black"/>
<path d="M107.648 36.6784C107.869 36.7377 107.961 36.3954 107.74 36.3361C107.521 36.2774 107.427 36.6191 107.648 36.6784Z" fill="black"/>
<path d="M108.719 35.7375C108.941 35.7969 109.033 35.4545 108.811 35.3952C108.592 35.3365 108.498 35.6782 108.719 35.7375Z" fill="black"/>
<path d="M110.494 32.9381C110.716 32.9974 110.807 32.6551 110.586 32.5958C110.365 32.5365 110.273 32.8788 110.494 32.9381Z" fill="black"/>
<path d="M114.804 30.6099C115.026 30.6692 115.117 30.3269 114.896 30.2675C114.675 30.2082 114.583 30.5505 114.804 30.6099Z" fill="black"/>
<path d="M119.382 28.8083C119.318 28.7911 119.254 28.774 119.19 28.7569C119.101 28.7331 118.993 28.7874 118.973 28.8822C118.952 28.977 119.002 29.0735 119.098 29.0992C119.162 29.1163 119.226 29.1335 119.29 29.1506C119.379 29.1744 119.486 29.1201 119.507 29.0253C119.527 28.9305 119.477 28.8339 119.382 28.8083Z" fill="black"/>
<path d="M123.366 29.2179C123.588 29.2772 123.679 28.9349 123.458 28.8756C123.239 28.8169 123.147 29.1592 123.366 29.2179Z" fill="black"/>
<path d="M112.904 32.3533C113.125 32.4127 113.217 32.0703 112.996 32.011C112.774 31.9517 112.683 32.294 112.904 32.3533Z" fill="black"/>
<path d="M110.645 35.4342C110.866 35.4935 110.958 35.1512 110.737 35.0919C110.515 35.0326 110.424 35.3749 110.645 35.4342Z" fill="black"/>
<path d="M109.89 37.4846C110.111 37.544 110.203 37.2016 109.982 37.1423C109.76 37.083 109.669 37.4253 109.89 37.4846Z" fill="black"/>
<path d="M106.518 44.7944C106.501 44.8583 106.483 44.9222 106.466 44.9861C106.442 45.0751 106.497 45.1826 106.592 45.2032C106.686 45.2237 106.783 45.1737 106.809 45.0779C106.826 45.014 106.843 44.9501 106.86 44.8862C106.884 44.7972 106.829 44.6896 106.735 44.6691C106.643 44.647 106.543 44.6986 106.518 44.7944Z" fill="black"/>
<path d="M107.59 43.0124C107.811 43.0718 107.903 42.7294 107.681 42.6701C107.46 42.6108 107.368 42.9531 107.59 43.0124Z" fill="black"/>
<path d="M107.616 41.3807C107.837 41.44 107.929 41.0977 107.708 41.0384C107.489 40.9797 107.397 41.322 107.616 41.3807Z" fill="black"/>
<path d="M107.427 41.3299C107.648 41.3892 107.74 41.0469 107.518 40.9876C107.297 40.9283 107.205 41.2706 107.427 41.3299Z" fill="black"/>
<path d="M105.427 41.2245C105.41 41.2884 105.393 41.3523 105.376 41.4162C105.352 41.5052 105.406 41.6128 105.501 41.6333C105.596 41.6538 105.692 41.6038 105.718 41.508C105.735 41.4441 105.752 41.3802 105.769 41.3163C105.793 41.2273 105.739 41.1198 105.644 41.0992C105.552 41.0794 105.453 41.1287 105.427 41.2245Z" fill="black"/>
<path d="M105.347 42.206C105.569 42.2653 105.661 41.923 105.439 41.8637C105.22 41.805 105.128 42.1473 105.347 42.206Z" fill="black"/>
<path d="M105.347 42.206C105.569 42.2653 105.661 41.923 105.439 41.8637C105.22 41.805 105.128 42.1473 105.347 42.206Z" fill="black"/>
<path d="M106.239 43.4699C106.46 43.5292 106.552 43.1869 106.331 43.1276C106.109 43.0683 106.018 43.4106 106.239 43.4699Z" fill="black"/>
<path d="M105.741 44.564C105.962 44.6234 106.054 44.281 105.832 44.2217C105.611 44.1624 105.519 44.5047 105.741 44.564Z" fill="black"/>
<path d="M109.132 42.6061C109.353 42.6654 109.445 42.3231 109.223 42.2638C109.002 42.2045 108.91 42.5468 109.132 42.6061Z" fill="black"/>
<path d="M127.063 60.5162C127.284 60.5755 127.376 60.2332 127.155 60.1739C126.933 60.1146 126.842 60.4569 127.063 60.5162Z" fill="black"/>
<path d="M131.372 58.1904C131.593 58.2497 131.685 57.9074 131.464 57.8481C131.242 57.7887 131.151 58.1311 131.372 58.1904Z" fill="black"/>
<path d="M134.524 53.3015C134.745 53.3608 134.837 53.0185 134.616 52.9592C134.397 52.9005 134.305 53.2428 134.524 53.3015Z" fill="black"/>
<path d="M118.288 57.3456C118.509 57.4049 118.601 57.0626 118.379 57.0033C118.16 56.9446 118.066 57.2863 118.288 57.3456Z" fill="black"/>
<path d="M115.207 55.0867C115.428 55.146 115.52 54.8037 115.299 54.7444C115.08 54.6857 114.986 55.0274 115.207 55.0867Z" fill="black"/>
<path d="M112.638 50.9178C112.859 50.9772 112.951 50.6348 112.73 50.5755C112.511 50.5168 112.417 50.8585 112.638 50.9178Z" fill="black"/>
<path d="M111.394 47.9207C111.615 47.98 111.707 47.6377 111.486 47.5784C111.264 47.5191 111.172 47.8614 111.394 47.9207Z" fill="black"/>
<path d="M110.642 46.9023C110.863 46.9616 110.955 46.6193 110.734 46.56C110.514 46.5013 110.423 46.8436 110.642 46.9023Z" fill="black"/>
<path d="M111.106 42.1105C111.328 42.1698 111.419 41.8275 111.198 41.7682C110.979 41.7095 110.887 42.0518 111.106 42.1105Z" fill="black"/>
<path d="M111.224 40.914C111.445 40.9733 111.537 40.631 111.316 40.5717C111.094 40.5124 111.003 40.8547 111.224 40.914Z" fill="black"/>
<path d="M112.181 38.0986C112.403 38.1579 112.494 37.8156 112.273 37.7562C112.054 37.6975 111.962 38.0399 112.181 38.0986Z" fill="black"/>
<path d="M113.765 35.2475C113.986 35.3069 114.078 34.9645 113.856 34.9052C113.637 34.8465 113.546 35.1888 113.765 35.2475Z" fill="black"/>
<path d="M125.526 34.916C125.747 34.9753 125.839 34.633 125.617 34.5737C125.398 34.515 125.307 34.8573 125.526 34.916Z" fill="black"/>
<path d="M118.89 32.9349C119.111 32.9942 119.203 32.6519 118.981 32.5926C118.762 32.5339 118.668 32.8756 118.89 32.9349Z" fill="black"/>
<path d="M122.306 32.4169C122.527 32.4762 122.619 32.1339 122.398 32.0746C122.176 32.0153 122.085 32.3576 122.306 32.4169Z" fill="black"/>
<path d="M126.015 31.5664C126.236 31.6257 126.328 31.2834 126.106 31.224C125.885 31.1647 125.793 31.507 126.015 31.5664Z" fill="black"/>
<path d="M129.086 31.57C129.307 31.6293 129.399 31.287 129.177 31.2277C128.956 31.1684 128.864 31.5107 129.086 31.57Z" fill="black"/>
<path d="M126.373 30.229C126.594 30.2883 126.686 29.946 126.465 29.8867C126.243 29.8273 126.152 30.1697 126.373 30.229Z" fill="black"/>
<path d="M117.376 31.7098C117.598 31.7691 117.689 31.4268 117.468 31.3675C117.247 31.3082 117.155 31.6505 117.376 31.7098Z" fill="black"/>
<path d="M115.284 33.402C115.505 33.4613 115.597 33.119 115.376 33.0596C115.154 33.0003 115.063 33.3426 115.284 33.402Z" fill="black"/>
<path d="M132.509 33.3066C132.731 33.366 132.823 33.0236 132.601 32.9643C132.382 32.9056 132.29 33.2479 132.509 33.3066Z" fill="black"/>
<path d="M136.201 36.3432C136.423 36.4025 136.514 36.0602 136.293 36.0009C136.074 35.9421 135.982 36.2845 136.201 36.3432Z" fill="black"/>
<path d="M138.325 41.4175C138.546 41.4768 138.638 41.1345 138.416 41.0752C138.195 41.0159 138.103 41.3582 138.325 41.4175Z" fill="black"/>
<path d="M138.469 46.9865C138.69 47.0458 138.782 46.7035 138.56 46.6442C138.341 46.5855 138.25 46.9278 138.469 46.9865Z" fill="black"/>
<path d="M126.391 57.675C126.612 57.7343 126.704 57.392 126.483 57.3326C126.261 57.2733 126.17 57.6157 126.391 57.675Z" fill="black"/>
<path d="M122.504 57.6559C122.726 57.7152 122.818 57.3729 122.596 57.3136C122.377 57.2549 122.285 57.5972 122.504 57.6559Z" fill="black"/>
<path d="M117.616 54.5044C117.837 54.5637 117.929 54.2214 117.707 54.162C117.488 54.1033 117.394 54.445 117.616 54.5044Z" fill="black"/>
<path d="M115.635 49.6736C115.856 49.7329 115.948 49.3906 115.727 49.3313C115.505 49.272 115.414 49.6143 115.635 49.6736Z" fill="black"/>
<path d="M114.43 44.2311C114.651 44.2904 114.743 43.9481 114.521 43.8888C114.302 43.8301 114.208 44.1718 114.43 44.2311Z" fill="black"/>
<path d="M102.715 39.0424C102.936 39.1017 103.028 38.7594 102.806 38.7001C102.585 38.6408 102.493 38.9831 102.715 39.0424Z" fill="black"/>
<path d="M98.4081 38.2996C98.6295 38.3589 98.7212 38.0166 98.4999 37.9573C98.2808 37.8986 98.1868 38.2403 98.4081 38.2996Z" fill="black"/>
<path d="M93.0207 36.2419C93.2421 36.3012 93.3338 35.9589 93.1124 35.8996C92.8934 35.8409 92.8016 36.1832 93.0207 36.2419Z" fill="black"/>
<path d="M89.6198 35.9448C89.8412 36.0041 89.9329 35.6618 89.7115 35.6024C89.4902 35.5431 89.3984 35.8854 89.6198 35.9448Z" fill="black"/>
<path d="M85.544 35.875C85.7654 35.9343 85.8571 35.592 85.6358 35.5327C85.4144 35.4734 85.3227 35.8157 85.544 35.875Z" fill="black"/>
<path d="M81.0327 35.8966C81.2541 35.9559 81.3458 35.6136 81.1245 35.5543C80.9031 35.4949 80.8114 35.8373 81.0327 35.8966Z" fill="black"/>
<path d="M77.2998 35.3048C77.5212 35.3641 77.6129 35.0218 77.3915 34.9625C77.1724 34.9038 77.0784 35.2455 77.2998 35.3048Z" fill="black"/>
<path d="M73.8836 35.8226C74.1049 35.8819 74.1966 35.5396 73.9753 35.4803C73.7562 35.4216 73.6645 35.7639 73.8836 35.8226Z" fill="black"/>
<path d="M72.1519 36.1781C72.3732 36.2374 72.465 35.8951 72.2436 35.8358C72.0222 35.7765 71.9305 36.1188 72.1519 36.1781Z" fill="black"/>
<path d="M69.7939 36.571C70.0153 36.6303 70.107 36.288 69.8856 36.2287C69.6643 36.1694 69.5725 36.5117 69.7939 36.571Z" fill="black"/>
<path d="M64.007 38.2957C64.2284 38.355 64.3201 38.0127 64.0987 37.9534C63.8796 37.8947 63.7856 38.2364 64.007 38.2957Z" fill="black"/>
<path d="M60.4902 39.1976C60.7116 39.2569 60.8033 38.9146 60.582 38.8553C60.3606 38.796 60.2689 39.1383 60.4902 39.1976Z" fill="black"/>
<path d="M57.0738 39.7154C57.2952 39.7747 57.3869 39.4324 57.1656 39.3731C56.9442 39.3137 56.8525 39.6561 57.0738 39.7154Z" fill="black"/>
<path d="M53.3146 40.7554C53.536 40.8147 53.6277 40.4724 53.4063 40.4131C53.185 40.3537 53.0932 40.6961 53.3146 40.7554Z" fill="black"/>
<path d="M49.7579 41.0304C49.9793 41.0897 50.071 40.7474 49.8496 40.688C49.6306 40.6293 49.5388 40.9717 49.7579 41.0304Z" fill="black"/>
<path d="M48.4589 41.2962C48.6803 41.3555 48.772 41.0132 48.5506 40.9538C48.3315 40.8951 48.2375 41.2368 48.4589 41.2962Z" fill="black"/>
<path d="M43.9476 41.3177C44.169 41.3771 44.2607 41.0347 44.0394 40.9754C43.8203 40.9167 43.7285 41.259 43.9476 41.3177Z" fill="black"/>
<path d="M40.8257 41.5036C41.0471 41.5629 41.1388 41.2206 40.9174 41.1612C40.6984 41.1025 40.6066 41.4449 40.8257 41.5036Z" fill="black"/>
<path d="M44.1908 41.1772C44.4121 41.2366 44.5039 40.8942 44.2825 40.8349C44.0634 40.7762 43.9694 41.1179 44.1908 41.1772Z" fill="black"/>
<path d="M45.7711 41.3953C45.9925 41.4546 46.0842 41.1123 45.8629 41.053C45.6415 40.9936 45.5498 41.336 45.7711 41.3953Z" fill="black"/>
<path d="M38.9532 41.6181C39.1746 41.6774 39.2663 41.3351 39.0449 41.2758C38.8236 41.2165 38.7318 41.5588 38.9532 41.6181Z" fill="black"/>
<path d="M32.7602 41.8005C32.9815 41.8598 33.0732 41.5175 32.8519 41.4582C32.6328 41.3995 32.5411 41.7418 32.7602 41.8005Z" fill="black"/>
<path d="M27.7429 40.6616C27.9643 40.7209 28.056 40.3786 27.8347 40.3193C27.6133 40.26 27.5216 40.6023 27.7429 40.6616Z" fill="black"/>
<path d="M25.7798 40.3386C26.0011 40.3979 26.0929 40.0556 25.8715 39.9963C25.6524 39.9376 25.5607 40.2799 25.7798 40.3386Z" fill="black"/>
<path d="M21.7569 39.3046C21.693 39.2875 21.6291 39.2704 21.5652 39.2532C21.4762 39.2294 21.3687 39.2838 21.3481 39.3785C21.3276 39.4733 21.3776 39.5699 21.4734 39.5956C21.5373 39.6127 21.6012 39.6298 21.6651 39.6469C21.7541 39.6708 21.8617 39.6164 21.8822 39.5216C21.9027 39.4268 21.8527 39.3303 21.7569 39.3046Z" fill="black"/>
<path d="M18.6094 38.8281C18.8307 38.8875 18.9225 38.5451 18.7011 38.4858C18.4797 38.4265 18.388 38.7688 18.6094 38.8281Z" fill="black"/>
<path d="M16.5721 37.2575C16.7935 37.3169 16.8852 36.9745 16.6639 36.9152C16.4448 36.8565 16.3508 37.1982 16.5721 37.2575Z" fill="black"/>
<path d="M15.5286 36.5695C15.75 36.6288 15.8417 36.2865 15.6203 36.2272C15.399 36.1678 15.3072 36.5102 15.5286 36.5695Z" fill="black"/>
<path d="M100.586 40.111C100.808 40.1703 100.9 39.828 100.678 39.7687C100.457 39.7094 100.365 40.0517 100.586 40.111Z" fill="black"/>
<path d="M90.7392 37.8833C90.9606 37.9426 91.0523 37.6003 90.8309 37.541C90.6096 37.4817 90.5178 37.824 90.7392 37.8833Z" fill="black"/>
<path d="M80.189 37.5121C80.4103 37.5714 80.5021 37.2291 80.2807 37.1698C80.0616 37.1111 79.9699 37.4534 80.189 37.5121Z" fill="black"/>
<path d="M75.3863 37.8641C75.6076 37.9234 75.6993 37.5811 75.478 37.5217C75.2566 37.4624 75.1649 37.8047 75.3863 37.8641Z" fill="black"/>
<path d="M67.8272 39.3193C68.0486 39.3786 68.1403 39.0363 67.9189 38.977C67.6998 38.9183 67.6081 39.2606 67.8272 39.3193Z" fill="black"/>
<path d="M61.0858 40.7904C61.3072 40.8497 61.3989 40.5074 61.1776 40.4481C60.9585 40.3894 60.8645 40.7311 61.0858 40.7904Z" fill="black"/>
<path d="M57.2113 43.0275C57.4327 43.0868 57.5244 42.7445 57.303 42.6852C57.0817 42.6259 56.99 42.9682 57.2113 43.0275Z" fill="black"/>
<path d="M50.2913 43.6314C50.5126 43.6907 50.6044 43.3484 50.383 43.2891C50.1616 43.2298 50.0699 43.5721 50.2913 43.6314Z" fill="black"/>
<path d="M42.2616 44.5519C42.483 44.6112 42.5747 44.2689 42.3534 44.2095C42.1343 44.1508 42.0425 44.4932 42.2616 44.5519Z" fill="black"/>
<path d="M36.5541 44.4559C36.7754 44.5152 36.8671 44.1729 36.6458 44.1136C36.4267 44.0549 36.335 44.3972 36.5541 44.4559Z" fill="black"/>
<path d="M32.2352 44.5265C32.4566 44.5858 32.5483 44.2435 32.327 44.1841C32.1079 44.1254 32.0139 44.4671 32.2352 44.5265Z" fill="black"/>
<path d="M26.1956 44.1361C26.417 44.1955 26.5087 43.8531 26.2873 43.7938C26.0683 43.7351 25.9765 44.0774 26.1956 44.1361Z" fill="black"/>
<path d="M23.1398 43.3173C23.3612 43.3766 23.4529 43.0343 23.2315 42.975C23.0102 42.9157 22.9184 43.258 23.1398 43.3173Z" fill="black"/>
<path d="M19.7646 41.3904C19.986 41.4497 20.0777 41.1074 19.8564 41.0481C19.6373 40.9894 19.5456 41.3317 19.7646 41.3904Z" fill="black"/>
<path d="M19.7646 41.3904C19.986 41.4497 20.0777 41.1074 19.8564 41.0481C19.6373 40.9894 19.5456 41.3317 19.7646 41.3904Z" fill="black"/>
<path d="M101.207 43.9853C101.19 44.0492 101.172 44.1131 101.155 44.1769C101.132 44.266 101.186 44.3735 101.281 44.394C101.375 44.4145 101.472 44.3645 101.498 44.2687C101.515 44.2048 101.532 44.1409 101.549 44.077C101.573 43.988 101.519 43.8805 101.424 43.86C101.329 43.8395 101.232 43.8894 101.207 43.9853Z" fill="black"/>
<path d="M100.469 41.3073C100.69 41.3666 100.782 41.0243 100.561 40.9649C100.342 40.9062 100.25 41.2486 100.469 41.3073Z" fill="black"/>
<path d="M99.6495 44.3654C99.8708 44.4247 99.9625 44.0824 99.7412 44.023C99.5221 43.9643 99.4304 44.3067 99.6495 44.3654Z" fill="black"/>
<path d="M97.2951 41.6872C97.5164 41.7465 97.6081 41.4042 97.3868 41.3449C97.1677 41.2862 97.076 41.6285 97.2951 41.6872Z" fill="black"/>
<path d="M95.8328 40.2707C96.0542 40.33 96.1459 39.9877 95.9245 39.9284C95.7031 39.8691 95.6114 40.2114 95.8328 40.2707Z" fill="black"/>
<path d="M93.0686 39.1216C93.29 39.1809 93.3817 38.8386 93.1603 38.7793C92.9413 38.7206 92.8473 39.0623 93.0686 39.1216Z" fill="black"/>
<path d="M96.6994 40.0944C96.9208 40.1538 97.0125 39.8114 96.7912 39.7521C96.5698 39.6928 96.4781 40.0351 96.6994 40.0944Z" fill="black"/>
<path d="M94.7135 38.3319C94.9349 38.3912 95.0266 38.0489 94.8052 37.9896C94.5861 37.9309 94.4921 38.2726 94.7135 38.3319Z" fill="black"/>
<path d="M89.6163 39.0158C89.8377 39.0751 89.9294 38.7328 89.7081 38.6735C89.4867 38.6142 89.395 38.9565 89.6163 39.0158Z" fill="black"/>
<path d="M85.7938 37.9916C86.0151 38.0509 86.1069 37.7086 85.8855 37.6493C85.6664 37.5906 85.5747 37.9329 85.7938 37.9916Z" fill="black"/>
<path d="M87.3514 36.7701C87.5727 36.8294 87.6645 36.4871 87.4431 36.4278C87.2217 36.3685 87.13 36.7108 87.3514 36.7701Z" fill="black"/>
<path d="M82.5464 37.1214C82.7677 37.1807 82.8594 36.8384 82.6381 36.7791C82.419 36.7204 82.3273 37.0627 82.5464 37.1214Z" fill="black"/>
<path d="M78.7232 39.1666C78.9446 39.226 79.0363 38.8836 78.815 38.8243C78.5936 38.765 78.5019 39.1073 78.7232 39.1666Z" fill="black"/>
<path d="M75.4735 38.2959C75.6949 38.3552 75.7866 38.0129 75.5653 37.9536C75.3462 37.8949 75.2545 38.2372 75.4735 38.2959Z" fill="black"/>
<path d="M72.5809 39.1596C72.8023 39.219 72.894 38.8766 72.6726 38.8173C72.4535 38.7586 72.3595 39.1003 72.5809 39.1596Z" fill="black"/>
<path d="M70.236 38.7368C70.4574 38.7961 70.5491 38.4538 70.3277 38.3944C70.1086 38.3357 70.0169 38.6781 70.236 38.7368Z" fill="black"/>
<path d="M68.6676 40.7746C68.8889 40.8339 68.9806 40.4916 68.7593 40.4323C68.5379 40.373 68.4462 40.7153 68.6676 40.7746Z" fill="black"/>
<path d="M65.1359 42.4895C65.3573 42.5488 65.449 42.2065 65.2277 42.1472C65.0063 42.0879 64.9146 42.4302 65.1359 42.4895Z" fill="black"/>
<path d="M65.1359 42.4895C65.3573 42.5488 65.449 42.2065 65.2277 42.1472C65.0063 42.0879 64.9146 42.4302 65.1359 42.4895Z" fill="black"/>
<path d="M62.3592 42.1542C62.5806 42.2135 62.6723 41.8712 62.4509 41.8118C62.2296 41.7525 62.1378 42.0948 62.3592 42.1542Z" fill="black"/>
<path d="M60.5095 43.7082C60.7309 43.7675 60.8226 43.4252 60.6012 43.3659C60.3799 43.3066 60.2881 43.6489 60.5095 43.7082Z" fill="black"/>
<path d="M57.4617 45.1416C57.6831 45.2009 57.7748 44.8586 57.5534 44.7993C57.3343 44.7406 57.2426 45.0829 57.4617 45.1416Z" fill="black"/>
<path d="M52.5562 45.8771C52.7776 45.9364 52.8693 45.5941 52.648 45.5348C52.4266 45.4755 52.3349 45.8178 52.5562 45.8771Z" fill="black"/>
<path d="M54.7643 42.9857C54.9856 43.045 55.0774 42.7027 54.856 42.6434C54.6346 42.5841 54.5429 42.9264 54.7643 42.9857Z" fill="black"/>
<path d="M46.5834 44.4795C46.8048 44.5388 46.8965 44.1965 46.6752 44.1372C46.4538 44.0779 46.3621 44.4202 46.5834 44.4795Z" fill="black"/>
<path d="M44.3407 43.6758C44.562 43.7351 44.6538 43.3928 44.4324 43.3335C44.211 43.2741 44.1193 43.6165 44.3407 43.6758Z" fill="black"/>
<path d="M39.1038 44.1142C39.3252 44.1735 39.4169 43.8312 39.1955 43.7719C38.9742 43.7125 38.8824 44.0549 39.1038 44.1142Z" fill="black"/>
<path d="M40.5911 46.9708C40.8124 47.0301 40.9042 46.6878 40.6828 46.6285C40.4614 46.5692 40.3697 46.9115 40.5911 46.9708Z" fill="black"/>
<path d="M33.7606 48.0074C33.982 48.0667 34.0737 47.7244 33.8523 47.6651C33.631 47.6058 33.5392 47.9481 33.7606 48.0074Z" fill="black"/>
<path d="M27.0455 47.8469C27.2669 47.9063 27.3586 47.5639 27.1372 47.5046C26.9159 47.4453 26.8241 47.7876 27.0455 47.8469Z" fill="black"/>
<path d="M20.9039 47.8375C21.1252 47.8968 21.2169 47.5545 20.9956 47.4952C20.7765 47.4365 20.6848 47.7788 20.9039 47.8375Z" fill="black"/>
<path d="M37.6445 59.4923C37.8658 59.5517 37.9576 59.2093 37.7362 59.15C37.5171 59.0913 37.4254 59.4336 37.6445 59.4923Z" fill="black"/>
<path d="M44.9456 58.9903C45.1669 59.0496 45.2587 58.7073 45.0373 58.648C44.8182 58.5893 44.7265 58.9316 44.9456 58.9903Z" fill="black"/>
<path d="M48.2598 58.8536C48.4812 58.9129 48.5729 58.5706 48.3515 58.5113C48.1325 58.4526 48.0384 58.7943 48.2598 58.8536Z" fill="black"/>
<path d="M51.9163 58.1969C52.1376 58.2562 52.2294 57.9139 52.008 57.8546C51.7889 57.7959 51.6972 58.1382 51.9163 58.1969Z" fill="black"/>
<path d="M57.9315 57.1452C58.1529 57.2045 58.2446 56.8622 58.0232 56.8028C57.8041 56.7441 57.7124 57.0864 57.9315 57.1452Z" fill="black"/>
<path d="M41.0373 59.8289C40.9734 59.8118 40.9095 59.7946 40.8456 59.7775C40.7566 59.7537 40.6491 59.808 40.6286 59.9028C40.6081 59.9976 40.658 60.0942 40.7539 60.1198C40.8178 60.137 40.8817 60.1541 40.9456 60.1712C41.0346 60.1951 41.1421 60.1407 41.1626 60.0459C41.1831 59.9511 41.1331 59.8546 41.0373 59.8289Z" fill="black"/>
<path d="M44.8171 61.0032C45.0385 61.0625 45.1302 60.7202 44.9088 60.6608C44.6875 60.6015 44.5957 60.9438 44.8171 61.0032Z" fill="black"/>
<path d="M47.1614 61.4283C47.3828 61.4876 47.4745 61.1453 47.2532 61.086C47.0318 61.0267 46.9401 61.369 47.1614 61.4283Z" fill="black"/>
<path d="M52.6168 59.4072C52.8382 59.4665 52.9299 59.1242 52.7086 59.0649C52.4872 59.0056 52.3955 59.3479 52.6168 59.4072Z" fill="black"/>
<path d="M58.3376 58.6874C58.5589 58.7467 58.6506 58.4044 58.4293 58.3451C58.2102 58.2863 58.1185 58.6287 58.3376 58.6874Z" fill="black"/>
<path d="M62.3548 56.6939C62.5762 56.7533 62.6679 56.4109 62.4465 56.3516C62.2252 56.2923 62.1335 56.6346 62.3548 56.6939Z" fill="black"/>
<path d="M43.5408 62.7085C43.7622 62.7678 43.8539 62.4255 43.6325 62.3661C43.4134 62.3074 43.3194 62.6491 43.5408 62.7085Z" fill="black"/>
<path d="M46.98 63.63C47.2014 63.6893 47.2931 63.347 47.0717 63.2877C46.8526 63.229 46.7586 63.5707 46.98 63.63Z" fill="black"/>
<path d="M50.333 61.048C50.5544 61.1073 50.6461 60.765 50.4248 60.7057C50.2057 60.647 50.114 60.9893 50.333 61.048Z" fill="black"/>
<path d="M55.6726 60.226C55.8939 60.2853 55.9857 59.943 55.7643 59.8837C55.5452 59.825 55.4535 60.1673 55.6726 60.226Z" fill="black"/>
<path d="M60.8359 58.5373C61.0573 58.5966 61.149 58.2543 60.9277 58.195C60.7063 58.1356 60.6146 58.478 60.8359 58.5373Z" fill="black"/>
<path d="M63.8815 57.103C64.1029 57.1623 64.1946 56.82 63.9732 56.7607C63.7541 56.702 63.6624 57.0443 63.8815 57.103Z" fill="black"/>
<path d="M62.611 55.7379C62.8324 55.7972 62.9241 55.4549 62.7027 55.3955C62.4814 55.3362 62.3896 55.6785 62.611 55.7379Z" fill="black"/>
<path d="M65.5675 53.8689C65.7888 53.9282 65.8806 53.5859 65.6592 53.5266C65.4401 53.4679 65.3484 53.8102 65.5675 53.8689Z" fill="black"/>
<path d="M69.2018 51.7705C69.4232 51.8298 69.5149 51.4875 69.2936 51.4282C69.0745 51.3695 68.9805 51.7112 69.2018 51.7705Z" fill="black"/>
<path d="M48.4385 64.7865C48.5196 64.7397 48.6006 64.693 48.6816 64.6462C48.7626 64.5994 48.7984 64.4842 48.7464 64.4043C48.6945 64.3243 48.5913 64.2893 48.5045 64.3395C48.4235 64.3862 48.3425 64.433 48.2615 64.4798C48.1804 64.5266 48.1447 64.6417 48.1966 64.7217C48.248 64.8039 48.3517 64.8366 48.4385 64.7865Z" fill="black"/>
<path d="M55.5472 59.1698C55.7685 59.2291 55.8602 58.8868 55.6389 58.8275C55.4175 58.7682 55.3258 59.1105 55.5472 59.1698Z" fill="black"/>
<path d="M33.3049 57.3486C33.241 57.3314 33.1771 57.3143 33.1132 57.2972C33.0242 57.2733 32.9167 57.3277 32.8962 57.4225C32.8757 57.5173 32.9257 57.6138 33.0215 57.6395C33.0854 57.6566 33.1493 57.6738 33.2132 57.6909C33.3022 57.7147 33.4097 57.6604 33.4302 57.5656C33.4507 57.4708 33.4008 57.3742 33.3049 57.3486Z" fill="black"/>
<path d="M40.3477 58.5778C40.569 58.6371 40.6608 58.2948 40.4394 58.2355C40.218 58.1762 40.1263 58.5185 40.3477 58.5778Z" fill="black"/>
<path d="M49.523 57.9641C49.7443 58.0234 49.836 57.6811 49.6147 57.6218C49.3933 57.5625 49.3016 57.9048 49.523 57.9641Z" fill="black"/>
<path d="M55.7652 57.5894C55.9865 57.6487 56.0783 57.3064 55.8569 57.2471C55.6378 57.1884 55.5461 57.5307 55.7652 57.5894Z" fill="black"/>
<path d="M60.7499 55.0338C60.9713 55.0931 61.063 54.7508 60.8417 54.6915C60.6226 54.6328 60.5309 54.9751 60.7499 55.0338Z" fill="black"/>
<path d="M19.6459 45.6586C19.8672 45.7179 19.959 45.3756 19.7376 45.3162C19.5162 45.2569 19.4245 45.5993 19.6459 45.6586Z" fill="black"/>
<path d="M31.2013 46.0937C31.4226 46.153 31.5144 45.8107 31.293 45.7514C31.0716 45.692 30.9799 46.0344 31.2013 46.0937Z" fill="black"/>
<path d="M36.1694 47.4249C36.3908 47.4842 36.4825 47.1419 36.2611 47.0826C36.0398 47.0232 35.9481 47.3656 36.1694 47.4249Z" fill="black"/>
<path d="M44.821 46.4656C45.0423 46.5249 45.134 46.1826 44.9127 46.1233C44.6936 46.0646 44.6019 46.4069 44.821 46.4656Z" fill="black"/>
<path d="M29.7882 44.4849C30.0095 44.5442 30.1013 44.2019 29.8799 44.1426C29.6608 44.0839 29.5691 44.4262 29.7882 44.4849Z" fill="black"/>
<path d="M24.7161 46.6087C24.9375 46.668 25.0292 46.3257 24.8078 46.2664C24.5865 46.207 24.4948 46.5494 24.7161 46.6087Z" fill="black"/>
<path d="M18.6286 43.3389C18.85 43.3983 18.9417 43.0559 18.7203 42.9966C18.5013 42.9379 18.4073 43.2796 18.6286 43.3389Z" fill="black"/>
<path d="M17.5607 41.2085C17.782 41.2678 17.8738 40.9255 17.6524 40.8662C17.4333 40.8075 17.3416 41.1498 17.5607 41.2085Z" fill="black"/>
<path d="M33.9918 45.6112C34.2131 45.6706 34.3049 45.3282 34.0835 45.2689C33.8644 45.2102 33.7727 45.5525 33.9918 45.6112Z" fill="black"/>
<path d="M34.7975 43.3714C35.0188 43.4307 35.1105 43.0884 34.8892 43.0291C34.6701 42.9704 34.5761 43.3121 34.7975 43.3714Z" fill="black"/>
<path d="M33.9212 41.2923C34.1426 41.3516 34.2343 41.0093 34.0129 40.95C33.7916 40.8907 33.6998 41.233 33.9212 41.2923Z" fill="black"/>
<path d="M99.2358 39.7931C99.1719 39.7759 99.108 39.7588 99.0441 39.7417C98.9551 39.7178 98.8476 39.7722 98.8271 39.867C98.8066 39.9618 98.8565 40.0583 98.9524 40.084C99.0163 40.1011 99.0802 40.1182 99.1441 40.1354C99.2331 40.1592 99.3406 40.1049 99.3611 40.0101C99.3839 39.9159 99.3339 39.8194 99.2358 39.7931Z" fill="black"/>
<path d="M99.6781 42.7342C99.8995 42.7935 99.9912 42.4512 99.7698 42.3919C99.5485 42.3326 99.4567 42.6749 99.6781 42.7342Z" fill="black"/>
<path d="M96.3 43.8763C96.5213 43.9356 96.613 43.5933 96.3917 43.534C96.1703 43.4747 96.0786 43.817 96.3 43.8763Z" fill="black"/>
<path d="M100.641 36.8505C100.862 36.9098 100.954 36.5675 100.732 36.5082C100.511 36.4489 100.419 36.7912 100.641 36.8505Z" fill="black"/>
<path d="M95.4301 35.6574C95.6515 35.7167 95.7432 35.3744 95.5219 35.3151C95.3028 35.2564 95.2088 35.5981 95.4301 35.6574Z" fill="black"/>
<path d="M88.0908 35.5351C88.3122 35.5944 88.4039 35.2521 88.1826 35.1928C87.9635 35.1341 87.8717 35.4764 88.0908 35.5351Z" fill="black"/>
<path d="M83.4547 34.4982C83.6761 34.5576 83.7678 34.2152 83.5464 34.1559C83.3251 34.0966 83.2333 34.4389 83.4547 34.4982Z" fill="black"/>
<path d="M79.7732 33.7148C79.9945 33.7741 80.0862 33.4318 79.8649 33.3725C79.6458 33.3138 79.5541 33.6561 79.7732 33.7148Z" fill="black"/>
<path d="M75.7863 34.0797C76.0076 34.139 76.0994 33.7967 75.878 33.7374C75.6566 33.6781 75.5649 34.0204 75.7863 34.0797Z" fill="black"/>
<path d="M70.4826 35.5254C70.704 35.5847 70.7957 35.2424 70.5743 35.1831C70.3552 35.1244 70.2635 35.4667 70.4826 35.5254Z" fill="black"/>
<path d="M64.9381 37.1118C65.1595 37.1711 65.2512 36.8288 65.0299 36.7695C64.8108 36.7108 64.719 37.0531 64.9381 37.1118Z" fill="black"/>
<path d="M59.3041 38.2657C59.5255 38.325 59.6172 37.9827 59.3958 37.9234C59.1768 37.8647 59.085 38.207 59.3041 38.2657Z" fill="black"/>
<path d="M51.3663 39.6194C51.5876 39.6788 51.6794 39.3364 51.458 39.2771C51.2366 39.2178 51.1449 39.5601 51.3663 39.6194Z" fill="black"/>
<path d="M45.5794 41.3439C45.8008 41.4032 45.8925 41.0609 45.6711 41.0016C45.4521 40.9429 45.358 41.2846 45.5794 41.3439Z" fill="black"/>
<path d="M39.8336 40.6239C40.055 40.6832 40.1467 40.3409 39.9254 40.2815C39.7063 40.2228 39.6123 40.5645 39.8336 40.6239Z" fill="black"/>
<path d="M34.0879 39.9036C34.3092 39.9629 34.4009 39.6206 34.1796 39.5613C33.9605 39.5026 33.8688 39.8449 34.0879 39.9036Z" fill="black"/>
<path d="M27.7943 40.4699C28.0157 40.5292 28.1074 40.1869 27.886 40.1276C27.6646 40.0683 27.5729 40.4106 27.7943 40.4699Z" fill="black"/>
<path d="M21.8568 39.6983C22.0782 39.7576 22.1699 39.4153 21.9486 39.356C21.7295 39.2973 21.6355 39.639 21.8568 39.6983Z" fill="black"/>
<path d="M83.2938 72.5433C83.5151 72.6026 83.6069 72.2603 83.3855 72.201C83.1664 72.1423 83.0747 72.4846 83.2938 72.5433Z" fill="black"/>
<path d="M82.0426 75.6885C82.264 75.7479 82.3557 75.4055 82.1343 75.3462C81.913 75.2869 81.8212 75.6292 82.0426 75.6885Z" fill="black"/>
<path d="M80.9065 77.6371C81.1279 77.6964 81.2196 77.3541 80.9982 77.2948C80.7769 77.2354 80.6851 77.5778 80.9065 77.6371Z" fill="black"/>
<path d="M79.6469 75.4553C79.8683 75.5146 79.96 75.1723 79.7386 75.113C79.5195 75.0543 79.4255 75.396 79.6469 75.4553Z" fill="black"/>
<path d="M78.7637 79.5184C78.9851 79.5777 79.0768 79.2354 78.8554 79.1761C78.6341 79.1168 78.5423 79.4591 78.7637 79.5184Z" fill="black"/>
<path d="M77.593 77.7715C77.8143 77.8308 77.9061 77.4885 77.6847 77.4292C77.4656 77.3705 77.3716 77.7122 77.593 77.7715Z" fill="black"/>
<path d="M75.7814 79.9497C76.0028 80.009 76.0945 79.6667 75.8732 79.6074C75.6518 79.5481 75.5601 79.8904 75.7814 79.9497Z" fill="black"/>
<path d="M75.6184 78.2672C75.8398 78.3265 75.9315 77.9842 75.7101 77.9248C75.4887 77.8655 75.397 78.2079 75.6184 78.2672Z" fill="black"/>
<path d="M73.0657 81.6777C73.2871 81.7371 73.3788 81.3947 73.1574 81.3354C72.9361 81.2761 72.8443 81.6184 73.0657 81.6777Z" fill="black"/>
<path d="M71.8687 81.5624C72.0901 81.6217 72.1818 81.2794 71.9604 81.2201C71.7391 81.1608 71.6474 81.5031 71.8687 81.5624Z" fill="black"/>
<path d="M70.6055 82.452C70.8269 82.5113 70.9186 82.169 70.6973 82.1096C70.4759 82.0503 70.3842 82.3926 70.6055 82.452Z" fill="black"/>
<path d="M69.5849 83.2032C69.8062 83.2625 69.898 82.9202 69.6766 82.8609C69.4575 82.8022 69.3635 83.1439 69.5849 83.2032Z" fill="black"/>
<path d="M66.9484 83.1109C67.1698 83.1702 67.2615 82.8279 67.0401 82.7685C66.8188 82.7092 66.7271 83.0516 66.9484 83.1109Z" fill="black"/>
<path d="M67.5595 83.8885C67.7808 83.9478 67.8726 83.6055 67.6512 83.5462C67.4298 83.4868 67.3381 83.8292 67.5595 83.8885Z" fill="black"/>
<path d="M65.7228 84.6267C65.9442 84.686 66.0359 84.3437 65.8145 84.2844C65.5932 84.2251 65.5015 84.5674 65.7228 84.6267Z" fill="black"/>
<path d="M62.8794 85.298C63.1007 85.3573 63.1925 85.015 62.9711 84.9557C62.752 84.897 62.6603 85.2393 62.8794 85.298Z" fill="black"/>
<path d="M62.1685 84.9021C62.3898 84.9614 62.4815 84.6191 62.2602 84.5598C62.0388 84.5005 61.9471 84.8428 62.1685 84.9021Z" fill="black"/>
<path d="M60.7386 87.1801C60.96 87.2394 61.0517 86.8971 60.8304 86.8378C60.609 86.7785 60.5173 87.1208 60.7386 87.1801Z" fill="black"/>
<path d="M58.4452 86.5656C58.6665 86.6249 58.7583 86.2826 58.5369 86.2233C58.3155 86.164 58.2238 86.5063 58.4452 86.5656Z" fill="black"/>
<path d="M56.5579 87.4933C56.7792 87.5526 56.8709 87.2103 56.6496 87.151C56.4305 87.0923 56.3388 87.4346 56.5579 87.4933Z" fill="black"/>
<path d="M56.0593 86.4692C55.8801 86.6267 55.7016 86.7819 55.5247 86.9399C55.352 87.0918 55.6028 87.3424 55.7749 87.1929C55.9541 87.0354 56.1326 86.8802 56.3095 86.7222C56.4817 86.5726 56.2315 86.3197 56.0593 86.4692Z" fill="black"/>
<path d="M53.525 88.1138C53.7463 88.1731 53.8381 87.8308 53.6167 87.7715C53.3976 87.7128 53.3036 88.0545 53.525 88.1138Z" fill="black"/>
<path d="M53.0542 87.5792C53.2755 87.6385 53.3673 87.2962 53.1459 87.2369C52.9245 87.1776 52.8328 87.5199 53.0542 87.5792Z" fill="black"/>
<path d="M50.5044 87.921C50.7258 87.9803 50.8175 87.638 50.5962 87.5786C50.3771 87.5199 50.2854 87.8623 50.5044 87.921Z" fill="black"/>
<path d="M49.5769 86.0336C49.7982 86.0929 49.89 85.7506 49.6686 85.6913C49.4495 85.6326 49.3578 85.9749 49.5769 86.0336Z" fill="black"/>
<path d="M50.6071 87.5376C50.8285 87.597 50.9202 87.2546 50.6989 87.1953C50.4798 87.1366 50.3881 87.4789 50.6071 87.5376Z" fill="black"/>
<path d="M48.2909 85.4836C48.5123 85.5429 48.604 85.2006 48.3827 85.1413C48.1636 85.0826 48.0719 85.4249 48.2909 85.4836Z" fill="black"/>
<path d="M47.9516 82.9345C48.1729 82.9939 48.2646 82.6515 48.0433 82.5922C47.8219 82.5329 47.7302 82.8752 47.9516 82.9345Z" fill="black"/>
<path d="M49.5063 81.7147C49.7276 81.774 49.8194 81.4317 49.598 81.3724C49.3766 81.3131 49.2849 81.6554 49.5063 81.7147Z" fill="black"/>
<path d="M50.6108 84.4664C50.8322 84.5257 50.9239 84.1834 50.7025 84.1241C50.4834 84.0654 50.3917 84.4077 50.6108 84.4664Z" fill="black"/>
<path d="M47.0461 82.4889C47.2674 82.5482 47.3591 82.2059 47.1378 82.1466C46.9187 82.0879 46.8247 82.4296 47.0461 82.4889Z" fill="black"/>
<path d="M45.9422 79.735C46.1635 79.7943 46.2553 79.452 46.0339 79.3927C45.8125 79.3333 45.7208 79.6756 45.9422 79.735Z" fill="black"/>
<path d="M47.5615 77.5077C47.7828 77.567 47.8745 77.2247 47.6532 77.1654C47.4341 77.1067 47.3401 77.4484 47.5615 77.5077Z" fill="black"/>
<path d="M52.9174 84.2651C53.1388 84.3245 53.2305 83.9821 53.0091 83.9228C52.7901 83.8641 52.6983 84.2064 52.9174 84.2651Z" fill="black"/>
<path d="M59.0209 83.6502C59.2422 83.7096 59.334 83.3672 59.1126 83.3079C58.8935 83.2492 58.8018 83.5915 59.0209 83.6502Z" fill="black"/>
<path d="M62.5522 83.388C62.5693 83.3241 62.5864 83.2602 62.6035 83.1963C62.6274 83.1073 62.573 82.9998 62.4783 82.9793C62.3835 82.9588 62.2869 83.0088 62.2612 83.1046C62.2441 83.1685 62.227 83.2324 62.2099 83.2963C62.186 83.3853 62.2404 83.4928 62.3352 83.5133C62.4277 83.5332 62.5265 83.4839 62.5522 83.388Z" fill="black"/>
<path d="M67.701 81.0598C67.9223 81.1191 68.0141 80.7768 67.7927 80.7175C67.5736 80.6588 67.4819 81.0011 67.701 81.0598Z" fill="black"/>
<path d="M72.4833 79.269C72.7046 79.3283 72.7963 78.986 72.575 78.9267C72.3536 78.8673 72.2619 79.2097 72.4833 79.269Z" fill="black"/>
<path d="M70.903 79.051C71.1243 79.1103 71.216 78.768 70.9947 78.7086C70.7733 78.6493 70.6816 78.9916 70.903 79.051Z" fill="black"/>
<path d="M76.5113 76.4594C76.7326 76.5187 76.8244 76.1764 76.603 76.1171C76.3839 76.0583 76.2899 76.4001 76.5113 76.4594Z" fill="black"/>
<path d="M79.0514 73.8623C79.2727 73.9216 79.3645 73.5793 79.1431 73.52C78.9217 73.4607 78.83 73.803 79.0514 73.8623Z" fill="black"/>
<path d="M81.3837 72.0315C81.6051 72.0908 81.6968 71.7485 81.4754 71.6892C81.2564 71.6305 81.1623 71.9722 81.3837 72.0315Z" fill="black"/>
<path d="M83.857 70.4415C84.0783 70.5008 84.17 70.1585 83.9487 70.0992C83.7296 70.0405 83.6379 70.3828 83.857 70.4415Z" fill="black"/>
<path d="M57.7218 83.916C57.9432 83.9754 58.0349 83.633 57.8136 83.5737C57.5922 83.5144 57.5005 83.8567 57.7218 83.916Z" fill="black"/>
<path d="M57.6424 85.7366C57.8638 85.7959 57.9555 85.4536 57.7341 85.3943C57.5151 85.3356 57.4233 85.6779 57.6424 85.7366Z" fill="black"/>
<path d="M54.2033 84.8151C54.4247 84.8744 54.5164 84.5321 54.2951 84.4728C54.076 84.4141 53.9843 84.7564 54.2033 84.8151Z" fill="black"/>
<path d="M51.4164 82.2265C51.6377 82.2858 51.7294 81.9435 51.5081 81.8842C51.289 81.8255 51.195 82.1672 51.4164 82.2265Z" fill="black"/>
<path d="M63.7742 94.9571C63.9956 95.0164 64.0873 94.6741 63.866 94.6147C63.6446 94.5554 63.5529 94.8977 63.7742 94.9571Z" fill="black"/>
<path d="M69.2519 94.3777C69.4732 94.437 69.5649 94.0947 69.3436 94.0354C69.1245 93.9767 69.0328 94.319 69.2519 94.3777Z" fill="black"/>
<path d="M73.4459 93.2488C73.6672 93.3081 73.7589 92.9658 73.5376 92.9065C73.3185 92.8478 73.2245 93.1895 73.4459 93.2488Z" fill="black"/>
<path d="M77.103 92.5899C77.3244 92.6492 77.4161 92.3069 77.1947 92.2476C76.9757 92.1889 76.8839 92.5312 77.103 92.5899Z" fill="black"/>
<path d="M82.4199 90.3284C82.6412 90.3877 82.7329 90.0454 82.5116 89.9861C82.2902 89.9268 82.1985 90.2691 82.4199 90.3284Z" fill="black"/>
<path d="M83.2357 90.3416C83.4571 90.4009 83.5488 90.0586 83.3275 89.9993C83.1061 89.94 83.0144 90.2823 83.2357 90.3416Z" fill="black"/>
<path d="M86.4735 88.9565C86.6948 89.0158 86.7866 88.6735 86.5652 88.6141C86.3438 88.5548 86.2521 88.8972 86.4735 88.9565Z" fill="black"/>
<path d="M90.2841 87.7248C90.5055 87.7841 90.5972 87.4418 90.3758 87.3825C90.1568 87.3238 90.0627 87.6655 90.2841 87.7248Z" fill="black"/>
<path d="M91.2814 85.5363C91.5028 85.5956 91.5945 85.2533 91.3732 85.194C91.1518 85.1347 91.0601 85.477 91.2814 85.5363Z" fill="black"/>
<path d="M87.7116 86.627C87.9329 86.6864 88.0246 86.344 87.8033 86.2847C87.5842 86.226 87.4902 86.5677 87.7116 86.627Z" fill="black"/>
<path d="M85.0979 87.974C85.3193 88.0333 85.411 87.691 85.1896 87.6317C84.9706 87.573 84.8766 87.9147 85.0979 87.974Z" fill="black"/>
<path d="M81.0957 89.1543C81.317 89.2136 81.4088 88.8713 81.1874 88.812C80.9683 88.7533 80.8743 89.095 81.0957 89.1543Z" fill="black"/>
<path d="M76.1753 90.7025C76.3967 90.7618 76.4884 90.4195 76.2671 90.3602C76.048 90.3015 75.9563 90.6438 76.1753 90.7025Z" fill="black"/>
<path d="M70.5437 91.8571C70.7651 91.9164 70.8568 91.5741 70.6354 91.5147C70.4141 91.4554 70.3223 91.7977 70.5437 91.8571Z" fill="black"/>
<path d="M69.4722 92.7979C69.6935 92.8572 69.7853 92.5149 69.5639 92.4556C69.3425 92.3963 69.2508 92.7386 69.4722 92.7979Z" fill="black"/>
<path d="M67.4217 92.0431C67.6431 92.1024 67.7348 91.7601 67.5135 91.7008C67.2921 91.6415 67.2004 91.9838 67.4217 92.0431Z" fill="black"/>
<path d="M63.4708 93.0315C63.6921 93.0908 63.7839 92.7485 63.5625 92.6892C63.3411 92.6299 63.2494 92.9722 63.4708 93.0315Z" fill="black"/>
<path d="M60.8469 92.1256C61.0683 92.1849 61.16 91.8426 60.9386 91.7833C60.7173 91.724 60.6256 92.0663 60.8469 92.1256Z" fill="black"/>
<path d="M59.7144 91.0026C59.9358 91.062 60.0275 90.7196 59.8061 90.6603C59.5848 90.601 59.493 90.9433 59.7144 91.0026Z" fill="black"/>
<path d="M60.1434 93.9842C60.3647 94.0435 60.4565 93.7012 60.2351 93.6419C60.0137 93.5825 59.922 93.9249 60.1434 93.9842Z" fill="black"/>
<path d="M57.8785 91.7387C58.0998 91.798 58.1916 91.4557 57.9702 91.3964C57.7488 91.3371 57.6571 91.6794 57.8785 91.7387Z" fill="black"/>
<path d="M65.5058 94.6017C65.7272 94.6611 65.8189 94.3187 65.5976 94.2594C65.3785 94.2007 65.2868 94.543 65.5058 94.6017Z" fill="black"/>
<path d="M65.2047 92.6768C65.426 92.7361 65.5177 92.3938 65.2964 92.3345C65.075 92.2751 64.9833 92.6175 65.2047 92.6768Z" fill="black"/>
<path d="M79.9084 91.2943C80.1297 91.3536 80.2214 91.0113 80.0001 90.952C79.7787 90.8927 79.687 91.235 79.9084 91.2943Z" fill="black"/>
<path d="M78.9748 89.1461C79.0558 89.0993 79.1368 89.0525 79.2178 89.0057C79.2989 88.959 79.3346 88.8438 79.2827 88.7638C79.2307 88.6839 79.1276 88.6489 79.0408 88.699C78.9597 88.7458 78.8787 88.7926 78.7977 88.8393C78.7167 88.8861 78.6809 89.0013 78.7329 89.0813C78.7842 89.1635 78.8903 89.1968 78.9748 89.1461Z" fill="black"/>
<path d="M84.8835 86.4831C85.1049 86.5425 85.1966 86.2001 84.9752 86.1408C84.7538 86.0815 84.6621 86.4238 84.8835 86.4831Z" fill="black"/>
<path d="M88.2747 84.5252C88.4961 84.5846 88.5878 84.2422 88.3665 84.1829C88.1474 84.1242 88.0534 84.4659 88.2747 84.5252Z" fill="black"/>
<path d="M75.4262 89.6825C75.6476 89.7418 75.7393 89.3995 75.518 89.3402C75.2966 89.2809 75.2049 89.6232 75.4262 89.6825Z" fill="black"/>
<path d="M69.9332 91.0772C70.1546 91.1365 70.2463 90.7942 70.025 90.7349C69.8036 90.6756 69.7119 91.0179 69.9332 91.0772Z" fill="black"/>
<path d="M64.9365 91.3772C65.1578 91.4365 65.2495 91.0942 65.0282 91.0349C64.8091 90.9762 64.7174 91.3185 64.9365 91.3772Z" fill="black"/>
<path d="M61.6378 90.6987C61.8591 90.758 61.9508 90.4157 61.7295 90.3564C61.5104 90.2977 61.4164 90.6394 61.6378 90.6987Z" fill="black"/>
<path d="M101.811 81.3941C102.032 81.4534 102.124 81.1111 101.902 81.0517C101.681 80.9924 101.589 81.3347 101.811 81.3941Z" fill="black"/>
<path d="M105.48 79.9216C105.702 79.9809 105.793 79.6386 105.572 79.5793C105.353 79.5206 105.261 79.8629 105.48 79.9216Z" fill="black"/>
<path d="M108.388 78.2425C108.61 78.3018 108.701 77.9595 108.48 77.9001C108.259 77.8408 108.167 78.1831 108.388 78.2425Z" fill="black"/>
<path d="M111.678 76.6657C111.899 76.725 111.991 76.3827 111.769 76.3234C111.55 76.2647 111.456 76.6064 111.678 76.6657Z" fill="black"/>
<path d="M115.642 74.8612C115.863 74.9206 115.955 74.5782 115.733 74.5189C115.514 74.4602 115.423 74.8025 115.642 74.8612Z" fill="black"/>
<path d="M121.15 72.6512C121.372 72.7105 121.463 72.3681 121.242 72.3088C121.021 72.2495 120.929 72.5918 121.15 72.6512Z" fill="black"/>
<path d="M126.848 70.492C127.069 70.5513 127.161 70.209 126.94 70.1497C126.718 70.0904 126.627 70.4327 126.848 70.492Z" fill="black"/>
<path d="M133.845 68.0669C134.067 68.1262 134.158 67.7839 133.937 67.7246C133.715 67.6652 133.624 68.0076 133.845 68.0669Z" fill="black"/>
<path d="M136.789 67.0137C137.01 67.073 137.102 66.7307 136.88 66.6714C136.661 66.6127 136.569 66.955 136.789 67.0137Z" fill="black"/>
<path d="M140.717 64.5833C140.939 64.6426 141.03 64.3003 140.809 64.241C140.588 64.1817 140.496 64.524 140.717 64.5833Z" fill="black"/>
<path d="M145.753 61.838C145.974 61.8973 146.066 61.555 145.845 61.4957C145.623 61.4364 145.531 61.7787 145.753 61.838Z" fill="black"/>
<path d="M148.968 59.0136C149.189 59.0729 149.281 58.7306 149.06 58.6713C148.838 58.612 148.747 58.9543 148.968 59.0136Z" fill="black"/>
<path d="M152.257 57.4368C152.478 57.4961 152.57 57.1538 152.349 57.0945C152.127 57.0352 152.036 57.3775 152.257 57.4368Z" fill="black"/>
<path d="M155.316 55.1865C155.537 55.2458 155.629 54.9035 155.407 54.8442C155.188 54.7855 155.097 55.1278 155.316 55.1865Z" fill="black"/>
<path d="M157.04 52.5765C157.261 52.6358 157.353 52.2935 157.132 52.2342C156.91 52.1749 156.819 52.5172 157.04 52.5765Z" fill="black"/>
<path d="M158.099 52.4494C158.32 52.5087 158.412 52.1664 158.191 52.1071C157.969 52.0478 157.878 52.3901 158.099 52.4494Z" fill="black"/>
<path d="M153.521 53.4756C153.743 53.5349 153.834 53.1926 153.613 53.1333C153.394 53.0746 153.302 53.4169 153.521 53.4756Z" fill="black"/>
<path d="M156.566 55.1108C156.788 55.1701 156.879 54.8278 156.658 54.7685C156.437 54.7091 156.345 55.0515 156.566 55.1108Z" fill="black"/>
<path d="M157.309 50.8044C157.531 50.8637 157.622 50.5214 157.401 50.4621C157.182 50.4034 157.09 50.7457 157.309 50.8044Z" fill="black"/>
<path d="M153.146 58.6998C153.368 58.7592 153.46 58.4168 153.238 58.3575C153.019 58.2988 152.925 58.6405 153.146 58.6998Z" fill="black"/>
<path d="M150.034 61.1409C150.256 61.2002 150.347 60.8579 150.126 60.7986C149.907 60.7399 149.815 61.0822 150.034 61.1409Z" fill="black"/>
<path d="M146.847 62.3369C147.068 62.3962 147.16 62.0539 146.939 61.9946C146.72 61.9359 146.628 62.2782 146.847 62.3369Z" fill="black"/>
<path d="M143.942 64.0142C144.163 64.0735 144.255 63.7312 144.034 63.6719C143.812 63.6125 143.721 63.9549 143.942 64.0142Z" fill="black"/>
<path d="M138.663 66.8995C138.885 66.9589 138.976 66.6165 138.755 66.5572C138.534 66.4979 138.442 66.8402 138.663 66.8995Z" fill="black"/>
<path d="M138.909 63.6904C139.131 63.7497 139.222 63.4074 139.001 63.3481C138.78 63.2888 138.688 63.6311 138.909 63.6904Z" fill="black"/>
<path d="M137.976 64.8737C138.197 64.933 138.289 64.5907 138.068 64.5314C137.848 64.4727 137.757 64.815 137.976 64.8737Z" fill="black"/>
<path d="M132.889 67.8107C133.11 67.87 133.202 67.5277 132.981 67.4683C132.762 67.4096 132.67 67.7519 132.889 67.8107Z" fill="black"/>
<path d="M129.245 67.6536C129.466 67.7129 129.558 67.3706 129.337 67.3112C129.118 67.2525 129.026 67.5949 129.245 67.6536Z" fill="black"/>
<path d="M130.159 70.3567C130.381 70.416 130.473 70.0737 130.251 70.0144C130.032 69.9557 129.938 70.2974 130.159 70.3567Z" fill="black"/>
<path d="M124.961 71.4195C125.182 71.4788 125.274 71.1365 125.053 71.0772C124.831 71.0179 124.739 71.3602 124.961 71.4195Z" fill="black"/>
<path d="M123.735 72.9353C123.957 72.9947 124.048 72.6523 123.827 72.593C123.606 72.5337 123.514 72.876 123.735 72.9353Z" fill="black"/>
<path d="M124.295 73.9048C124.516 73.9642 124.608 73.6218 124.387 73.5625C124.165 73.5032 124.074 73.8455 124.295 73.9048Z" fill="black"/>
<path d="M121.886 74.4872C122.107 74.5465 122.199 74.2042 121.978 74.1449C121.756 74.0855 121.665 74.4279 121.886 74.4872Z" fill="black"/>
<path d="M120.152 74.8419C120.374 74.9012 120.465 74.5589 120.244 74.4996C120.025 74.4409 119.931 74.7826 120.152 74.8419Z" fill="black"/>
<path d="M115.856 76.3521C116.077 76.4114 116.169 76.0691 115.948 76.0098C115.729 75.9511 115.637 76.2934 115.856 76.3521Z" fill="black"/>
<path d="M112.759 77.9803C112.98 78.0396 113.072 77.6973 112.85 77.638C112.631 77.5793 112.537 77.921 112.759 77.9803Z" fill="black"/>
<path d="M110.005 79.084C110.226 79.1433 110.318 78.801 110.096 78.7417C109.877 78.683 109.786 79.0253 110.005 79.084Z" fill="black"/>
<path d="M107.252 80.1908C107.474 80.2501 107.566 79.9078 107.344 79.8485C107.123 79.7892 107.031 80.1315 107.252 80.1908Z" fill="black"/>
<path d="M104.307 81.2434C104.528 81.3027 104.62 80.9604 104.399 80.9011C104.179 80.8424 104.088 81.1847 104.307 81.2434Z" fill="black"/>
<path d="M103.878 78.2618C104.099 78.3212 104.191 77.9788 103.97 77.9195C103.75 77.8608 103.656 78.2025 103.878 78.2618Z" fill="black"/>
<path d="M101.725 77.8903C101.946 77.9496 102.038 77.6073 101.816 77.548C101.597 77.4893 101.503 77.831 101.725 77.8903Z" fill="black"/>
<path d="M99.9297 76.1816C100.151 76.2409 100.243 75.8986 100.021 75.8393C99.8024 75.7806 99.7106 76.1229 99.9297 76.1816Z" fill="black"/>
<path d="M98.151 73.6551C98.3724 73.7144 98.4641 73.3721 98.2427 73.3128C98.0214 73.2535 97.9296 73.5958 98.151 73.6551Z" fill="black"/>
<path d="M100.736 73.9393C100.957 73.9986 101.049 73.6563 100.828 73.597C100.606 73.5377 100.515 73.88 100.736 73.9393Z" fill="black"/>
<path d="M101.072 79.5574C101.294 79.6167 101.386 79.2744 101.164 79.2151C100.945 79.1564 100.853 79.4987 101.072 79.5574Z" fill="black"/>
<path d="M96.8394 71.6674C97.0607 71.7268 97.1525 71.3844 96.9311 71.3251C96.712 71.2664 96.618 71.6081 96.8394 71.6674Z" fill="black"/>
<path d="M104.62 77.0272C104.841 77.0865 104.933 76.7442 104.711 76.6849C104.49 76.6256 104.398 76.9679 104.62 77.0272Z" fill="black"/>
<path d="M109.297 75.6193C109.518 75.6786 109.61 75.3363 109.389 75.277C109.167 75.2177 109.075 75.56 109.297 75.6193Z" fill="black"/>
<path d="M113.647 73.1406C113.583 73.1235 113.519 73.1063 113.455 73.0892C113.366 73.0654 113.259 73.1197 113.238 73.2145C113.218 73.3093 113.268 73.4059 113.364 73.4315C113.427 73.4487 113.491 73.4658 113.555 73.4829C113.644 73.5067 113.752 73.4524 113.772 73.3576C113.792 73.2651 113.743 73.1663 113.647 73.1406Z" fill="black"/>
<path d="M121.381 70.2572C121.602 70.3165 121.694 69.9742 121.472 69.9149C121.253 69.8562 121.159 70.1979 121.381 70.2572Z" fill="black"/>
<path d="M97.3833 65.0551C97.6046 65.1144 97.6963 64.7721 97.475 64.7127C97.2536 64.6534 97.1619 64.9957 97.3833 65.0551Z" fill="black"/>
<path d="M94.8336 65.3966C95.055 65.4559 95.1467 65.1136 94.9254 65.0543C94.7063 64.9956 94.6123 65.3373 94.8336 65.3966Z" fill="black"/>
<path d="M94.76 64.1468C94.9814 64.2061 95.0731 63.8638 94.8518 63.8044C94.6304 63.7451 94.5387 64.0874 94.76 64.1468Z" fill="black"/>
<path d="M92.2331 65.9278C92.4545 65.9871 92.5462 65.6448 92.3248 65.5855C92.1057 65.5268 92.014 65.8691 92.2331 65.9278Z" fill="black"/>
<path d="M89.9168 63.8737C90.1382 63.933 90.2299 63.5907 90.0085 63.5314C89.7894 63.4727 89.6977 63.815 89.9168 63.8737Z" fill="black"/>
<path d="M88.7073 64.572C88.9287 64.6313 89.0204 64.289 88.799 64.2297C88.5776 64.1703 88.4859 64.5127 88.7073 64.572Z" fill="black"/>
<path d="M86.8611 63.0549C87.0824 63.1143 87.1742 62.7719 86.9528 62.7126C86.7314 62.6533 86.6397 62.9956 86.8611 63.0549Z" fill="black"/>
<path d="M83.7009 62.6166C83.9223 62.676 84.014 62.3336 83.7926 62.2743C83.5736 62.2156 83.4818 62.5579 83.7009 62.6166Z" fill="black"/>
<path d="M82.9518 61.5966C83.1732 61.6559 83.2649 61.3136 83.0436 61.2543C82.8222 61.195 82.7305 61.5373 82.9518 61.5966Z" fill="black"/>
<path d="M81.3847 60.5628C81.606 60.6221 81.6977 60.2798 81.4764 60.2205C81.2573 60.1618 81.1656 60.5041 81.3847 60.5628Z" fill="black"/>
<path d="M79.5385 59.0456C79.7599 59.1049 79.8516 58.7626 79.6302 58.7033C79.4111 58.6446 79.3194 58.9869 79.5385 59.0456Z" fill="black"/>
<path d="M78.6719 59.2218C78.8932 59.2811 78.9849 58.9388 78.7636 58.8795C78.5445 58.8208 78.4528 59.1631 78.6719 59.2218Z" fill="black"/>
<path d="M77.3249 56.6082C77.5463 56.6675 77.638 56.3252 77.4166 56.2659C77.1975 56.2072 77.1058 56.5495 77.3249 56.6082Z" fill="black"/>
<path d="M76.1793 56.3012C76.4007 56.3606 76.4924 56.0182 76.271 55.9589C76.0497 55.8996 75.958 56.2419 76.1793 56.3012Z" fill="black"/>
<path d="M76.739 57.2707C76.9603 57.33 77.052 56.9877 76.8307 56.9284C76.6093 56.8691 76.5176 57.2114 76.739 57.2707Z" fill="black"/>
<path d="M75.6585 54.2465C75.5821 54.0206 75.5051 53.7969 75.4309 53.5716C75.3589 53.3566 75.0163 53.4483 75.0878 53.6656C75.1642 53.8915 75.2412 54.1152 75.3154 54.3405C75.3897 54.5561 75.7322 54.4644 75.6585 54.2465Z" fill="black"/>
<path d="M75.8113 55.3833C76.0326 55.4426 76.1244 55.1003 75.903 55.041C75.6816 54.9817 75.5899 55.324 75.8113 55.3833Z" fill="black"/>
<path d="M75.0599 54.3627C75.2813 54.422 75.373 54.0797 75.1517 54.0204C74.9326 53.9617 74.8386 54.3034 75.0599 54.3627Z" fill="black"/>
<path d="M75.766 50.8877C75.9024 50.3788 76.0394 49.8676 76.1757 49.3587C76.235 49.1373 75.8927 49.0456 75.8334 49.267C75.6971 49.7759 75.5601 50.2871 75.4237 50.796C75.3644 51.0173 75.7067 51.1091 75.766 50.8877Z" fill="black"/>
<path d="M77.4722 50.7091C77.6936 50.7684 77.7853 50.4261 77.5639 50.3668C77.3449 50.3081 77.2509 50.6498 77.4722 50.7091Z" fill="black"/>
<path d="M74.9249 51.0512C75.1463 51.1106 75.238 50.7682 75.0166 50.7089C74.7952 50.6496 74.7035 50.9919 74.9249 51.0512Z" fill="black"/>
<path d="M78.5951 49.5766C78.8165 49.6359 78.9082 49.2936 78.6868 49.2342C78.4677 49.1755 78.3737 49.5172 78.5951 49.5766Z" fill="black"/>
<path d="M75.9205 48.8599C76.1419 48.9192 76.2336 48.5769 76.0122 48.5176C75.7909 48.4583 75.6991 48.8006 75.9205 48.8599Z" fill="black"/>
<path d="M76.5726 47.1928C76.794 47.2521 76.8857 46.9098 76.6644 46.8505C76.443 46.7911 76.3513 47.1335 76.5726 47.1928Z" fill="black"/>
<path d="M76.8221 46.5357C76.5791 46.676 76.3389 46.8147 76.0958 46.955C75.8991 47.0686 76.0762 47.3753 76.2729 47.2617C76.516 47.1214 76.7562 46.9827 76.9992 46.8424C77.1983 46.7294 77.0212 46.4227 76.8221 46.5357Z" fill="black"/>
<path d="M74.9797 47.7885C75.2011 47.8478 75.2928 47.5055 75.0714 47.4462C74.8501 47.3869 74.7584 47.7292 74.9797 47.7885Z" fill="black"/>
<path d="M79.1104 44.5953C79.3318 44.6546 79.4235 44.3123 79.2021 44.253C78.983 44.1943 78.889 44.536 79.1104 44.5953Z" fill="black"/>
<path d="M75.5275 46.5019C75.7488 46.5612 75.8405 46.2189 75.6192 46.1596C75.4001 46.1009 75.3084 46.4432 75.5275 46.5019Z" fill="black"/>
<path d="M74.0846 49.5957C74.306 49.655 74.3977 49.3127 74.1763 49.2534C73.9572 49.1947 73.8655 49.537 74.0846 49.5957Z" fill="black"/>
<path d="M71.6112 51.1857C71.8326 51.245 71.9243 50.9027 71.7029 50.8434C71.4816 50.784 71.3898 51.1264 71.6112 51.1857Z" fill="black"/>
<path d="M72.6123 54.3231C72.8337 54.3825 72.9254 54.0401 72.7041 53.9808C72.485 53.9221 72.3933 54.2644 72.6123 54.3231Z" fill="black"/>
<path d="M78.038 57.0047C78.2594 57.064 78.3511 56.7217 78.1298 56.6624C77.9107 56.6037 77.8167 56.9454 78.038 57.0047Z" fill="black"/>
<path d="M76.8446 53.8183C77.066 53.8777 77.1577 53.5353 76.9363 53.476C76.715 53.4167 76.6232 53.759 76.8446 53.8183Z" fill="black"/>
<path d="M80.303 59.2504C80.5244 59.3098 80.6161 58.9674 80.3947 58.9081C80.1757 58.8494 80.0839 59.1917 80.303 59.2504Z" fill="black"/>
<path d="M91.8424 63.5704C92.0637 63.6297 92.1554 63.2874 91.9341 63.2281C91.7127 63.1688 91.621 63.5111 91.8424 63.5704Z" fill="black"/>
<path d="M95.0009 64.0056C95.2222 64.0649 95.3139 63.7226 95.0926 63.6633C94.8735 63.6046 94.7818 63.9469 95.0009 64.0056Z" fill="black"/>
<path d="M88.8322 65.6304C89.0536 65.6897 89.1453 65.3474 88.9239 65.2881C88.7049 65.2294 88.6131 65.5717 88.8322 65.6304Z" fill="black"/>
<path d="M85.4599 63.7018C85.6812 63.7611 85.773 63.4188 85.5516 63.3595C85.3302 63.3002 85.2385 63.6425 85.4599 63.7018Z" fill="black"/>
<path d="M85.78 61.7405C86.0013 61.7999 86.0931 61.4575 85.8717 61.3982C85.6503 61.3389 85.5586 61.6812 85.78 61.7405Z" fill="black"/>
<path d="M83.0289 59.7754C83.2503 59.8347 83.342 59.4924 83.1207 59.4331C82.9016 59.3744 82.8099 59.7167 83.0289 59.7754Z" fill="black"/>
<path d="M80.8529 57.9646C81.0743 58.0239 81.166 57.6816 80.9446 57.6223C80.7233 57.563 80.6315 57.9053 80.8529 57.9646Z" fill="black"/>
<path d="M78.9178 56.0127C79.1391 56.072 79.2308 55.7297 79.0095 55.6704C78.7904 55.6117 78.6987 55.954 78.9178 56.0127Z" fill="black"/>
<path d="M82.1302 44.7904C82.3516 44.8497 82.4433 44.5074 82.2219 44.4481C82.0006 44.3888 81.9089 44.7311 82.1302 44.7904Z" fill="black"/>
<path d="M86.1553 45.0496C86.3767 45.1089 86.4684 44.7666 86.247 44.7073C86.0279 44.6486 85.9362 44.9909 86.1553 45.0496Z" fill="black"/>
<path d="M95.6854 46.1698C95.9068 46.2291 95.9985 45.8868 95.7771 45.8275C95.5558 45.7682 95.4641 46.1105 95.6854 46.1698Z" fill="black"/>
<path d="M101.035 47.6031C101.256 47.6624 101.348 47.3201 101.126 47.2608C100.907 47.2021 100.813 47.5438 101.035 47.6031Z" fill="black"/>
<path d="M97.6299 61.8435C97.8513 61.9028 97.943 61.5605 97.7216 61.5012C97.5003 61.4419 97.4086 61.7842 97.6299 61.8435Z" fill="black"/>
<path d="M96.6127 59.5236C96.834 59.583 96.9258 59.2406 96.7044 59.1813C96.483 59.122 96.3913 59.4643 96.6127 59.5236Z" fill="black"/>
<path d="M96.0364 62.4415C96.2578 62.5008 96.3495 62.1585 96.1281 62.0991C95.9068 62.0398 95.815 62.3821 96.0364 62.4415Z" fill="black"/>
<path d="M97.0189 61.0659C97.2402 61.1252 97.3319 60.7829 97.1106 60.7236C96.8892 60.6643 96.7975 61.0066 97.0189 61.0659Z" fill="black"/>
<path d="M93.8678 62.8851C94.0892 62.9444 94.1809 62.6021 93.9595 62.5428C93.7404 62.4841 93.6487 62.8264 93.8678 62.8851Z" fill="black"/>
<path d="M92.6428 64.3987C92.8642 64.4581 92.9559 64.1157 92.7345 64.0564C92.5155 63.9977 92.4237 64.34 92.6428 64.3987Z" fill="black"/>
<path d="M90.9016 62.4988C91.123 62.5581 91.2147 62.2158 90.9934 62.1565C90.772 62.0972 90.6803 62.4395 90.9016 62.4988Z" fill="black"/>
<path d="M88.6309 63.3237C88.8522 63.3831 88.944 63.0407 88.7226 62.9814C88.5035 62.9227 88.4118 63.265 88.6309 63.3237Z" fill="black"/>
<path d="M86.6597 60.7483C86.8811 60.8076 86.9728 60.4653 86.7514 60.406C86.5301 60.3467 86.4384 60.689 86.6597 60.7483Z" fill="black"/>
<path d="M82.9172 57.9012C83.1386 57.9605 83.2303 57.6182 83.0089 57.5589C82.7898 57.5002 82.6958 57.8419 82.9172 57.9012Z" fill="black"/>
<path d="M94.6775 57.5719C94.8988 57.6312 94.9906 57.2889 94.7692 57.2296C94.5501 57.1709 94.4584 57.5132 94.6775 57.5719Z" fill="black"/>
<path d="M91.9133 56.4228C92.1346 56.4821 92.2263 56.1398 92.005 56.0805C91.7859 56.0218 91.6942 56.3641 91.9133 56.4228Z" fill="black"/>
<path d="M158.697 50.9733C158.919 51.0327 159.01 50.6903 158.789 50.631C158.57 50.5723 158.478 50.9146 158.697 50.9733Z" fill="black"/>
<path d="M157.057 48.6895C157.278 48.7488 157.37 48.4065 157.148 48.3471C156.929 48.2884 156.838 48.6307 157.057 48.6895Z" fill="black"/>
<path d="M154.587 47.2084C154.808 47.2677 154.9 46.9254 154.679 46.866C154.459 46.8073 154.368 47.1497 154.587 47.2084Z" fill="black"/>
<path d="M149.554 46.8846C149.776 46.9439 149.867 46.6016 149.646 46.5423C149.427 46.4836 149.335 46.8259 149.554 46.8846Z" fill="black"/>
<path d="M155.069 50.0011C155.29 50.0604 155.382 49.7181 155.161 49.6588C154.939 49.5994 154.847 49.9418 155.069 50.0011Z" fill="black"/>
<path d="M152.127 47.9824C152.348 48.0417 152.44 47.6994 152.218 47.64C151.999 47.5813 151.908 47.9237 152.127 47.9824Z" fill="black"/>
<path d="M158.695 54.0422C158.916 54.1015 159.008 53.7592 158.786 53.6999C158.567 53.6412 158.475 53.9835 158.695 54.0422Z" fill="black"/>
<path d="M155.204 53.3123C155.425 53.3716 155.517 53.0293 155.296 52.97C155.077 52.9113 154.985 53.2536 155.204 53.3123Z" fill="black"/>
<path d="M155.018 51.0319C154.983 51.1597 154.949 51.2875 154.915 51.413C154.856 51.6344 155.198 51.7261 155.258 51.5047C155.292 51.3769 155.326 51.2491 155.36 51.1236C155.419 50.9022 155.077 50.8105 155.018 51.0319Z" fill="black"/>
<path d="M153.131 51.1182C153.352 51.1775 153.444 50.8352 153.222 50.7759C153.001 50.7166 152.909 51.0589 153.131 51.1182Z" fill="black"/>
<path d="M152.855 55.9607C153.077 56.02 153.169 55.6777 152.947 55.6184C152.728 55.5597 152.636 55.902 152.855 55.9607Z" fill="black"/>
<path d="M151.253 54.301C151.474 54.3603 151.566 54.018 151.345 53.9586C151.126 53.8999 151.034 54.2423 151.253 54.301Z" fill="black"/>
<path d="M144.685 59.7076C144.906 59.7669 144.998 59.4246 144.777 59.3653C144.558 59.3066 144.466 59.6489 144.685 59.7076Z" fill="black"/>
<path d="M148.956 56.7577C149.177 56.817 149.269 56.4747 149.048 56.4154C148.829 56.3567 148.737 56.699 148.956 56.7577Z" fill="black"/>
<path d="M135.95 65.5588C136.172 65.6181 136.264 65.2758 136.042 65.2164C135.821 65.1571 135.729 65.4994 135.95 65.5588Z" fill="black"/>
<path d="M117.427 62.8482C117.649 62.9075 117.74 62.5652 117.519 62.5059C117.3 62.4471 117.208 62.7895 117.427 62.8482Z" fill="black"/>
<path d="M112.945 61.2386C113.166 61.2979 113.258 60.9556 113.036 60.8963C112.815 60.837 112.723 61.1793 112.945 61.2386Z" fill="black"/>
<path d="M110.055 59.0313C110.277 59.0906 110.369 58.7483 110.147 58.689C109.926 58.6296 109.834 58.972 110.055 59.0313Z" fill="black"/>
<path d="M107.791 56.7856C108.012 56.8449 108.104 56.5026 107.882 56.4433C107.661 56.384 107.569 56.7263 107.791 56.7856Z" fill="black"/>
<path d="M105.436 54.1074C105.657 54.1667 105.749 53.8244 105.528 53.7651C105.306 53.7058 105.215 54.0481 105.436 54.1074Z" fill="black"/>
<path d="M104.432 50.9718C104.653 51.0311 104.745 50.6888 104.524 50.6295C104.305 50.5708 104.213 50.9131 104.432 50.9718Z" fill="black"/>
<path d="M109.646 60.5601C109.867 60.6194 109.959 60.2771 109.738 60.2178C109.516 60.1585 109.424 60.5008 109.646 60.5601Z" fill="black"/>
<path d="M106.578 57.4854C106.8 57.5448 106.891 57.2024 106.67 57.1431C106.449 57.0838 106.357 57.4261 106.578 57.4854Z" fill="black"/>
<path d="M103.306 55.1754C103.527 55.2347 103.619 54.8924 103.397 54.8331C103.178 54.7744 103.087 55.1167 103.306 55.1754Z" fill="black"/>
<path d="M102.291 52.8539C102.513 52.9133 102.604 52.5709 102.383 52.5116C102.162 52.4523 102.07 52.7946 102.291 52.8539Z" fill="black"/>
<path d="M102.689 49.0712C102.91 49.1305 103.002 48.7882 102.78 48.7289C102.561 48.6702 102.469 49.0125 102.689 49.0712Z" fill="black"/>
<path d="M103.427 50.9054C103.649 50.9647 103.74 50.6224 103.519 50.5631C103.298 50.5038 103.206 50.8461 103.427 50.9054Z" fill="black"/>
<path d="M100.993 50.0503C101.214 50.1096 101.306 49.7673 101.085 49.708C100.866 49.6493 100.774 49.9916 100.993 50.0503Z" fill="black"/>
<path d="M99.8246 48.3038C100.046 48.3631 100.138 48.0208 99.9163 47.9615C99.6949 47.9022 99.6032 48.2445 99.8246 48.3038Z" fill="black"/>
<path d="M99.8246 48.3038C100.046 48.3631 100.138 48.0208 99.9163 47.9615C99.6949 47.9022 99.6032 48.2445 99.8246 48.3038Z" fill="black"/>
<path d="M102.96 47.2998C103.182 47.3591 103.273 47.0168 103.052 46.9574C102.831 46.8981 102.739 47.2404 102.96 47.2998Z" fill="black"/>
<path d="M98.5518 46.9378C98.7731 46.9971 98.8648 46.6548 98.6435 46.5955C98.4221 46.5362 98.3304 46.8785 98.5518 46.9378Z" fill="black"/>
<path d="M92.9593 45.645C93.1807 45.7043 93.2724 45.362 93.0511 45.3027C92.8297 45.2434 92.738 45.5857 92.9593 45.645Z" fill="black"/>
<path d="M98.0017 48.2238C98.223 48.2831 98.3147 47.9408 98.0934 47.8815C97.8743 47.8228 97.7803 48.1645 98.0017 48.2238Z" fill="black"/>
<path d="M100.724 51.8199C100.946 51.8792 101.037 51.5369 100.816 51.4776C100.597 51.4189 100.503 51.7606 100.724 51.8199Z" fill="black"/>
<path d="M56.4358 83.366C56.6572 83.4253 56.7489 83.083 56.5275 83.0237C56.3062 82.9644 56.2144 83.3067 56.4358 83.366Z" fill="black"/>
<path d="M63.8677 80.852C64.089 80.9113 64.1808 80.569 63.9594 80.5097C63.738 80.4503 63.6463 80.7927 63.8677 80.852Z" fill="black"/>
<path d="M50.7525 79.0719C50.7057 78.9909 50.6589 78.9099 50.6122 78.8288C50.5654 78.7478 50.4502 78.7121 50.3703 78.764C50.2903 78.816 50.2553 78.9191 50.3054 79.0059C50.3522 79.0869 50.399 79.168 50.4458 79.249C50.4926 79.33 50.6077 79.3657 50.6877 79.3138C50.7699 79.2625 50.8026 79.1587 50.7525 79.0719Z" fill="black"/>
<path d="M130.802 43.3592L133.862 42.3447L134.252 43.7554L130.802 43.3592Z" fill="black"/>
<path d="M127.886 42.8741L124.631 39.9716L123.391 41.513L127.886 42.8741Z" fill="black"/>
</svg>
