<svg width="101" height="165" viewBox="0 0 101 165" fill="none" xmlns="http://www.w3.org/2000/svg">
<path d="M61.0832 114.621L64.5512 115.467L64.5215 115.912L64.2109 119.218L64.1083 124.11L64.3756 127.073C64.3756 127.073 64.9401 130.481 65.7234 131.624C66.5094 132.766 66.1826 133.544 69.2643 136.321C72.3461 139.1 74.8957 138.892 76.0976 138.803C77.2968 138.714 80.3219 137.987 82.2638 135.632C84.2058 133.277 84.7244 131.897 85.2565 129.26C85.7912 126.622 85.8939 123.272 85.8209 121.674C85.748 120.072 85.0944 113.79 85.0944 113.79L84.457 105.43L83.9519 98.451L83.7007 95.9176L89.4942 89.8648L95.5713 83.1936C95.5713 83.1936 98.5855 79.9119 99.7253 77.3974C100.865 74.8828 101.192 70.8342 100.238 67.9253C99.285 65.0164 97.5375 61.3161 95.3282 59.0582C93.1161 56.8002 88.114 53.1701 86.8095 52.2842C85.5049 51.401 82.2017 49.6076 82.2017 49.6076L81.0835 49.0026C81.0835 49.0026 86.2747 40.7648 86.7852 39.3441C87.2983 37.9235 89.3213 32.5243 89.3213 32.5243L90.1829 28.9861C90.1829 28.9861 91.3929 29.2886 92.9757 28.6593C94.5584 28.03 95.8846 26.3554 96.2573 24.4945C96.63 22.6336 96.3275 19.8624 94.9068 16.9076C93.4862 13.9528 90.742 8.96692 90.742 8.96692L89.713 8.27548L87.2686 13.8178L86.0613 11.9784C86.0613 11.9784 82.4367 7.90546 78.9687 5.46383C75.5007 3.0222 72.03 1.31522 66.9604 0.394203C61.8908 -0.52681 56.7942 0.761528 53.0642 2.41719C49.3342 4.07285 46.7846 6.20118 43.8433 9.11547C40.902 12.0298 39.5083 15.0008 37.669 18.6794C35.8296 22.3581 35.5676 25.2994 35.384 28.689C35.2003 32.0787 35.7513 34.6797 36.5913 37.4886C37.4313 40.3003 39.8756 43.7682 39.8756 43.7682L43.4759 48.8649L44.6049 50.3099L42.9493 51.9655C42.9493 51.9655 39.5866 55.2769 36.0403 59.1635C32.494 63.0501 29.7607 68.1224 29.7607 68.1224C29.7607 68.1224 27.3974 72.1954 27.1084 74.5074C26.8194 76.8194 27.5027 80.471 27.5027 80.471C27.5027 80.471 28.6074 84.6737 28.8424 85.384C29.08 86.0943 31.2327 91.2693 31.9673 92.5036C32.702 93.7379 35.1193 97.0223 37.1693 98.1512C39.2193 99.2802 41.7663 100.174 41.7663 100.174L41.9445 109.22C41.9445 109.22 40.9236 112.75 40.775 114.473C40.6265 116.196 40.6049 119.237 40.8182 121.025C41.0316 122.813 41.3719 125.876 41.9877 128.088C42.6035 130.3 43.5408 132.599 44.6454 133.725C45.7501 134.851 48.8562 136.853 50.7306 136.958C52.605 137.063 55.1115 137.171 56.7293 135.575C58.3472 133.979 59.0467 132.107 59.3681 130.47C59.6869 128.834 60.3243 126.13 60.3243 126.13L60.7294 121.557L61.0049 116.58L61.0832 114.621Z" fill="white"/>
<path d="M12.3399 126.214C12.3399 126.214 13.4311 125.649 13.4446 124.95C13.4608 124.25 13.2474 123.216 12.4885 122.927C11.7322 122.638 10.6951 123.14 10.1198 123.929C9.54446 124.717 9.28788 125.784 9.88478 126.67C10.4817 127.556 11.4432 127.513 11.8375 127.173C12.2346 126.832 12.3399 126.214 12.3399 126.214Z" fill="white"/>
<path d="M32.7295 124.463C32.7295 124.463 32.1299 124.747 32.1299 125.182C32.1299 125.617 32.1758 126.486 32.8186 126.546C33.4641 126.605 34.4365 126.575 35.0523 125.976C35.6654 125.376 35.9814 124.236 35.4871 123.458C34.9929 122.678 34.4095 122.618 34.0043 122.783C33.5992 122.948 33.059 123.294 33.0158 123.653C32.9726 124.012 32.7295 124.463 32.7295 124.463Z" fill="white"/>
<path d="M22.0307 134.075L23.2624 133.924L24.0213 133.84L25.4123 134.202C25.4123 134.202 27.1976 135.599 27.7756 136.93C28.3536 138.262 29.4069 140.663 29.5177 142.891C29.6284 145.122 29.8256 147.296 29.4907 149.441C29.1558 151.585 29.3232 152.396 29.3232 152.396C29.3232 152.396 28.7965 154.686 28.3509 155.445C27.9052 156.204 26.0254 159.648 23.3083 161.527C20.5912 163.407 18.66 163.966 16.6667 164.131C14.6734 164.296 11.408 164.345 7.98056 162.697C4.5531 161.049 3.82655 158.065 3.82655 158.065L3.43222 156.35L3.6618 155.494C3.6618 155.494 2.7894 152.344 3.9751 150.022C5.16081 147.696 8.92048 142.489 8.92048 142.489C8.92048 142.489 11.0974 139.869 12.1346 138.945C13.1717 138.021 15.1353 136.555 16.9314 135.499C18.7275 134.443 22.0307 134.075 22.0307 134.075Z" fill="white"/>
<path d="M86.7394 12.5404C81.9723 6.53353 75.3875 1.81232 67.7412 0.413246C59.687 -1.05875 52.0812 1.47471 46.0231 6.84953C40.759 11.5221 36.9048 17.9746 35.6002 24.9187C34.9817 28.2111 34.952 31.617 35.6597 34.8959C36.4861 38.742 38.3795 42.2127 40.6131 45.4186C45.8907 52.9839 53.9341 60.5681 52.743 70.6506C52.7133 70.9099 53.1184 70.9072 53.1481 70.6506C54.0475 63.0556 49.5046 56.4249 45.094 50.707C40.3214 44.5219 35.6218 38.2801 35.5354 30.1179C35.3761 15.2575 48.3621 -0.0567137 63.7303 0.391639C72.854 0.65903 80.8973 5.82589 86.4531 12.824C86.6125 13.0292 86.8988 12.7429 86.7394 12.5404Z" fill="black"/>
<path d="M52.589 71.4312C51.0387 72.3765 51.514 74.991 53.5235 74.7263C54.35 74.6183 54.9361 73.9134 54.8632 73.0761C54.7713 71.9984 53.799 71.153 52.9644 70.5912C52.7483 70.4454 52.5458 70.7965 52.7592 70.9424C53.3128 71.3151 53.8773 71.785 54.2068 72.3792C54.5769 73.0518 54.5607 73.9944 53.7126 74.2753C52.0731 74.8182 51.4897 72.5791 52.7943 71.785C53.0157 71.6446 52.8105 71.2935 52.589 71.4312Z" fill="black"/>
<path d="M89.4836 8.27027C87.412 12.4162 85.6726 16.9753 85.8616 21.6857C85.9967 25.0619 87.177 29.7642 91.4417 29.3374C95.1393 28.9674 96.822 25.2347 96.56 21.8856C96.3925 19.7546 95.5444 17.7613 94.5883 15.8734C93.3621 13.4506 92.0251 11.0792 90.7395 8.68891C90.6152 8.45934 90.2668 8.66461 90.3884 8.89419C92.2331 12.3217 94.5721 15.8085 95.6957 19.5547C96.7301 23.0038 96.117 28.0005 91.8928 28.8567C86.9609 29.856 86.0912 23.5683 86.283 20.0382C86.5044 15.9652 88.0332 12.084 89.8347 8.47554C89.9481 8.24326 89.5997 8.03799 89.4836 8.27027Z" fill="black"/>
<path d="M89.8265 29.6614C88.9514 33.5238 87.6442 37.2699 85.8724 40.8135C84.1168 44.3247 81.8642 47.5253 79.6117 50.7259C75.3793 56.7435 71.0633 63.3824 71.5548 71.0638C71.571 71.3231 71.9762 71.3258 71.96 71.0638C71.436 62.9097 76.3571 56.0602 80.8136 49.7158C85.1404 43.5604 88.5409 37.1511 90.2155 29.7668C90.2749 29.5156 89.886 29.4076 89.8265 29.6614Z" fill="black"/>
<path d="M71.2064 71.1961C70.2854 71.504 69.7074 72.4548 69.8155 73.4217C69.9235 74.3967 70.7689 75.0341 71.7223 75.0422C72.6811 75.0503 73.5616 74.4264 73.6859 73.4433C73.8101 72.4467 73.1781 71.45 72.2112 71.1745C71.96 71.1016 71.852 71.4932 72.1031 71.5661C73.8074 72.0523 73.5886 74.6722 71.7223 74.6371C69.9451 74.6047 69.6939 72.1306 71.3118 71.5878C71.5603 71.504 71.4549 71.1124 71.2064 71.1961Z" fill="black"/>
<path d="M43.8218 50.8556C38.3741 55.8172 33.4773 61.5216 29.6393 67.8255C27.827 70.8046 26.6305 73.9512 26.8708 77.4867C27.1166 81.087 28.3644 84.69 29.6663 88.0284C31.8783 93.7003 35.9 99.6126 42.4335 100.488C47.4005 101.152 53.2588 97.333 52.562 91.8259C52.2001 88.9521 49.9988 86.4429 47.2547 85.5732C44.1837 84.6009 40.84 85.6678 38.5577 87.8312C38.3687 88.0122 38.655 88.2985 38.844 88.1175C41.021 86.0513 44.2188 85.0304 47.1466 85.9622C49.9178 86.8454 52.1055 89.5085 52.2055 92.4498C52.3 95.2722 50.4202 97.7571 48.0298 99.0805C45.4424 100.515 42.4092 100.431 39.7191 99.329C33.8581 96.9279 30.9924 90.9211 29.1045 85.2653C28.1079 82.2808 27.1436 79.1586 27.2409 75.9769C27.3435 72.5791 28.937 69.6135 30.744 66.8262C34.4928 61.0381 39.0115 55.7794 44.1054 51.1392C44.2999 50.9664 44.0136 50.6828 43.8218 50.8556Z" fill="black"/>
<path d="M70.3151 93.3733C68.3084 91.7177 65.3373 92.1984 63.6898 94.1377C61.8559 96.293 61.7181 99.5963 62.8417 102.108C63.9329 104.544 66.2286 106.332 68.989 106.003C72.3894 105.595 75.6278 102.786 78.2315 100.76C84.5625 95.8393 89.94 89.8405 95.2446 83.8634C97.5944 81.2138 99.9604 78.5372 100.706 74.9693C101.387 71.7066 100.819 68.2899 99.5364 65.246C96.3169 57.6159 88.8326 53.2053 81.9885 49.2295C81.7616 49.0972 81.5591 49.4483 81.7832 49.5807C87.2688 52.7677 93.0596 56.1034 96.8598 61.3324C100.525 66.3723 102.1 73.4352 98.6397 78.991C96.9057 81.7729 94.4478 84.1686 92.2628 86.5994C90.1372 88.9601 87.9791 91.2963 85.7293 93.5381C83.3768 95.8825 80.9243 98.127 78.318 100.182C75.8439 102.132 72.8837 104.666 69.7669 105.438C65.7425 106.438 62.6958 102.886 62.5419 99.0939C62.469 97.314 62.9821 95.4368 64.2408 94.1323C65.7506 92.5712 68.3219 92.2498 70.0315 93.6596C70.226 93.8244 70.515 93.5408 70.3151 93.3733Z" fill="black"/>
<path d="M41.5666 100.118C41.4126 100.15 41.0048 101.336 40.948 101.484C40.2431 103.359 39.5409 105.236 38.8359 107.11C38.655 107.591 38.4848 108.164 38.7738 108.588C38.9791 108.888 39.3572 109.012 39.7056 109.114C43.1115 110.122 46.5389 111.059 49.9664 111.996C51.5248 112.423 53.0806 112.85 54.639 113.274C56.8565 113.882 59.0712 114.487 61.2887 115.094C62.7066 115.483 64.1516 115.872 65.6182 115.818C65.964 115.805 66.3475 115.751 66.5744 115.486C66.7472 115.286 66.7931 115.011 66.8309 114.749C67.2253 112.037 67.6412 108.501 68.0356 105.79C68.0356 105.79 66.415 105.519 65.9531 105.287C65.4913 105.055 63.9842 103.899 63.2198 102.43C62.4528 100.96 62.3663 97.1466 63.0659 95.4586C63.7654 93.7705 65.6074 92.5551 67.6142 92.6226C69.621 92.6901 70.7392 94.4457 70.7392 94.4457C71.9681 91.553 73.5076 88.3579 74.7365 85.4679C75.1849 84.4118 75.5846 83.0533 74.7797 82.2376C74.353 81.8054 73.7102 81.6839 73.1133 81.584C64.9781 80.22 56.8456 78.856 48.7105 77.4921C48.0055 77.3732 47.198 77.2814 46.6524 77.7459C46.2689 78.0728 46.1257 78.5913 46.0015 79.0802C45.5099 81.006 45.0318 83.3396 44.5403 85.2653C44.5403 85.2653 48.4512 85.4976 50.142 87.5422C51.8327 89.5868 52.6538 91.7016 52.3783 93.3465C52.1028 94.9886 50.3364 98.543 48.2486 99.1966C46.1608 99.8503 45.2506 100.644 43.6787 100.382C42.1067 100.118 41.5666 100.118 41.5666 100.118Z" fill="black"/>
<path d="M83.5064 95.7178C83.8629 101.082 84.26 106.443 84.7029 111.802C85.1351 117.058 86.1236 122.568 85.3971 127.832C84.8002 132.169 82.4206 136.847 77.9641 138.252C73.3996 139.691 68.8377 136.645 66.5609 132.818C63.6385 127.91 64.1705 121.763 64.6945 116.32C64.7188 116.061 64.3137 116.064 64.2894 116.32C63.7924 121.487 63.3279 127.135 65.6452 131.967C67.3954 135.618 70.9931 138.795 75.1768 139.016C79.3524 139.235 82.7853 136.186 84.4679 132.588C86.7556 127.705 85.9913 122.073 85.5402 116.89C84.9244 109.838 84.3815 102.781 83.9116 95.7178C83.8926 95.4585 83.4875 95.4585 83.5064 95.7178Z" fill="black"/>
<path d="M41.6422 109.79C40.1756 113.83 40.2053 118.3 40.7563 122.514C41.0318 124.618 41.4558 126.705 42.0311 128.75C42.5281 130.522 43.0655 132.205 44.3134 133.601C45.5801 135.019 47.3708 136.242 49.1966 136.793C50.8955 137.307 53.3831 137.52 55.0765 136.907C56.3649 136.442 57.6208 135.124 58.4014 134.044C58.8605 133.406 59.0118 132.645 59.2197 131.894C59.5601 130.668 59.8572 129.431 60.1029 128.18C60.9618 123.81 61.005 119.402 61.2157 114.973C61.2292 114.713 60.8241 114.713 60.8106 114.973C60.6593 118.173 60.6431 121.382 60.265 124.569C60.0138 126.676 59.6195 128.764 59.0901 130.819C58.8389 131.797 58.6715 132.95 58.0854 133.785C57.6343 134.427 57.0266 134.986 56.4432 135.508C54.8983 136.891 53.0454 136.872 51.0765 136.704C48.7861 136.51 46.6497 135.359 45.0183 133.755C42.3957 131.173 41.7529 126.606 41.2451 123.102C40.6131 118.743 40.5105 114.092 42.0338 109.898C42.1229 109.649 41.7313 109.544 41.6422 109.79Z" fill="black"/>
<path d="M65.3238 55.7955C71.6116 49.7724 77.9695 43.0661 80.0006 34.3151C81.7697 26.6931 79.3119 18.5174 73.0512 13.6369C70.0369 11.2871 66.1962 9.84747 62.3501 9.99872C58.6418 10.1446 55.3547 11.9137 52.7402 14.4741C49.961 17.1967 47.622 20.7133 46.4687 24.4432C45.1291 28.7755 46.123 32.9619 47.7571 37.0646C51.1737 45.6508 56.8402 53.2404 64.0463 59.0123C64.1381 59.0852 64.3029 59.1014 64.365 58.9718C65.0159 57.6105 65.6641 56.2519 66.3151 54.8907C66.4258 54.6557 66.0774 54.4504 65.9639 54.6854C65.5318 55.5929 65.097 56.4977 64.6648 57.4052C64.4136 57.9292 64.3542 58.4586 63.8167 58.31C63.444 58.2074 62.9308 57.5727 62.6364 57.3188C61.1941 56.0683 59.8194 54.7394 58.5202 53.3404C55.8328 50.4477 53.4722 47.2525 51.4924 43.8358C49.4721 40.3489 47.6652 36.546 46.6956 32.6189C45.5909 28.1462 46.6038 23.8949 48.9482 19.9975C50.9495 16.6727 53.6559 13.4937 57.1752 11.73C61.0132 9.80695 65.4751 10.1068 69.3212 11.8434C76.7568 15.2007 80.9783 23.5492 80.0708 31.5223C78.9473 41.3942 71.8898 48.9406 65.0348 55.5038C64.8485 55.6902 65.1348 55.9765 65.3238 55.7955Z" fill="black"/>
<path d="M23.0166 133.822C16.9017 133.963 12.0806 138.065 8.51267 142.687C5.6443 146.4 0.712418 152.642 4.45319 157.361C6.15207 159.503 9.25542 160.472 11.8321 160.961C14.7572 161.515 17.8281 161.393 20.6452 160.391C25.7823 158.563 29.172 154.149 29.7743 148.772C30.147 145.447 29.9391 141.941 28.7642 138.784C27.9512 136.602 26.3198 133.279 23.5028 133.712C23.2462 133.752 23.3542 134.141 23.6108 134.103C26.6872 133.631 28.3347 138.346 28.9127 140.623C29.5447 143.116 29.6609 145.755 29.4151 148.307C28.91 153.555 25.8904 157.915 20.9126 159.862C18.3035 160.883 15.4135 161.107 12.6532 160.696C10.1224 160.321 7.20543 159.495 5.30128 157.693C0.812352 153.447 5.78474 146.954 8.55048 143.3C12.0806 138.635 16.8558 134.371 23.0139 134.227C23.2759 134.219 23.2759 133.814 23.0166 133.822Z" fill="black"/>
<path d="M3.31075 155.789C3.35937 163.011 12.3993 165.399 18.1334 164.056C25.226 162.398 30.0688 155.789 29.7906 148.553C29.7798 148.294 29.3746 148.291 29.3854 148.553C29.6447 155.284 25.3719 161.536 18.8545 163.446C13.2717 165.083 3.7645 163.117 3.71319 155.786C3.71319 155.53 3.30805 155.527 3.31075 155.789Z" fill="black"/>
<path d="M14.7788 138.603C15.03 134.641 14.3548 130.757 12.799 127.105C12.6964 126.865 12.348 127.073 12.4479 127.311C13.9739 130.892 14.6195 134.719 14.371 138.606C14.3575 138.865 14.7626 138.862 14.7788 138.603Z" fill="black"/>
<path d="M12.0779 125.822C12.3264 126.489 11.8294 127.232 11.0867 127.232C10.4168 127.232 9.90096 126.587 9.76591 125.992C9.52823 124.95 10.3304 123.497 11.3324 123.111C12.583 122.627 13.7363 124.121 13.1015 125.269C12.6424 126.101 11.6133 126.398 10.7328 126.214C10.479 126.16 10.3709 126.552 10.6248 126.606C11.9942 126.892 13.7768 126.068 13.693 124.464C13.612 122.913 11.8807 122.076 10.668 123.035C9.4472 123.999 8.66664 126.125 10.1035 127.262C11.2109 128.14 13.0016 127.148 12.4695 125.717C12.3777 125.474 11.9861 125.579 12.0779 125.822Z" fill="black"/>
<path d="M25.0369 138.579C27.222 134.117 30.0363 130.033 33.4314 126.408C33.6097 126.219 33.3234 125.93 33.1451 126.122C29.7284 129.771 26.8844 133.885 24.6858 138.376C24.5724 138.608 24.9208 138.814 25.0369 138.579Z" fill="black"/>
<path d="M33.5124 124.437C32.6049 123.886 31.5812 125.053 31.9054 125.96C32.3483 127.194 34.0958 126.995 34.9331 126.371C36.0081 125.568 36.4213 123.934 35.3112 122.965C34.3281 122.103 32.7426 122.784 32.748 124.099C32.748 124.361 33.1532 124.361 33.1532 124.099C33.1478 122.881 34.6252 122.678 35.2626 123.521C35.8703 124.323 35.5003 125.377 34.7872 125.966C34.2579 126.403 33.426 126.665 32.7724 126.325C31.8648 125.852 32.4617 124.275 33.3071 124.788C33.5313 124.92 33.7339 124.572 33.5124 124.437Z" fill="black"/>
<path d="M29.561 141.912C30.2632 140.95 31.7271 141.08 32.5509 141.817C33.4638 142.636 33.7312 143.94 33.8824 145.099C33.9149 145.353 34.3227 145.358 34.2876 145.099C34.0931 143.63 33.6907 141.855 32.2403 141.12C31.2031 140.596 29.9148 140.74 29.2099 141.704C29.0586 141.917 29.4097 142.12 29.561 141.912Z" fill="black"/>
<path d="M30.3199 147.891C32.9128 147.105 34.1201 150.992 33.8851 152.942C33.8527 153.201 34.2605 153.199 34.2903 152.942C34.5549 150.733 33.1181 146.622 30.2119 147.502C29.9634 147.575 30.0687 147.967 30.3199 147.891Z" fill="black"/>
<path d="M29.4097 153.78C31.746 154.836 31.565 157.572 31.3057 159.711C31.2733 159.97 31.6812 159.967 31.7109 159.711C31.9864 157.426 32.0836 154.544 29.615 153.431C29.3773 153.323 29.172 153.671 29.4097 153.78Z" fill="black"/>
<path d="M9.18254 141.004C8.1778 140.742 7.14065 140.885 6.406 141.679C5.72807 142.411 5.59032 143.481 5.94684 144.391C6.04137 144.631 6.433 144.526 6.33847 144.283C5.61193 142.425 7.26489 140.92 9.0745 141.393C9.32569 141.461 9.43373 141.069 9.18254 141.004Z" fill="black"/>
<path d="M4.66391 148.102C4.11833 147.959 3.56194 147.878 2.99744 147.891C2.60851 147.9 2.01701 147.894 1.6767 148.113C1.37959 148.305 1.4012 148.648 1.4012 148.964C1.3985 149.631 1.4093 150.295 1.41201 150.962C1.41471 151.222 1.81984 151.224 1.81714 150.962C1.81444 150.592 1.81444 150.222 1.81174 149.852C1.80904 149.461 1.6956 148.875 1.94409 148.569C2.41405 147.994 3.92386 148.324 4.55858 148.491C4.80706 148.559 4.9151 148.17 4.66391 148.102Z" fill="black"/>
<path d="M3.09467 154.306C2.15745 154.903 0.396452 155.808 0.077744 156.972C-0.278777 158.285 0.68275 160.213 1.10409 161.423C1.19052 161.669 1.58216 161.564 1.49573 161.315C1.15541 160.34 0.715161 159.27 0.577414 158.244C0.323528 156.351 1.95488 155.511 3.29724 154.655C3.51601 154.517 3.31344 154.166 3.09467 154.306Z" fill="black"/>
<path d="M34.1552 125.009C34.3118 125.128 34.2902 125.163 34.0931 125.115C34.0769 125.05 34.058 124.982 34.0418 124.917C33.8851 125.366 33.6096 125.752 33.2288 126.036C33.3287 126.076 33.4259 126.117 33.5259 126.157C33.3206 125.614 33.6474 124.999 34.2173 124.874C34.4712 124.818 34.3632 124.429 34.1093 124.483C33.3395 124.65 32.8561 125.525 33.1343 126.265C33.1748 126.373 33.3179 126.471 33.4314 126.387C33.9013 126.036 34.2389 125.582 34.4307 125.026C34.4523 124.961 34.4307 124.872 34.3794 124.828C33.9175 124.423 33.6096 125.452 34.1552 125.414C34.4118 125.398 34.4145 124.993 34.1552 125.009Z" fill="black"/>
<path d="M10.9003 125.566C10.6734 124.861 10.8679 124.137 11.4189 123.643C11.3244 123.643 11.2271 123.643 11.1326 123.643C11.4162 124.01 11.1488 124.642 10.6896 124.696C10.7545 124.745 10.8193 124.796 10.8841 124.845C10.8274 124.669 11.0192 124.456 11.2082 124.564C11.4351 124.693 11.6404 124.342 11.4135 124.213C10.9327 123.94 10.3196 124.415 10.4925 124.95C10.5168 125.026 10.5978 125.109 10.6869 125.098C11.5161 125.001 11.9267 124.013 11.4162 123.354C11.346 123.265 11.2028 123.289 11.1299 123.354C10.4817 123.94 10.2413 124.839 10.5087 125.671C10.5897 125.92 10.9813 125.814 10.9003 125.566Z" fill="black"/>
<path d="M26.5845 156.645C25.3313 157.904 24.0754 159.162 22.8221 160.421C22.6385 160.605 22.9248 160.894 23.1084 160.707C24.3617 159.449 25.6176 158.19 26.8708 156.931C27.0545 156.748 26.7682 156.461 26.5845 156.645Z" fill="black"/>
<path d="M25.3664 157.79C23.5541 158.992 21.7445 160.194 19.9322 161.399C19.7161 161.542 19.9187 161.893 20.1375 161.75C21.9498 160.548 23.7594 159.346 25.5717 158.141C25.7878 157.996 25.5852 157.644 25.3664 157.79Z" fill="black"/>
<path d="M21.3772 160.386C19.835 161.169 18.29 161.95 16.7478 162.733C16.8288 162.838 16.9126 162.946 16.9936 163.052C18.2873 161.788 19.8566 161.021 21.6527 160.796C21.6041 160.68 21.5582 160.567 21.5095 160.451C20.0078 161.78 18.1793 162.39 16.1833 162.252C16.2022 162.385 16.2184 162.517 16.2373 162.649C17.7688 162.02 19.2732 161.445 20.964 161.68C20.964 161.55 20.964 161.42 20.964 161.288C18.0902 161.893 15.1894 162.196 12.2535 162.198C11.9915 162.198 11.9942 162.595 12.2535 162.603C12.6397 162.614 13.026 162.625 13.4122 162.636C13.4122 162.501 13.4122 162.366 13.4122 162.231C12.2643 162.247 11.2947 161.985 10.3115 161.385C10.2602 161.51 10.2062 161.631 10.1549 161.755C11.7619 162.382 13.3798 162.674 15.103 162.649C15.3244 162.647 15.3893 162.295 15.157 162.252C14.1414 162.055 13.2609 162.22 12.3966 162.798C12.2859 162.871 12.2616 163.017 12.3561 163.117C12.7072 163.489 13.0043 163.678 13.4851 163.848C13.504 163.716 13.5202 163.584 13.5391 163.451C12.3264 163.546 11.2434 163.117 10.2305 162.476C9.53367 162.039 8.98808 161.553 8.25073 161.183C7.76997 160.942 7.36483 160.597 6.9948 160.213C6.94619 160.329 6.90027 160.443 6.85166 160.559C7.14606 160.688 7.44046 160.815 7.73486 160.945C7.81588 160.84 7.89961 160.732 7.98064 160.626C7.24869 160.094 6.51404 159.562 5.78209 159.03C5.73077 159.154 5.67676 159.276 5.62544 159.4C6.03058 159.557 6.43842 159.711 6.84355 159.867C7.05963 159.951 7.19737 159.605 7.00021 159.497C6.45192 159.195 5.90093 158.895 5.35265 158.592C5.12307 158.466 4.9205 158.817 5.14738 158.944C5.69566 159.246 6.24665 159.546 6.79494 159.848C6.84625 159.724 6.90027 159.603 6.95159 159.478C6.54645 159.322 6.13861 159.168 5.73348 159.011C5.5039 158.922 5.40666 159.257 5.57682 159.381C6.30877 159.913 7.04342 160.445 7.77537 160.977C7.96173 161.112 8.19131 160.81 8.02115 160.659C7.62952 160.313 7.36213 160.202 6.84895 160.154C6.66529 160.137 6.59237 160.383 6.70581 160.499C7.42965 161.248 8.24803 161.709 9.26088 161.944C9.36351 161.969 9.48235 161.912 9.50936 161.804C9.52016 161.763 9.52827 161.723 9.53907 161.68C9.55798 161.596 9.52557 161.493 9.44724 161.45C9.20146 161.323 9.17174 161.312 8.92596 161.447C8.84493 161.493 8.81252 161.591 8.83413 161.677C9.00429 162.447 10.0009 162.838 10.6329 163.173C11.5594 163.665 12.4885 163.938 13.5418 163.857C13.7714 163.838 13.8146 163.538 13.5958 163.46C11.6593 162.765 14.5844 162.555 15.0516 162.644C15.0706 162.512 15.0868 162.379 15.1057 162.247C13.423 162.271 11.8294 161.977 10.2656 161.366C10.0468 161.28 9.9199 161.62 10.109 161.736C11.1353 162.363 12.2103 162.655 13.4149 162.638C13.6769 162.636 13.6769 162.241 13.4149 162.233C13.0287 162.223 12.6424 162.212 12.2562 162.201C12.2562 162.336 12.2562 162.471 12.2562 162.606C15.2272 162.603 18.1658 162.295 21.0747 161.682C21.2611 161.642 21.2746 161.32 21.0747 161.291C19.311 161.045 17.7499 161.596 16.132 162.26C15.924 162.347 15.9456 162.641 16.186 162.657C18.2873 162.801 20.2239 162.131 21.8012 160.737C21.9255 160.629 21.8337 160.37 21.6581 160.391C19.7458 160.632 18.0902 161.418 16.7127 162.765C16.5426 162.93 16.7586 163.184 16.9585 163.084C18.5007 162.301 20.0456 161.52 21.5879 160.737C21.8147 160.618 21.6095 160.267 21.3772 160.386Z" fill="black"/>
<path d="M10.7707 140.856C13.6769 141.836 16.7667 142.946 19.8512 143.127C22.7871 143.3 25.5501 142.217 28.1538 140.974C28.3888 140.861 28.1835 140.513 27.9485 140.623C25.2584 141.909 22.4035 142.997 19.3677 142.681C16.4831 142.382 13.612 141.388 10.876 140.464C10.6302 140.38 10.5249 140.772 10.7707 140.856Z" fill="black"/>
<path d="M18.1847 143.157C16.1347 148.831 14.1117 154.517 12.113 160.21C12.0266 160.456 12.4182 160.564 12.5047 160.318C14.5033 154.625 16.5263 148.942 18.5763 143.265C18.6655 143.019 18.2738 142.911 18.1847 143.157Z" fill="black"/>
<path d="M28.9695 143.705C29.2314 143.705 29.2314 143.3 28.9695 143.3C28.7075 143.3 28.7075 143.705 28.9695 143.705Z" fill="black"/>
<path d="M28.7426 148.68C29.0045 148.68 29.0045 148.275 28.7426 148.275C28.4806 148.275 28.4806 148.68 28.7426 148.68Z" fill="black"/>
<path d="M26.4819 153.428C26.7439 153.428 26.7439 153.023 26.4819 153.023C26.2199 153.023 26.2199 153.428 26.4819 153.428Z" fill="black"/>
<path d="M23.7675 156.37C24.0295 156.37 24.0295 155.965 23.7675 155.965C23.5082 155.965 23.5055 156.37 23.7675 156.37Z" fill="black"/>
<path d="M21.0531 157.952C21.3151 157.952 21.3151 157.547 21.0531 157.547C20.7938 157.547 20.7938 157.952 21.0531 157.952Z" fill="black"/>
<path d="M18.0605 158.457C17.8336 158.533 17.6094 158.609 17.3825 158.684C17.1368 158.765 17.2421 159.157 17.4906 159.076C17.7175 159 17.9416 158.925 18.1685 158.849C18.4143 158.765 18.309 158.374 18.0605 158.457Z" fill="black"/>
<path d="M14.2711 159.081C14.5331 159.081 14.5331 158.676 14.2711 158.676C14.0091 158.676 14.0091 159.081 14.2711 159.081Z" fill="black"/>
<path d="M13.1394 159.308C13.4013 159.308 13.4013 158.903 13.1394 158.903C12.8801 158.903 12.8801 159.308 13.1394 159.308Z" fill="black"/>
<path d="M8.39115 157.499C8.65314 157.499 8.65314 157.093 8.39115 157.093C8.13186 157.093 8.12916 157.499 8.39115 157.499Z" fill="black"/>
<path d="M7.48635 157.952C7.74834 157.952 7.74834 157.547 7.48635 157.547C7.22706 157.547 7.22706 157.952 7.48635 157.952Z" fill="black"/>
<path d="M11.7835 156.143C12.0455 156.143 12.0455 155.738 11.7835 155.738C11.5215 155.738 11.5215 156.143 11.7835 156.143Z" fill="black"/>
<path d="M8.16429 154.333C8.42628 154.333 8.42628 153.928 8.16429 153.928C7.905 153.928 7.905 154.333 8.16429 154.333Z" fill="black"/>
<path d="M6.13047 154.784C6.39246 154.784 6.39246 154.379 6.13047 154.379C5.86848 154.379 5.86848 154.784 6.13047 154.784Z" fill="black"/>
<path d="M11.1056 158.63C11.3676 158.63 11.3676 158.225 11.1056 158.225C10.8436 158.225 10.8436 158.63 11.1056 158.63Z" fill="black"/>
<path d="M16.3048 157.048C16.5668 157.048 16.5668 156.642 16.3048 156.642C16.0455 156.642 16.0455 157.048 16.3048 157.048Z" fill="black"/>
<path d="M20.8289 154.784C21.0909 154.784 21.0909 154.379 20.8289 154.379C20.5669 154.379 20.5669 154.784 20.8289 154.784Z" fill="black"/>
<path d="M24.2212 152.073C24.4832 152.073 24.4832 151.667 24.2212 151.667C23.9592 151.667 23.9592 152.073 24.2212 152.073Z" fill="black"/>
<path d="M25.804 148.907C26.066 148.907 26.066 148.502 25.804 148.502C25.542 148.502 25.542 148.907 25.804 148.907Z" fill="black"/>
<path d="M25.3502 152.977C25.6122 152.977 25.6122 152.572 25.3502 152.572C25.0909 152.572 25.0882 152.977 25.3502 152.977Z" fill="black"/>
<path d="M17.8876 153.428C18.1496 153.428 18.1496 153.023 17.8876 153.023C17.6283 153.023 17.6283 153.428 17.8876 153.428Z" fill="black"/>
<path d="M20.8289 150.941C21.0909 150.941 21.0909 150.536 20.8289 150.536C20.5669 150.536 20.5669 150.941 20.8289 150.941Z" fill="black"/>
<path d="M23.7675 147.548C24.0295 147.548 24.0295 147.143 23.7675 147.143C23.5082 147.143 23.5055 147.548 23.7675 147.548Z" fill="black"/>
<path d="M12.4614 152.75C12.7234 152.75 12.7234 152.345 12.4614 152.345C12.2022 152.345 12.1995 152.75 12.4614 152.75Z" fill="black"/>
<path d="M6.80844 152.75C7.07043 152.75 7.07043 152.345 6.80844 152.345C6.54916 152.345 6.54646 152.75 6.80844 152.75Z" fill="black"/>
<path d="M7.2622 150.941C7.52419 150.941 7.52419 150.536 7.2622 150.536C7.00021 150.536 7.00021 150.941 7.2622 150.941Z" fill="black"/>
<path d="M8.8449 150.085C8.76927 150.085 8.69365 150.085 8.61802 150.085C8.51268 150.085 8.41005 150.176 8.41545 150.287C8.42085 150.398 8.50458 150.49 8.61802 150.49C8.69365 150.49 8.76927 150.49 8.8449 150.49C8.95023 150.49 9.05287 150.398 9.04747 150.287C9.04206 150.176 8.95834 150.085 8.8449 150.085Z" fill="black"/>
<path d="M14.949 151.168C15.211 151.168 15.211 150.763 14.949 150.763C14.687 150.763 14.687 151.168 14.949 151.168Z" fill="black"/>
<path d="M19.9241 148.68C20.1861 148.68 20.1861 148.275 19.9241 148.275C19.6621 148.275 19.6621 148.68 19.9241 148.68Z" fill="black"/>
<path d="M23.5406 145.515C23.8026 145.515 23.8026 145.109 23.5406 145.109C23.2813 145.109 23.2813 145.515 23.5406 145.515Z" fill="black"/>
<path d="M26.933 143.932C27.195 143.932 27.195 143.527 26.933 143.527C26.6737 143.527 26.6737 143.932 26.933 143.932Z" fill="black"/>
<path d="M23.0895 140.993C23.3515 140.993 23.3515 140.588 23.0895 140.588C22.8276 140.588 22.8276 140.993 23.0895 140.993Z" fill="black"/>
<path d="M19.2461 142.349C19.5081 142.349 19.5081 141.944 19.2461 141.944C18.9842 141.944 18.9842 142.349 19.2461 142.349Z" fill="black"/>
<path d="M18.7924 143.027C19.0544 143.027 19.0544 142.622 18.7924 142.622C18.5331 142.622 18.5331 143.027 18.7924 143.027Z" fill="black"/>
<path d="M13.5931 141.217C13.8551 141.217 13.8551 140.812 13.5931 140.812C13.3312 140.812 13.3312 141.217 13.5931 141.217Z" fill="black"/>
<path d="M25.3502 140.993C25.6122 140.993 25.6122 140.588 25.3502 140.588C25.0909 140.588 25.0882 140.993 25.3502 140.993Z" fill="black"/>
<path d="M18.3413 141.896C18.417 141.896 18.4926 141.896 18.5682 141.896C18.6735 141.896 18.7762 141.804 18.7708 141.693C18.7654 141.582 18.6816 141.49 18.5682 141.49C18.4926 141.49 18.417 141.49 18.3413 141.49C18.236 141.49 18.1334 141.582 18.1388 141.693C18.1442 141.804 18.2279 141.896 18.3413 141.896Z" fill="black"/>
<path d="M15.4001 141.217C15.662 141.217 15.662 140.812 15.4001 140.812C15.1408 140.812 15.1408 141.217 15.4001 141.217Z" fill="black"/>
<path d="M15.8538 139.635C16.1158 139.635 16.1158 139.23 15.8538 139.23C15.5918 139.23 15.5918 139.635 15.8538 139.635Z" fill="black"/>
<path d="M18.1145 140.089C18.3764 140.089 18.3764 139.683 18.1145 139.683C17.8552 139.683 17.8525 140.089 18.1145 140.089Z" fill="black"/>
<path d="M18.5682 139.635C18.8302 139.635 18.8302 139.23 18.5682 139.23C18.3062 139.23 18.3062 139.635 18.5682 139.635Z" fill="black"/>
<path d="M19.6972 140.089C19.9592 140.089 19.9592 139.683 19.6972 139.683C19.4379 139.683 19.4352 140.089 19.6972 140.089Z" fill="black"/>
<path d="M19.4704 139.862C19.7323 139.862 19.7323 139.457 19.4704 139.457C19.2111 139.457 19.2111 139.862 19.4704 139.862Z" fill="black"/>
<path d="M47.7976 134.174C48.1703 134.482 48.5403 134.789 48.913 135.097C49.1129 135.262 49.3992 134.978 49.1993 134.811C48.8266 134.503 48.4566 134.195 48.0839 133.887C47.8867 133.723 47.5977 134.009 47.7976 134.174Z" fill="black"/>
<path d="M51.7598 134.857C52.0623 134.932 52.3621 135.008 52.6646 135.084C52.9185 135.149 53.0265 134.757 52.7727 134.692C52.4702 134.616 52.1704 134.541 51.8679 134.465C51.614 134.403 51.5059 134.792 51.7598 134.857Z" fill="black"/>
<path d="M53.9665 133.728C54.1177 133.803 54.269 133.879 54.4175 133.955C54.5148 134.003 54.6363 133.982 54.6957 133.882C54.7471 133.793 54.72 133.655 54.6228 133.604C54.4716 133.528 54.3203 133.452 54.1718 133.377C54.0745 133.328 53.953 133.35 53.8936 133.45C53.8395 133.541 53.8666 133.679 53.9665 133.728Z" fill="black"/>
<path d="M55.876 131.043C56.138 131.043 56.138 130.638 55.876 130.638C55.6167 130.638 55.6167 131.043 55.876 131.043Z" fill="black"/>
<path d="M57.2346 126.973C57.4966 126.973 57.4966 126.568 57.2346 126.568C56.9726 126.568 56.9726 126.973 57.2346 126.973Z" fill="black"/>
<path d="M57.2346 123.129C57.4966 123.129 57.4966 122.724 57.2346 122.724C56.9726 122.724 56.9726 123.129 57.2346 123.129Z" fill="black"/>
<path d="M57.2346 119.961C57.4966 119.961 57.4966 119.556 57.2346 119.556C56.9726 119.556 56.9726 119.961 57.2346 119.961Z" fill="black"/>
<path d="M57.4614 117.023C57.7234 117.023 57.7234 116.617 57.4614 116.617C57.1994 116.617 57.1994 117.023 57.4614 117.023Z" fill="black"/>
<path d="M61.7559 119.737C62.0179 119.737 62.0179 119.332 61.7559 119.332C61.4966 119.332 61.4966 119.737 61.7559 119.737Z" fill="black"/>
<path d="M74.0046 137.304C74.5124 137.185 75.0066 137.293 75.4334 137.593C75.6467 137.744 75.8493 137.393 75.6386 137.242C75.1255 136.882 74.5069 136.772 73.8992 136.912C73.6426 136.972 73.7507 137.363 74.0046 137.304Z" fill="black"/>
<path d="M77.586 135.338C77.848 135.338 77.848 134.932 77.586 134.932C77.324 134.932 77.324 135.338 77.586 135.338Z" fill="black"/>
<path d="M80.5246 133.304C80.7866 133.304 80.7866 132.899 80.5246 132.899C80.2653 132.899 80.2626 133.304 80.5246 133.304Z" fill="black"/>
<path d="M81.8804 130.138C82.1424 130.138 82.1424 129.733 81.8804 129.733C81.6212 129.733 81.6212 130.138 81.8804 130.138Z" fill="black"/>
<path d="M82.1074 126.519C82.3694 126.519 82.3694 126.114 82.1074 126.114C81.8481 126.114 81.8454 126.519 82.1074 126.519Z" fill="black"/>
<path d="M82.1074 121.771C82.3694 121.771 82.3694 121.366 82.1074 121.366C81.8481 121.366 81.8454 121.771 82.1074 121.771Z" fill="black"/>
<path d="M82.5611 117.023C82.8231 117.023 82.8231 116.617 82.5611 116.617C82.2991 116.617 82.2991 117.023 82.5611 117.023Z" fill="black"/>
<path d="M82.5611 113.179C82.8231 113.179 82.8231 112.774 82.5611 112.774C82.2991 112.774 82.2991 113.179 82.5611 113.179Z" fill="black"/>
<path d="M81.8804 109.336C82.0317 109.336 82.1829 109.336 82.3315 109.336C82.5935 109.336 82.5935 108.931 82.3315 108.931C82.1802 108.931 82.029 108.931 81.8804 108.931C81.6212 108.931 81.6212 109.336 81.8804 109.336Z" fill="black"/>
<path d="M81.4294 105.039C81.6914 105.039 81.6914 104.634 81.4294 104.634C81.1674 104.634 81.1674 105.039 81.4294 105.039Z" fill="black"/>
<path d="M81.6562 102.324C81.7319 102.324 81.8075 102.324 81.8831 102.324C81.9885 102.324 82.0911 102.232 82.0857 102.122C82.0803 102.011 81.9966 101.919 81.8831 101.919C81.8075 101.919 81.7319 101.919 81.6562 101.919C81.5509 101.919 81.4483 102.011 81.4537 102.122C81.4564 102.232 81.5428 102.324 81.6562 102.324Z" fill="black"/>
<path d="M81.6563 99.6124C81.9183 99.6124 81.9183 99.2073 81.6563 99.2073C81.3943 99.2073 81.3943 99.6124 81.6563 99.6124Z" fill="black"/>
<path d="M70.8013 134.887C71.0633 134.887 71.0633 134.481 70.8013 134.481C70.542 134.481 70.5393 134.887 70.8013 134.887Z" fill="black"/>
<path d="M75.2713 133.523C75.7224 133.674 76.1761 133.825 76.6272 133.974C76.8757 134.057 76.981 133.666 76.7352 133.582C76.2842 133.431 75.8304 133.279 75.3794 133.131C75.1309 133.05 75.0229 133.441 75.2713 133.523Z" fill="black"/>
<path d="M80.0195 131.035C80.2464 131.111 80.4706 131.186 80.6974 131.262C80.9459 131.346 81.0513 130.954 80.8055 130.87C80.5786 130.795 80.3544 130.719 80.1275 130.643C79.8791 130.562 79.771 130.954 80.0195 131.035Z" fill="black"/>
<path d="M80.5246 126.973C80.7866 126.973 80.7866 126.568 80.5246 126.568C80.2653 126.568 80.2626 126.973 80.5246 126.973Z" fill="black"/>
<path d="M80.2977 122.676C80.5597 122.676 80.5597 122.271 80.2977 122.271C80.0385 122.271 80.0385 122.676 80.2977 122.676Z" fill="black"/>
<path d="M80.9757 117.701C81.2377 117.701 81.2377 117.296 80.9757 117.296C80.7164 117.296 80.7164 117.701 80.9757 117.701Z" fill="black"/>
<path d="M80.9757 113.406C81.2377 113.406 81.2377 113.001 80.9757 113.001C80.7164 113.001 80.7164 113.406 80.9757 113.406Z" fill="black"/>
<path d="M80.0735 108.882C80.3355 108.882 80.3355 108.477 80.0735 108.477C79.8115 108.477 79.8115 108.882 80.0735 108.882Z" fill="black"/>
<path d="M79.3929 105.49C79.5442 105.49 79.6954 105.49 79.844 105.49C80.1059 105.49 80.1059 105.085 79.844 105.085C79.6927 105.085 79.5415 105.085 79.3929 105.085C79.1336 105.085 79.1336 105.49 79.3929 105.49Z" fill="black"/>
<path d="M79.6198 102.324C79.8818 102.324 79.8818 101.919 79.6198 101.919C79.3605 101.919 79.3578 102.324 79.6198 102.324Z" fill="black"/>
<path d="M72.4947 133.293C72.7972 133.52 73.097 133.744 73.3995 133.971C73.6075 134.128 73.8101 133.776 73.6048 133.62C73.3023 133.393 73.0025 133.169 72.7 132.942C72.492 132.788 72.2895 133.139 72.4947 133.293Z" fill="black"/>
<path d="M76.9891 130.53C77.0647 130.605 77.1403 130.681 77.216 130.757C77.2916 130.832 77.4293 130.838 77.5022 130.757C77.5752 130.676 77.5833 130.551 77.5022 130.47C77.4266 130.395 77.351 130.319 77.2754 130.244C77.1997 130.168 77.062 130.163 76.9891 130.244C76.9161 130.325 76.9107 130.452 76.9891 130.53Z" fill="black"/>
<path d="M78.2099 126.287C78.4368 126.362 78.661 126.438 78.8878 126.514C79.1363 126.597 79.2417 126.206 78.9959 126.122C78.769 126.046 78.5448 125.971 78.318 125.895C78.0695 125.814 77.9641 126.206 78.2099 126.287Z" fill="black"/>
<path d="M79.3929 120.415C79.6549 120.415 79.6549 120.01 79.3929 120.01C79.1336 120.01 79.1336 120.415 79.3929 120.415Z" fill="black"/>
<path d="M78.3476 115.154C78.4232 115.229 78.4989 115.305 78.5745 115.38C78.6501 115.456 78.7879 115.462 78.8608 115.38C78.9337 115.299 78.9418 115.175 78.8608 115.094C78.7852 115.019 78.7095 114.943 78.6339 114.867C78.5583 114.792 78.4205 114.786 78.3476 114.867C78.272 114.948 78.2666 115.075 78.3476 115.154Z" fill="black"/>
<path d="M77.8102 115.667C78.0722 115.667 78.0722 115.262 77.8102 115.262C77.5509 115.262 77.5509 115.667 77.8102 115.667Z" fill="black"/>
<path d="M70.1234 131.043C70.3854 131.043 70.3854 130.638 70.1234 130.638C69.8614 130.638 69.8614 131.043 70.1234 131.043Z" fill="black"/>
<path d="M67.255 131.675C67.6358 131.972 68.0166 132.269 68.3975 132.564C68.6 132.723 68.889 132.437 68.6838 132.278C68.3029 131.98 67.9221 131.683 67.5413 131.389C67.3387 131.232 67.0497 131.516 67.255 131.675Z" fill="black"/>
<path d="M66.0774 128.353C66.0774 128.504 66.0774 128.655 66.0774 128.804C66.0774 129.066 66.4825 129.066 66.4825 128.804C66.4825 128.653 66.4825 128.502 66.4825 128.353C66.4825 128.091 66.0774 128.091 66.0774 128.353Z" fill="black"/>
<path d="M57.1157 130.044C56.8996 130.26 57.0698 130.703 57.3912 130.668C57.5425 130.652 57.6667 130.546 57.7045 130.395C57.745 130.236 57.6883 130.09 57.556 129.995C57.4695 129.933 57.3264 129.976 57.2778 130.068C57.2238 130.174 57.2589 130.279 57.3507 130.346C57.3291 130.327 57.321 130.325 57.3318 130.333C57.3426 130.344 57.3372 130.338 57.3183 130.317C57.3102 130.3 57.3075 130.276 57.3129 130.306C57.3156 130.33 57.3129 130.257 57.3102 130.292C57.3075 130.333 57.3264 130.249 57.3102 130.287C57.3048 130.3 57.2886 130.333 57.3129 130.284C57.2967 130.317 57.3372 130.26 57.321 130.279C57.2994 130.303 57.3183 130.284 57.3318 130.273C57.3183 130.282 57.3183 130.282 57.3345 130.273C57.348 130.265 57.3615 130.263 57.3777 130.265C57.3399 130.265 57.4128 130.276 57.3885 130.268C57.3669 130.263 57.429 130.29 57.3993 130.271C57.4209 130.29 57.429 130.292 57.4155 130.284C57.4101 130.279 57.4074 130.276 57.402 130.271C57.4074 130.279 57.4128 130.284 57.4182 130.292C57.4128 130.284 57.4101 130.279 57.4047 130.271C57.4128 130.271 57.4209 130.319 57.4101 130.276C57.4047 130.252 57.4101 130.322 57.4128 130.287C57.4074 130.319 57.4047 130.327 57.4101 130.311C57.4101 130.306 57.4128 130.3 57.4155 130.295C57.4209 130.306 57.3696 130.363 57.3966 130.333C57.4722 130.257 57.4776 130.12 57.3966 130.047C57.321 129.971 57.194 129.966 57.1157 130.044Z" fill="black"/>
<path d="M58.4473 124.877C58.5986 125.028 58.7498 125.18 58.8984 125.328C59.082 125.512 59.3683 125.225 59.1847 125.042C59.0334 124.891 58.8822 124.739 58.7336 124.591C58.5499 124.407 58.2636 124.693 58.4473 124.877Z" fill="black"/>
<path d="M59.2684 120.866C59.5303 120.866 59.5303 120.461 59.2684 120.461C59.0091 120.461 59.0091 120.866 59.2684 120.866Z" fill="black"/>
<path d="M58.8173 116.796C59.0793 116.796 59.0793 116.391 58.8173 116.391C58.5553 116.391 58.5553 116.796 58.8173 116.796Z" fill="black"/>
<path d="M58.8173 118.154C59.0793 118.154 59.0793 117.749 58.8173 117.749C58.5553 117.749 58.5553 118.154 58.8173 118.154Z" fill="black"/>
<path d="M56.354 132.423C56.354 132.499 56.354 132.575 56.354 132.65C56.354 132.755 56.4459 132.858 56.5566 132.853C56.6674 132.847 56.7592 132.764 56.7592 132.65C56.7592 132.575 56.7592 132.499 56.7592 132.423C56.7592 132.318 56.6674 132.215 56.5566 132.221C56.4459 132.226 56.354 132.31 56.354 132.423Z" fill="black"/>
<path d="M53.8422 136.469C54.1042 136.469 54.1042 136.064 53.8422 136.064C53.5802 136.064 53.5802 136.469 53.8422 136.469Z" fill="black"/>
<path d="M56.3298 133.982C56.5918 133.982 56.5918 133.577 56.3298 133.577C56.0678 133.577 56.0678 133.982 56.3298 133.982Z" fill="black"/>
<path d="M50.3662 134.09C50.2905 134.014 50.2149 133.939 50.1393 133.863C50.0637 133.787 49.9259 133.782 49.853 133.863C49.7801 133.944 49.772 134.068 49.853 134.149C49.9286 134.225 50.0042 134.3 50.0799 134.376C50.1555 134.452 50.2932 134.457 50.3662 134.376C50.4418 134.295 50.4472 134.168 50.3662 134.09Z" fill="black"/>
<path d="M47.5113 132.853C47.7733 132.853 47.7733 132.448 47.5113 132.448C47.2493 132.448 47.2493 132.853 47.5113 132.853Z" fill="black"/>
<path d="M46.3796 131.948C46.6416 131.948 46.6416 131.543 46.3796 131.543C46.1203 131.543 46.1203 131.948 46.3796 131.948Z" fill="black"/>
<path d="M46.6065 131.948C46.8685 131.948 46.8685 131.543 46.6065 131.543C46.3445 131.543 46.3445 131.948 46.6065 131.948Z" fill="black"/>
<path d="M46.8334 133.982C47.0954 133.982 47.0954 133.577 46.8334 133.577C46.5714 133.577 46.5714 133.982 46.8334 133.982Z" fill="black"/>
<path d="M45.0237 132.626C45.2857 132.626 45.2857 132.221 45.0237 132.221C44.7617 132.221 44.7617 132.626 45.0237 132.626Z" fill="black"/>
<path d="M44.1189 129.46C44.3809 129.46 44.3809 129.055 44.1189 129.055C43.8569 129.055 43.8569 129.46 44.1189 129.46Z" fill="black"/>
<path d="M50.9036 132.172C51.1656 132.172 51.1656 131.767 50.9036 131.767C50.6416 131.767 50.6416 132.172 50.9036 132.172Z" fill="black"/>
<path d="M53.1643 130.589C53.4263 130.589 53.4263 130.184 53.1643 130.184C52.9023 130.184 52.9023 130.589 53.1643 130.589Z" fill="black"/>
<path d="M54.2933 126.973C54.5553 126.973 54.5553 126.568 54.2933 126.568C54.034 126.568 54.034 126.973 54.2933 126.973Z" fill="black"/>
<path d="M54.5201 124.712C54.7821 124.712 54.7821 124.307 54.5201 124.307C54.2609 124.307 54.2582 124.712 54.5201 124.712Z" fill="black"/>
<path d="M55.1981 118.832C55.46 118.832 55.46 118.427 55.1981 118.427C54.9388 118.427 54.9388 118.832 55.1981 118.832Z" fill="black"/>
<path d="M55.1981 115.891C55.46 115.891 55.46 115.486 55.1981 115.486C54.9388 115.486 54.9388 115.891 55.1981 115.891Z" fill="black"/>
<path d="M73.9668 131.043C74.2288 131.043 74.2288 130.638 73.9668 130.638C73.7075 130.638 73.7048 131.043 73.9668 131.043Z" fill="black"/>
<path d="M84.1438 124.936C84.4058 124.936 84.4058 124.531 84.1438 124.531C83.8818 124.531 83.8818 124.936 84.1438 124.936Z" fill="black"/>
<path d="M83.6901 121.093C83.9521 121.093 83.9521 120.688 83.6901 120.688C83.4308 120.688 83.4281 121.093 83.6901 121.093Z" fill="black"/>
<path d="M83.239 116.796C83.501 116.796 83.501 116.391 83.239 116.391C82.977 116.391 82.977 116.796 83.239 116.796Z" fill="black"/>
<path d="M82.3342 107.753C82.5962 107.753 82.5962 107.348 82.3342 107.348C82.0722 107.348 82.0722 107.753 82.3342 107.753Z" fill="black"/>
<path d="M83.6901 129.234C83.9521 129.234 83.9521 128.829 83.6901 128.829C83.4308 128.829 83.4281 129.234 83.6901 129.234Z" fill="black"/>
<path d="M82.7853 133.077C83.0473 133.077 83.0473 132.672 82.7853 132.672C82.526 132.672 82.526 133.077 82.7853 133.077Z" fill="black"/>
<path d="M79.3929 136.242C79.6549 136.242 79.6549 135.837 79.3929 135.837C79.1336 135.837 79.1336 136.242 79.3929 136.242Z" fill="black"/>
<path d="M78.4908 131.721C78.7528 131.721 78.7528 131.316 78.4908 131.316C78.2288 131.316 78.2288 131.721 78.4908 131.721Z" fill="black"/>
<path d="M79.3929 129.007C79.6549 129.007 79.6549 128.601 79.3929 128.601C79.1336 128.601 79.1336 129.007 79.3929 129.007Z" fill="black"/>
<path d="M76.9053 127.019C76.8297 127.019 76.7541 127.019 76.6785 127.019C76.5731 127.019 76.4705 127.111 76.4759 127.221C76.4813 127.332 76.565 127.424 76.6785 127.424C76.7541 127.424 76.8297 127.424 76.9053 127.424C77.0107 127.424 77.1133 127.332 77.1079 127.221C77.1052 127.113 77.0215 127.019 76.9053 127.019Z" fill="black"/>
<path d="M73.062 129.007C73.324 129.007 73.324 128.601 73.062 128.601C72.8027 128.601 72.8027 129.007 73.062 129.007Z" fill="black"/>
<path d="M77.3591 123.807C77.6211 123.807 77.6211 123.402 77.3591 123.402C77.0971 123.402 77.0971 123.807 77.3591 123.807Z" fill="black"/>
<path d="M77.3591 118.154C77.6211 118.154 77.6211 117.749 77.3591 117.749C77.0971 117.749 77.0971 118.154 77.3591 118.154Z" fill="black"/>
<path d="M77.586 109.56C77.848 109.56 77.848 109.155 77.586 109.155C77.324 109.155 77.324 109.56 77.586 109.56Z" fill="black"/>
<path d="M76.2274 107.299C76.4894 107.299 76.4894 106.894 76.2274 106.894C75.9681 106.894 75.9681 107.299 76.2274 107.299Z" fill="black"/>
<path d="M55.6518 129.46C55.9138 129.46 55.9138 129.055 55.6518 129.055C55.3898 129.055 55.3898 129.46 55.6518 129.46Z" fill="black"/>
<path d="M48.4161 130.365C48.6781 130.365 48.6781 129.96 48.4161 129.96C48.1541 129.96 48.1541 130.365 48.4161 130.365Z" fill="black"/>
<path d="M51.3547 129.234C51.6167 129.234 51.6167 128.829 51.3547 128.829C51.0954 128.829 51.0927 129.234 51.3547 129.234Z" fill="black"/>
<path d="M45.9285 128.102C46.1905 128.102 46.1905 127.697 45.9285 127.697C45.6665 127.697 45.6665 128.102 45.9285 128.102Z" fill="black"/>
<path d="M42.9872 125.614C43.2492 125.614 43.2492 125.209 42.9872 125.209C42.7279 125.209 42.7279 125.614 42.9872 125.614Z" fill="black"/>
<path d="M51.8058 126.519C52.0677 126.519 52.0677 126.114 51.8058 126.114C51.5465 126.114 51.5465 126.519 51.8058 126.519Z" fill="black"/>
<path d="M53.8422 122.676C54.1042 122.676 54.1042 122.271 53.8422 122.271C53.5802 122.271 53.5802 122.676 53.8422 122.676Z" fill="black"/>
<path d="M80.0735 112.047C80.3355 112.047 80.3355 111.642 80.0735 111.642C79.8115 111.642 79.8115 112.047 80.0735 112.047Z" fill="black"/>
<path d="M74.6447 123.58C74.9067 123.58 74.9067 123.175 74.6447 123.175C74.3854 123.175 74.3854 123.58 74.6447 123.58Z" fill="black"/>
<path d="M71.7061 126.746C71.9681 126.746 71.9681 126.341 71.7061 126.341C71.4441 126.341 71.4441 126.746 71.7061 126.746Z" fill="black"/>
<path d="M94.2507 24.8837C94.5586 24.2084 94.8665 23.5332 95.1717 22.858C95.2797 22.623 94.9286 22.415 94.8206 22.6527C94.5127 23.3279 94.2048 24.0032 93.8995 24.6784C93.7915 24.9134 94.1426 25.1213 94.2507 24.8837Z" fill="black"/>
<path d="M93.327 23.12C93.8807 22.5042 94.2831 21.7938 94.5235 21.0025C94.5991 20.7513 94.2075 20.6459 94.1319 20.8944C93.9104 21.621 93.5458 22.2692 93.0407 22.8337C92.8651 23.0254 93.1514 23.3117 93.327 23.12Z" fill="black"/>
<path d="M93.1352 20.3677C93.4377 19.6898 93.7375 19.0119 94.04 18.3339C94.1453 18.0989 93.7969 17.891 93.6889 18.1287C93.3864 18.8066 93.0865 19.4845 92.784 20.1625C92.6814 20.4001 93.0298 20.6054 93.1352 20.3677Z" fill="black"/>
<path d="M92.4816 18.061C92.7085 17.4587 92.9353 16.8564 93.1595 16.2514C93.2514 16.0083 92.8597 15.9003 92.7679 16.1434C92.541 16.7457 92.3141 17.348 92.09 17.953C92.0008 18.1961 92.3925 18.3014 92.4816 18.061Z" fill="black"/>
<path d="M69.4319 104.507C69.5859 104.207 69.7371 103.907 69.8911 103.605C70.0099 103.372 69.6588 103.167 69.54 103.399C69.386 103.699 69.2348 103.999 69.0808 104.301C68.9647 104.534 69.3131 104.739 69.4319 104.507Z" fill="black"/>
<path d="M71.8817 103.356C72.3327 102.527 72.7865 101.698 73.2375 100.868C73.3618 100.639 73.0133 100.434 72.8864 100.663C72.4353 101.492 71.9816 102.322 71.5305 103.151C71.4063 103.38 71.7547 103.586 71.8817 103.356Z" fill="black"/>
<path d="M75.952 101.095C76.403 100.342 76.8568 99.5882 77.3078 98.8347C77.4429 98.6105 77.0917 98.4079 76.9567 98.6294C76.5056 99.3829 76.0519 100.137 75.6008 100.89C75.4658 101.114 75.8169 101.317 75.952 101.095Z" fill="black"/>
<path d="M81.3781 96.1201C81.9048 95.0641 82.4342 94.0107 82.9608 92.9547C83.077 92.7224 82.7286 92.5171 82.6097 92.7494C82.083 93.8055 81.5537 94.8588 81.027 95.9149C80.9109 96.1472 81.262 96.3524 81.3781 96.1201Z" fill="black"/>
<path d="M85.451 92.2795C86.1236 91.3855 86.5827 90.3807 86.8204 89.2868C86.8771 89.033 86.4855 88.9249 86.4288 89.1788C86.1965 90.2403 85.7535 91.2045 85.0999 92.0742C84.946 92.2822 85.2971 92.4847 85.451 92.2795Z" fill="black"/>
<path d="M90.2182 86.7993C90.445 86.0458 90.6692 85.2922 90.8961 84.5387C90.9717 84.2875 90.5801 84.1821 90.5045 84.4306C90.2776 85.1842 90.0534 85.9377 89.8265 86.6913C89.7509 86.9425 90.1425 87.0505 90.2182 86.7993Z" fill="black"/>
<path d="M94.3425 83.1938C94.5694 82.2133 94.7936 81.2329 95.0204 80.2525C95.0798 79.9986 94.6882 79.8906 94.6288 80.1444C94.4019 81.1249 94.1777 82.1053 93.9509 83.0857C93.8914 83.3396 94.2831 83.4477 94.3425 83.1938Z" fill="black"/>
<path d="M97.4729 77.7595C97.7051 76.9222 97.7754 76.0768 97.6781 75.2125C97.6484 74.9559 97.2433 74.9532 97.273 75.2125C97.3648 76.039 97.3054 76.8466 97.0812 77.6514C97.011 77.9053 97.4026 78.0134 97.4729 77.7595Z" fill="black"/>
<path d="M99.0394 72.0469C99.1609 71.1421 98.9935 70.2616 98.5667 69.4567C98.4452 69.2272 98.094 69.4297 98.2156 69.662C98.6099 70.4102 98.745 71.2096 98.6342 72.0469C98.5991 72.3062 99.0043 72.3035 99.0394 72.0469Z" fill="black"/>
<path d="M67.1847 104.134C67.4467 104.134 67.4467 103.729 67.1847 103.729C66.9228 103.729 66.9228 104.134 67.1847 104.134Z" fill="black"/>
<path d="M65.3508 102.122C65.3508 102.046 65.3508 101.97 65.3508 101.895C65.3508 101.789 65.259 101.687 65.1483 101.692C65.0375 101.698 64.9457 101.781 64.9457 101.895C64.9457 101.97 64.9457 102.046 64.9457 102.122C64.9457 102.227 65.0375 102.33 65.1483 102.324C65.259 102.319 65.3508 102.235 65.3508 102.122Z" fill="black"/>
<path d="M74.38 101.779C74.6879 101.179 74.9985 100.58 75.3064 99.98C75.4252 99.7477 75.0768 99.5424 74.9553 99.7747C74.6474 100.374 74.3368 100.974 74.0289 101.574C73.91 101.806 74.2584 102.011 74.38 101.779Z" fill="black"/>
<path d="M78.6799 99.0104C78.9095 97.8057 79.1418 96.6011 79.3713 95.3938C79.42 95.1399 79.0283 95.0292 78.9797 95.2858C78.7501 96.4904 78.5178 97.695 78.2883 98.9023C78.2423 99.1562 78.6313 99.2669 78.6799 99.0104Z" fill="black"/>
<path d="M84.9946 90.0135C85.0703 89.8623 85.1459 89.711 85.2215 89.5625C85.2701 89.4652 85.2485 89.3437 85.1486 89.2843C85.0595 89.2329 84.9217 89.26 84.8704 89.3572C84.7948 89.5084 84.7191 89.6597 84.6435 89.8082C84.5949 89.9055 84.6165 90.027 84.7164 90.0864C84.8083 90.1405 84.946 90.1134 84.9946 90.0135Z" fill="black"/>
<path d="M88.2114 87.7123C88.5193 86.5834 88.8246 85.4544 89.1325 84.3254C89.2 84.0742 88.811 83.9662 88.7408 84.2174C88.4329 85.3463 88.1277 86.4753 87.8198 87.6043C87.7523 87.8555 88.1412 87.9635 88.2114 87.7123Z" fill="black"/>
<path d="M92.252 82.9559C92.5545 81.2975 92.8543 79.6392 93.1568 77.9808C93.2027 77.7269 92.8138 77.6162 92.7652 77.8728C92.4627 79.5311 92.1629 81.1895 91.8604 82.8479C91.8144 83.1018 92.2061 83.2125 92.252 82.9559Z" fill="black"/>
<path d="M95.8766 76.3442C95.9388 75.4069 95.8577 74.4886 95.6444 73.5757C95.5849 73.3218 95.1933 73.4299 95.2527 73.6838C95.4607 74.5616 95.5309 75.4448 95.4715 76.3442C95.4553 76.6035 95.8604 76.6035 95.8766 76.3442Z" fill="black"/>
<path d="M96.7814 70.4642C96.7814 70.3129 96.7814 70.1617 96.7814 70.0131C96.7814 69.7511 96.3763 69.7511 96.3763 70.0131C96.3763 70.1644 96.3763 70.3156 96.3763 70.4642C96.3763 70.7262 96.7814 70.7262 96.7814 70.4642Z" fill="black"/>
<path d="M97.8537 66.2507C97.5512 65.9482 97.2514 65.6484 96.9489 65.3459C96.7652 65.1622 96.4789 65.4485 96.6626 65.6322C96.9651 65.9347 97.2649 66.2345 97.5674 66.537C97.7511 66.7234 98.0374 66.4371 97.8537 66.2507Z" fill="black"/>
<path d="M47.5599 96.9684C47.333 96.8928 47.1088 96.8145 46.8819 96.7388C46.6334 96.6551 46.5281 97.0467 46.7739 97.1305C47.0008 97.2061 47.2249 97.2844 47.4518 97.36C47.6976 97.4438 47.8056 97.0521 47.5599 96.9684Z" fill="black"/>
<path d="M45.1804 99.0914C44.786 98.4999 44.3917 97.9084 44.0001 97.3169C43.8569 97.1008 43.5058 97.3034 43.6489 97.5222C44.0433 98.1137 44.4376 98.7052 44.8292 99.2967C44.9751 99.5128 45.3262 99.3102 45.1804 99.0914Z" fill="black"/>
<path d="M41.3316 98.4189C41.0237 97.9705 40.7158 97.5222 40.4079 97.0765C40.262 96.8631 39.9109 97.0657 40.0568 97.2818C40.3647 97.7301 40.6726 98.1785 40.9805 98.6241C41.129 98.8348 41.4801 98.6322 41.3316 98.4189Z" fill="black"/>
<path d="M37.3045 95.9635C37.2289 95.5125 37.1533 95.0587 37.0776 94.6076C37.0344 94.3511 36.6455 94.4591 36.686 94.7157C36.7616 95.1667 36.8372 95.6205 36.9129 96.0715C36.9561 96.3281 37.3477 96.2174 37.3045 95.9635Z" fill="black"/>
<path d="M33.4611 91.4397C33.272 90.7887 33.2018 90.1324 33.2423 89.4572C33.2585 89.1979 32.8534 89.1979 32.8372 89.4572C32.794 90.1675 32.8723 90.8617 33.0695 91.545C33.1424 91.7989 33.534 91.6908 33.4611 91.4397Z" fill="black"/>
<path d="M30.979 86.0674C30.9033 84.9411 30.9736 83.8364 31.1977 82.729C31.249 82.4752 30.8574 82.3644 30.8061 82.621C30.5765 83.7608 30.4955 84.906 30.5738 86.0674C30.5927 86.3267 30.9979 86.3294 30.979 86.0674Z" fill="black"/>
<path d="M28.937 80.2416C29.1639 79.4124 29.3881 78.5832 29.615 77.754C29.6825 77.5029 29.2936 77.3948 29.2233 77.646C28.9965 78.4752 28.7723 79.3044 28.5454 80.1335C28.4779 80.3874 28.8695 80.4928 28.937 80.2416Z" fill="black"/>
<path d="M28.4347 73.5486C28.9614 72.8707 29.4907 72.1928 30.0174 71.5148C30.1768 71.3123 29.8905 71.0233 29.7311 71.2285C29.2044 71.9065 28.6751 72.5844 28.1484 73.2623C27.989 73.4649 28.2726 73.7539 28.4347 73.5486Z" fill="black"/>
<path d="M32.0512 66.5372C32.3537 66.1591 32.6535 65.7836 32.956 65.4055C33.118 65.2029 32.8317 64.9166 32.6697 65.1192C32.3672 65.4974 32.0674 65.8728 31.7649 66.2509C31.6028 66.4535 31.8891 66.7425 32.0512 66.5372Z" fill="black"/>
<path d="M37.0263 60.6599C37.3288 60.3574 37.6286 60.0576 37.9311 59.7551C38.1148 59.5714 37.8285 59.2851 37.6448 59.4688C37.3423 59.7713 37.0425 60.0711 36.74 60.3736C36.5563 60.5572 36.8426 60.8435 37.0263 60.6599Z" fill="black"/>
<path d="M41.0561 55.0367C41.2829 54.8855 41.5071 54.7342 41.734 54.5857C41.9501 54.4425 41.7475 54.0914 41.5287 54.2345C41.3018 54.3858 41.0777 54.537 40.8508 54.6856C40.6347 54.8314 40.8373 55.1826 41.0561 55.0367Z" fill="black"/>
<path d="M39.3464 95.5639C39.3464 94.9616 39.3464 94.3566 39.3464 93.7543C39.3464 93.4923 38.9412 93.4923 38.9412 93.7543C38.9412 94.3566 38.9412 94.9616 38.9412 95.5639C38.9412 95.8259 39.3464 95.8259 39.3464 95.5639Z" fill="black"/>
<path d="M34.825 91.2695C34.9007 90.6672 34.9763 90.0622 35.0519 89.4599C35.0843 89.2006 34.6792 89.2033 34.6468 89.4599C34.5711 90.0622 34.4955 90.6672 34.4199 91.2695C34.3875 91.5261 34.7926 91.5234 34.825 91.2695Z" fill="black"/>
<path d="M32.5347 85.4922C32.6859 85.1897 32.8372 84.8899 32.9857 84.5874C33.1019 84.3551 32.7535 84.1498 32.6346 84.3821C32.4834 84.6846 32.3321 84.9844 32.1836 85.2869C32.0701 85.5192 32.4186 85.7245 32.5347 85.4922Z" fill="black"/>
<path d="M30.9195 79.2016C31.5461 78.4264 32.0161 77.5703 32.3294 76.6249C32.4104 76.3764 32.0215 76.2711 31.9378 76.5169C31.6488 77.3947 31.2139 78.1969 30.6332 78.9153C30.4712 79.1152 30.7575 79.4042 30.9195 79.2016Z" fill="black"/>
<path d="M31.9081 72.2496C32.1701 72.2496 32.1701 71.8444 31.9081 71.8444C31.6488 71.8444 31.6461 72.2496 31.9081 72.2496Z" fill="black"/>
<path d="M35.7514 65.2406C36.0134 65.2406 36.0134 64.8355 35.7514 64.8355C35.4922 64.8355 35.4922 65.2406 35.7514 65.2406Z" fill="black"/>
<path d="M41.1803 60.0387C41.4423 60.0387 41.4423 59.6336 41.1803 59.6336C40.9183 59.6336 40.9183 60.0387 41.1803 60.0387Z" fill="black"/>
<path d="M43.892 56.6491C44.154 56.6491 44.154 56.244 43.892 56.244C43.6328 56.244 43.6328 56.6491 43.892 56.6491Z" fill="black"/>
<path d="M49.2074 94.6887C49.0562 94.6131 48.9049 94.5375 48.7564 94.4618C48.6591 94.4132 48.5376 94.4348 48.4782 94.5348C48.4269 94.6239 48.4539 94.7617 48.5511 94.813C48.7024 94.8886 48.8536 94.9642 49.0022 95.0398C49.0994 95.0885 49.2209 95.0668 49.2804 94.9669C49.3317 94.8778 49.3047 94.74 49.2074 94.6887Z" fill="black"/>
<path d="M44.1189 96.4471C44.3809 96.4471 44.3809 96.0419 44.1189 96.0419C43.8569 96.0419 43.8569 96.4471 44.1189 96.4471Z" fill="black"/>
<path d="M41.1803 94.4105C41.4423 94.4105 41.4423 94.0054 41.1803 94.0054C40.9183 94.0054 40.9183 94.4105 41.1803 94.4105Z" fill="black"/>
<path d="M36.8832 90.1133C37.1451 90.1133 37.1451 89.7082 36.8832 89.7082C36.6212 89.7082 36.6212 90.1133 36.8832 90.1133Z" fill="black"/>
<path d="M35.4949 86.7995C35.6462 86.4214 35.7974 86.0459 35.946 85.6678C36.0432 85.4247 35.6516 85.3194 35.5543 85.5598C35.4031 85.9379 35.2518 86.3133 35.1033 86.6915C35.0087 86.9345 35.4004 87.0399 35.4949 86.7995Z" fill="black"/>
<path d="M34.5712 80.9681C34.7224 80.6656 34.8737 80.3658 35.0222 80.0633C35.1384 79.831 34.7899 79.6258 34.6711 79.8581C34.5199 80.1606 34.3686 80.4604 34.2201 80.7629C34.1039 80.9978 34.455 81.2031 34.5712 80.9681Z" fill="black"/>
<path d="M35.3004 72.0254C35.5624 72.0254 35.5624 71.6202 35.3004 71.6202C35.0384 71.6202 35.0384 72.0254 35.3004 72.0254Z" fill="black"/>
<path d="M36.6563 67.5013C36.9183 67.5013 36.9183 67.0962 36.6563 67.0962C36.397 67.0962 36.397 67.5013 36.6563 67.5013Z" fill="black"/>
<path d="M42.3093 61.3974C42.5713 61.3974 42.5713 60.9922 42.3093 60.9922C42.05 60.9922 42.05 61.3974 42.3093 61.3974Z" fill="black"/>
<path d="M45.4747 59.8145C45.7367 59.8145 45.7367 59.4094 45.4747 59.4094C45.2155 59.4094 45.2155 59.8145 45.4747 59.8145Z" fill="black"/>
<path d="M45.9285 94.1837C46.1905 94.1837 46.1905 93.7786 45.9285 93.7786C45.6665 93.7786 45.6665 94.1837 45.9285 94.1837Z" fill="black"/>
<path d="M42.7387 97.8273C42.7387 97.7517 42.7387 97.676 42.7387 97.6004C42.7387 97.4951 42.6469 97.3924 42.5362 97.3979C42.4254 97.4033 42.3336 97.487 42.3336 97.6004C42.3336 97.676 42.3336 97.7517 42.3336 97.8273C42.3336 97.9326 42.4254 98.0353 42.5362 98.0299C42.6469 98.0245 42.7387 97.9407 42.7387 97.8273Z" fill="black"/>
<path d="M41.129 96.3446C41.2046 96.1933 41.2802 96.0421 41.3559 95.8935C41.4045 95.7963 41.3829 95.6748 41.2829 95.6153C41.1938 95.564 41.0561 95.591 41.0047 95.6883C40.9291 95.8395 40.8535 95.9908 40.7779 96.1393C40.7292 96.2365 40.7509 96.3581 40.8508 96.4175C40.9399 96.4715 41.0777 96.4445 41.129 96.3446Z" fill="black"/>
<path d="M40.4997 95.0884C40.7617 95.0884 40.7617 94.6833 40.4997 94.6833C40.2404 94.6833 40.2404 95.0884 40.4997 95.0884Z" fill="black"/>
<path d="M43.2141 95.0884C43.4761 95.0884 43.4761 94.6833 43.2141 94.6833C42.9548 94.6833 42.9521 95.0884 43.2141 95.0884Z" fill="black"/>
<path d="M34.1687 93.7327C34.4307 93.7327 34.4307 93.3275 34.1687 93.3275C33.9095 93.3275 33.9095 93.7327 34.1687 93.7327Z" fill="black"/>
<path d="M36.6806 91.9475C36.6806 92.0231 36.6806 92.0987 36.6806 92.1744C36.6806 92.2797 36.7724 92.3823 36.8832 92.3769C36.9939 92.3715 37.0857 92.2878 37.0857 92.1744C37.0857 92.0987 37.0857 92.0231 37.0857 91.9475C37.0857 91.8421 36.9939 91.7395 36.8832 91.7449C36.7724 91.7503 36.6806 91.834 36.6806 91.9475Z" fill="black"/>
<path d="M40.4997 92.6009C40.7617 92.6009 40.7617 92.1957 40.4997 92.1957C40.2404 92.1957 40.2404 92.6009 40.4997 92.6009Z" fill="black"/>
<path d="M34.1687 88.3066C34.4307 88.3066 34.4307 87.9014 34.1687 87.9014C33.9095 87.9014 33.9095 88.3066 34.1687 88.3066Z" fill="black"/>
<path d="M31.457 88.3066C31.719 88.3066 31.719 87.9014 31.457 87.9014C31.195 87.9014 31.195 88.3066 31.457 88.3066Z" fill="black"/>
<path d="M32.586 82.6534C32.848 82.6534 32.848 82.2482 32.586 82.2482C32.3267 82.2482 32.3267 82.6534 32.586 82.6534Z" fill="black"/>
<path d="M29.8743 76.5468C30.1363 76.5468 30.1363 76.1416 29.8743 76.1416C29.6123 76.1416 29.6123 76.5468 29.8743 76.5468Z" fill="black"/>
<path d="M32.8129 75.1908C33.0748 75.1908 33.0748 74.7856 32.8129 74.7856C32.5509 74.7856 32.5509 75.1908 32.8129 75.1908Z" fill="black"/>
<path d="M35.7514 79.0343C36.0134 79.0343 36.0134 78.6292 35.7514 78.6292C35.4922 78.6292 35.4922 79.0343 35.7514 79.0343Z" fill="black"/>
<path d="M50.6524 92.8522C50.6524 92.7766 50.6524 92.701 50.6524 92.6254C50.6524 92.52 50.5606 92.4174 50.4499 92.4228C50.3391 92.4282 50.2473 92.5119 50.2473 92.6254C50.2473 92.701 50.2473 92.7766 50.2473 92.8522C50.2473 92.9576 50.3391 93.0602 50.4499 93.0548C50.5606 93.0494 50.6524 92.9657 50.6524 92.8522Z" fill="black"/>
<path d="M49.094 90.3404C49.356 90.3404 49.356 89.9353 49.094 89.9353C48.832 89.9353 48.832 90.3404 49.094 90.3404Z" fill="black"/>
<path d="M47.5113 93.0548C47.7733 93.0548 47.7733 92.6497 47.5113 92.6497C47.2493 92.6497 47.2493 93.0548 47.5113 93.0548Z" fill="black"/>
<path d="M71.0282 102.1C71.2901 102.1 71.2901 101.695 71.0282 101.695C70.7662 101.695 70.7662 102.1 71.0282 102.1Z" fill="black"/>
<path d="M68.0869 101.195C68.3489 101.195 68.3489 100.79 68.0869 100.79C67.8276 100.79 67.8276 101.195 68.0869 101.195Z" fill="black"/>
<path d="M65.5993 100.515C65.8613 100.515 65.8613 100.11 65.5993 100.11C65.34 100.11 65.34 100.515 65.5993 100.515Z" fill="black"/>
<path d="M67.8627 100.515C68.1247 100.515 68.1247 100.11 67.8627 100.11C67.6007 100.11 67.6007 100.515 67.8627 100.515Z" fill="black"/>
<path d="M70.8013 102.778C71.0633 102.778 71.0633 102.373 70.8013 102.373C70.542 102.373 70.5393 102.778 70.8013 102.778Z" fill="black"/>
<path d="M74.8419 97.8786C74.9175 97.6518 74.9931 97.4276 75.0688 97.2007C75.1525 96.9522 74.7609 96.8469 74.6771 97.0927C74.6015 97.3195 74.5259 97.5437 74.4503 97.7706C74.3665 98.0191 74.7582 98.1271 74.8419 97.8786Z" fill="black"/>
<path d="M82.1074 89.8891C82.3694 89.8891 82.3694 89.484 82.1074 89.484C81.8481 89.484 81.8454 89.8891 82.1074 89.8891Z" fill="black"/>
<path d="M86.1776 86.2701C86.4396 86.2701 86.4396 85.8649 86.1776 85.8649C85.9183 85.8649 85.9156 86.2701 86.1776 86.2701Z" fill="black"/>
<path d="M90.2479 79.7122C90.5099 79.7122 90.5099 79.307 90.2479 79.307C89.9886 79.307 89.9859 79.7122 90.2479 79.7122Z" fill="black"/>
<path d="M92.0575 76.3199C92.3195 76.3199 92.3195 75.9148 92.0575 75.9148C91.7955 75.9148 91.7955 76.3199 92.0575 76.3199Z" fill="black"/>
<path d="M93.6402 72.9301C93.9022 72.9301 93.9022 72.5249 93.6402 72.5249C93.3782 72.5249 93.3782 72.9301 93.6402 72.9301Z" fill="black"/>
<path d="M93.8671 65.6917C94.1291 65.6917 94.1291 65.2865 93.8671 65.2865C93.6051 65.2865 93.6051 65.6917 93.8671 65.6917Z" fill="black"/>
<path d="M94.0913 64.1091C94.3533 64.1091 94.3533 63.704 94.0913 63.704C93.832 63.704 93.832 64.1091 94.0913 64.1091Z" fill="black"/>
<path d="M92.7355 60.9434C92.9975 60.9434 92.9975 60.5383 92.7355 60.5383C92.4735 60.5383 92.4735 60.9434 92.7355 60.9434Z" fill="black"/>
<path d="M97.4837 74.2861C97.7457 74.2861 97.7457 73.8809 97.4837 73.8809C97.2244 73.8809 97.2217 74.2861 97.4837 74.2861Z" fill="black"/>
<path d="M96.5788 80.39C96.8408 80.39 96.8408 79.9849 96.5788 79.9849C96.3195 79.9849 96.3195 80.39 96.5788 80.39Z" fill="black"/>
<path d="M92.2844 84.9141C92.5464 84.9141 92.5464 84.5089 92.2844 84.5089C92.0224 84.5089 92.0224 84.9141 92.2844 84.9141Z" fill="black"/>
<path d="M88.4383 89.4355C88.7003 89.4355 88.7003 89.0303 88.4383 89.0303C88.179 89.0303 88.179 89.4355 88.4383 89.4355Z" fill="black"/>
<path d="M94.7692 69.5378C95.0312 69.5378 95.0312 69.1327 94.7692 69.1327C94.5099 69.1327 94.5099 69.5378 94.7692 69.5378Z" fill="black"/>
<path d="M95.674 62.7531C95.936 62.7531 95.936 62.348 95.674 62.348C95.4148 62.348 95.4148 62.7531 95.674 62.7531Z" fill="black"/>
<path d="M91.8307 59.5877C92.0927 59.5877 92.0927 59.1826 91.8307 59.1826C91.5714 59.1826 91.5687 59.5877 91.8307 59.5877Z" fill="black"/>
<path d="M90.021 72.2496C90.283 72.2496 90.283 71.8444 90.021 71.8444C89.7618 71.8444 89.7618 72.2496 90.021 72.2496Z" fill="black"/>
<path d="M87.7604 80.844C88.0224 80.844 88.0224 80.4388 87.7604 80.4388C87.5011 80.4388 87.4984 80.844 87.7604 80.844Z" fill="black"/>
<path d="M85.4997 83.7825C85.7617 83.7825 85.7617 83.3774 85.4997 83.3774C85.2377 83.3774 85.2377 83.7825 85.4997 83.7825Z" fill="black"/>
<path d="M79.8467 91.472C80.1087 91.472 80.1087 91.0668 79.8467 91.0668C79.5847 91.0668 79.5847 91.472 79.8467 91.472Z" fill="black"/>
<path d="M75.9006 95.6153C75.5981 95.8421 75.2983 96.0663 74.9958 96.2932C74.7906 96.4471 74.9904 96.801 75.2011 96.6443C75.5036 96.4174 75.8034 96.1933 76.1059 95.9664C76.3112 95.8124 76.1086 95.4586 75.9006 95.6153Z" fill="black"/>
<path d="M73.5157 97.576C73.7777 97.576 73.7777 97.1708 73.5157 97.1708C73.2537 97.1708 73.2537 97.576 73.5157 97.576Z" fill="black"/>
<path d="M70.1234 98.9319C70.3854 98.9319 70.3854 98.5268 70.1234 98.5268C69.8614 98.5268 69.8614 98.9319 70.1234 98.9319Z" fill="black"/>
<path d="M66.731 98.4809C66.993 98.4809 66.993 98.0758 66.731 98.0758C66.4717 98.0758 66.469 98.4809 66.731 98.4809Z" fill="black"/>
<path d="M64.9214 98.4809C65.1833 98.4809 65.1833 98.0758 64.9214 98.0758C64.6621 98.0758 64.6621 98.4809 64.9214 98.4809Z" fill="black"/>
<path d="M64.6972 98.4809C64.9592 98.4809 64.9592 98.0758 64.6972 98.0758C64.4352 98.0758 64.4352 98.4809 64.6972 98.4809Z" fill="black"/>
<path d="M78.2639 88.9844C78.5259 88.9844 78.5259 88.5793 78.2639 88.5793C78.0019 88.5793 78.0019 88.9844 78.2639 88.9844Z" fill="black"/>
<path d="M80.7515 87.8526C81.0135 87.8526 81.0135 87.4475 80.7515 87.4475C80.4895 87.4475 80.4895 87.8526 80.7515 87.8526Z" fill="black"/>
<path d="M48.8671 55.2905C49.1291 55.2905 49.1291 54.8853 48.8671 54.8853C48.6079 54.8853 48.6052 55.2905 48.8671 55.2905Z" fill="black"/>
<path d="M49.1912 53.4701C49.0211 52.5058 48.9913 51.5416 49.0886 50.5693C49.1129 50.31 48.7077 50.3127 48.6834 50.5693C48.5835 51.5821 48.6267 52.5788 48.8023 53.5781C48.8455 53.8347 49.2371 53.7266 49.1912 53.4701Z" fill="black"/>
<path d="M46.0987 49.8374C46.023 49.3108 45.9474 48.7814 45.8745 48.2547C45.8367 47.9981 45.4477 48.1062 45.4828 48.3627C45.5585 48.8894 45.6341 49.4188 45.707 49.9455C45.7448 50.2021 46.1338 50.094 46.0987 49.8374Z" fill="black"/>
<path d="M42.5118 44.6866C42.5118 44.3085 42.5118 43.9331 42.5118 43.5549C42.5118 43.2929 42.1067 43.2929 42.1067 43.5549C42.1067 43.9331 42.1067 44.3085 42.1067 44.6866C42.1067 44.9486 42.5118 44.9486 42.5118 44.6866Z" fill="black"/>
<path d="M39.792 38.8609C39.8676 38.4828 39.9433 38.1073 40.0189 37.7292C40.0702 37.4753 39.6786 37.3646 39.6273 37.6212C39.5516 37.9993 39.476 38.3747 39.4004 38.7529C39.3491 39.0095 39.7407 39.1175 39.792 38.8609Z" fill="black"/>
<path d="M38.4173 32.0733C38.7333 31.0227 39.052 29.972 39.368 28.9214C39.4436 28.6702 39.052 28.5648 38.9764 28.8133C38.6604 29.864 38.3417 30.9146 38.0257 31.9653C37.95 32.2138 38.3417 32.3218 38.4173 32.0733Z" fill="black"/>
<path d="M38.4146 23.7601C38.9359 23.0767 39.4572 22.3934 39.9784 21.7101C40.1378 21.5021 39.784 21.2995 39.6273 21.5048C39.106 22.1881 38.5848 22.8715 38.0635 23.5548C37.9068 23.7628 38.2607 23.9653 38.4146 23.7601Z" fill="black"/>
<path d="M40.3809 16.7566C40.8373 16.2326 41.2938 15.7086 41.7502 15.1847C41.9204 14.9902 41.6368 14.7012 41.4639 14.8984C41.0075 15.4223 40.551 15.9463 40.0946 16.4703C39.9217 16.6675 40.208 16.9538 40.3809 16.7566Z" fill="black"/>
<path d="M45.1696 10.6875C45.9178 9.91773 46.7928 9.32353 47.7895 8.92379C48.0299 8.82926 47.9245 8.43493 47.6814 8.53216C46.6173 8.9562 45.6801 9.57742 44.8833 10.3985C44.6996 10.5876 44.9859 10.8766 45.1696 10.6875Z" fill="black"/>
<path d="M52.3648 5.06969C53.0212 4.64564 53.7396 4.41877 54.5202 4.39986C54.7795 4.39446 54.7822 3.98932 54.5202 3.99472C53.6721 4.01633 52.8726 4.25941 52.1596 4.72127C51.9408 4.86172 52.1461 5.21014 52.3648 5.06969Z" fill="black"/>
<path d="M59.4952 2.15257C60.3352 2.16067 61.1401 2.30922 61.9288 2.59822C62.1745 2.68735 62.2799 2.29572 62.0368 2.20659C61.2157 1.90679 60.3703 1.75554 59.4952 1.74743C59.2332 1.74473 59.2332 2.14987 59.4952 2.15257Z" fill="black"/>
<path d="M67.9869 2.12557C68.1382 2.20119 68.2894 2.27682 68.438 2.35244C68.5352 2.40106 68.6568 2.37945 68.7162 2.27952C68.7675 2.19039 68.7405 2.05264 68.6433 2.00132C68.492 1.9257 68.3408 1.85007 68.1922 1.77445C68.095 1.72583 67.9734 1.74744 67.914 1.84737C67.86 1.9365 67.887 2.07695 67.9869 2.12557Z" fill="black"/>
<path d="M73.7399 4.86693C74.0019 4.86693 74.0019 4.46179 73.7399 4.46179C73.4806 4.46179 73.4806 4.86693 73.7399 4.86693Z" fill="black"/>
<path d="M78.2639 6.67396C78.5259 6.67396 78.5259 6.26882 78.2639 6.26882C78.0019 6.26882 78.0019 6.67396 78.2639 6.67396Z" fill="black"/>
<path d="M82.5611 11.649C82.8231 11.649 82.8231 11.2439 82.5611 11.2439C82.2991 11.2439 82.2991 11.649 82.5611 11.649Z" fill="black"/>
<path d="M84.1438 12.3269C84.4058 12.3269 84.4058 11.9218 84.1438 11.9218C83.8818 11.9218 83.8818 12.3269 84.1438 12.3269Z" fill="black"/>
<path d="M87.5335 31.7735C87.7955 31.7735 87.7955 31.3684 87.5335 31.3684C87.2742 31.3684 87.2742 31.7735 87.5335 31.7735Z" fill="black"/>
<path d="M86.1776 37.6535C86.4396 37.6535 86.4396 37.2484 86.1776 37.2484C85.9183 37.2484 85.9156 37.6535 86.1776 37.6535Z" fill="black"/>
<path d="M83.0122 42.8554C83.2741 42.8554 83.2741 42.4503 83.0122 42.4503C82.7502 42.4503 82.7502 42.8554 83.0122 42.8554Z" fill="black"/>
<path d="M79.3929 48.7326C79.6549 48.7326 79.6549 48.3274 79.3929 48.3274C79.1336 48.3274 79.1336 48.7326 79.3929 48.7326Z" fill="black"/>
<path d="M77.3591 52.1251C77.6211 52.1251 77.6211 51.7199 77.3591 51.7199C77.0971 51.7199 77.0971 52.1251 77.3591 52.1251Z" fill="black"/>
<path d="M74.2233 57.5216C74.0721 57.8997 73.9208 58.2751 73.7723 58.6533C73.6751 58.8963 74.0667 59.0017 74.1639 58.7613C74.3152 58.3832 74.4664 58.0077 74.615 57.6296C74.7122 57.3892 74.3206 57.2839 74.2233 57.5216Z" fill="black"/>
<path d="M73.5157 60.2656C73.7777 60.2656 73.7777 59.8604 73.5157 59.8604C73.2537 59.8604 73.2537 60.2656 73.5157 60.2656Z" fill="black"/>
<path d="M51.1278 56.4223C51.3898 56.4223 51.3898 56.0172 51.1278 56.0172C50.8685 56.0172 50.8685 56.4223 51.1278 56.4223Z" fill="black"/>
<path d="M48.1892 51.6741C48.4512 51.6741 48.4512 51.2689 48.1892 51.2689C47.9272 51.2689 47.9272 51.6741 48.1892 51.6741Z" fill="black"/>
<path d="M46.6065 49.6376C46.8685 49.6376 46.8685 49.2324 46.6065 49.2324C46.3445 49.2324 46.3445 49.6376 46.6065 49.6376Z" fill="black"/>
<path d="M43.892 45.5672C44.154 45.5672 44.154 45.162 43.892 45.162C43.6328 45.162 43.6328 45.5672 43.892 45.5672Z" fill="black"/>
<path d="M41.1803 39.2361C41.4423 39.2361 41.4423 38.831 41.1803 38.831C40.9183 38.831 40.9183 39.2361 41.1803 39.2361Z" fill="black"/>
<path d="M40.4997 38.5582C40.7617 38.5582 40.7617 38.1531 40.4997 38.1531C40.2404 38.1531 40.2404 38.5582 40.4997 38.5582Z" fill="black"/>
<path d="M40.9291 27.7277C41.0804 26.4474 41.2316 25.1645 41.3802 23.8843C41.4099 23.625 41.0047 23.6277 40.975 23.8843C40.8238 25.1645 40.6725 26.4474 40.524 27.7277C40.4943 27.9869 40.8994 27.9842 40.9291 27.7277Z" fill="black"/>
<path d="M43.6678 19.7895C43.9298 19.7895 43.9298 19.3844 43.6678 19.3844C43.4058 19.3844 43.4058 19.7895 43.6678 19.7895Z" fill="black"/>
<path d="M40.9535 22.0502C41.2154 22.0502 41.2154 21.6451 40.9535 21.6451C40.6915 21.6451 40.6915 22.0502 40.9535 22.0502Z" fill="black"/>
<path d="M49.9988 11.8759C50.2608 11.8759 50.2608 11.4707 49.9988 11.4707C49.7368 11.4707 49.7368 11.8759 49.9988 11.8759Z" fill="black"/>
<path d="M52.0326 9.38833C52.2946 9.38833 52.2946 8.98319 52.0326 8.98319C51.7733 8.98319 51.7733 9.38833 52.0326 9.38833Z" fill="black"/>
<path d="M52.0326 7.80576C52.2946 7.80576 52.2946 7.40062 52.0326 7.40062C51.7733 7.40062 51.7733 7.80576 52.0326 7.80576Z" fill="black"/>
<path d="M54.6228 5.96902C54.9253 5.81777 55.2251 5.66652 55.5276 5.51797C55.7599 5.40183 55.5546 5.05071 55.3223 5.16685C55.0198 5.3181 54.72 5.46935 54.4175 5.6179C54.1853 5.73674 54.3905 6.08516 54.6228 5.96902Z" fill="black"/>
<path d="M58.1394 5.09113C58.4014 5.09113 58.4014 4.68599 58.1394 4.68599C57.8774 4.68599 57.8774 5.09113 58.1394 5.09113Z" fill="black"/>
<path d="M62.8876 4.18642C63.1496 4.18642 63.1496 3.78129 62.8876 3.78129C62.6256 3.78129 62.6256 4.18642 62.8876 4.18642Z" fill="black"/>
<path d="M67.8627 4.64009C68.1247 4.64009 68.1247 4.23496 67.8627 4.23496C67.6007 4.23496 67.6007 4.64009 67.8627 4.64009Z" fill="black"/>
<path d="M69.8965 4.41326C70.1584 4.41326 70.1584 4.00812 69.8965 4.00812C69.6372 4.00812 69.6345 4.41326 69.8965 4.41326Z" fill="black"/>
<path d="M64.9214 2.15256C65.1833 2.15256 65.1833 1.74742 64.9214 1.74742C64.6621 1.74742 64.6621 2.15256 64.9214 2.15256Z" fill="black"/>
<path d="M57.0077 3.50856C57.2697 3.50856 57.2697 3.10342 57.0077 3.10342C56.7484 3.10342 56.7457 3.50856 57.0077 3.50856Z" fill="black"/>
<path d="M50.223 5.99609C50.485 5.99609 50.485 5.59095 50.223 5.59095C49.9637 5.59095 49.9637 5.99609 50.223 5.99609Z" fill="black"/>
<path d="M45.4747 12.7808C45.7367 12.7808 45.7367 12.3757 45.4747 12.3757C45.2155 12.3757 45.2155 12.7808 45.4747 12.7808Z" fill="black"/>
<path d="M42.3093 16.8509C42.5713 16.8509 42.5713 16.4458 42.3093 16.4458C42.05 16.4458 42.05 16.8509 42.3093 16.8509Z" fill="black"/>
<path d="M42.3093 13.4587C42.5713 13.4587 42.5713 13.0536 42.3093 13.0536C42.05 13.0536 42.05 13.4587 42.3093 13.4587Z" fill="black"/>
<path d="M39.1438 20.2434C39.4058 20.2434 39.4058 19.8383 39.1438 19.8383C38.8845 19.8383 38.8818 20.2434 39.1438 20.2434Z" fill="black"/>
<path d="M40.8103 17.4101C40.7347 17.4857 40.659 17.5613 40.5834 17.6369C40.5078 17.7126 40.5024 17.8503 40.5834 17.9232C40.6644 17.9962 40.7887 18.0043 40.8697 17.9232C40.9453 17.8476 41.021 17.772 41.0966 17.6964C41.1722 17.6207 41.1776 17.483 41.0966 17.4101C41.0156 17.3344 40.8913 17.329 40.8103 17.4101Z" fill="black"/>
<path d="M38.4659 26.8013C38.7278 26.8013 38.7278 26.3962 38.4659 26.3962C38.2039 26.3962 38.2039 26.8013 38.4659 26.8013Z" fill="black"/>
<path d="M37.788 27.0253C38.05 27.0253 38.05 26.6201 37.788 26.6201C37.526 26.6201 37.526 27.0253 37.788 27.0253Z" fill="black"/>
<path d="M36.6563 30.1909C36.9183 30.1909 36.9183 29.7858 36.6563 29.7858C36.397 29.7858 36.397 30.1909 36.6563 30.1909Z" fill="black"/>
<path d="M37.7637 30.6662C37.7637 30.515 37.7637 30.3637 37.7637 30.2152C37.7637 29.9532 37.3585 29.9532 37.3585 30.2152C37.3585 30.3664 37.3585 30.5177 37.3585 30.6662C37.3585 30.9282 37.7637 30.9282 37.7637 30.6662Z" fill="black"/>
<path d="M38.239 32.4543C38.501 32.4543 38.501 32.0491 38.239 32.0491C37.9798 32.0491 37.9798 32.4543 38.239 32.4543Z" fill="black"/>
<path d="M39.1438 34.715C39.4058 34.715 39.4058 34.3098 39.1438 34.3098C38.8845 34.3098 38.8818 34.715 39.1438 34.715Z" fill="black"/>
<path d="M38.917 34.4881C39.179 34.4881 39.179 34.083 38.917 34.083C38.6577 34.083 38.6577 34.4881 38.917 34.4881Z" fill="black"/>
<path d="M39.8217 31.7735C40.0837 31.7735 40.0837 31.3684 39.8217 31.3684C39.5625 31.3684 39.5625 31.7735 39.8217 31.7735Z" fill="black"/>
<path d="M43.4923 39.8143C44.1702 41.0217 44.8481 42.2263 45.5261 43.4336C45.653 43.6604 46.0041 43.4579 45.8772 43.2283C45.1993 42.021 44.5213 40.8164 43.8434 39.6091C43.7138 39.3822 43.3626 39.5875 43.4923 39.8143Z" fill="black"/>
<path d="M43.441 39.69C43.703 39.69 43.703 39.2849 43.441 39.2849C43.179 39.2849 43.179 39.69 43.441 39.69Z" fill="black"/>
<path d="M47.5113 44.4383C47.7733 44.4383 47.7733 44.0331 47.5113 44.0331C47.2493 44.0331 47.2493 44.4383 47.5113 44.4383Z" fill="black"/>
<path d="M49.094 49.1865C49.356 49.1865 49.356 48.7814 49.094 48.7814C48.832 48.7814 48.832 49.1865 49.094 49.1865Z" fill="black"/>
<path d="M51.5815 53.0298C51.8435 53.0298 51.8435 52.6246 51.5815 52.6246C51.3195 52.6246 51.3195 53.0298 51.5815 53.0298Z" fill="black"/>
<path d="M54.0691 58.2317C54.3311 58.2317 54.3311 57.8266 54.0691 57.8266C53.8071 57.8266 53.8071 58.2317 54.0691 58.2317Z" fill="black"/>
<path d="M49.3209 47.8305C49.5829 47.8305 49.5829 47.4254 49.3209 47.4254C49.0589 47.4254 49.0589 47.8305 49.3209 47.8305Z" fill="black"/>
<path d="M46.1527 45.5672C46.4147 45.5672 46.4147 45.162 46.1527 45.162C45.8934 45.162 45.8934 45.5672 46.1527 45.5672Z" fill="black"/>
<path d="M43.441 40.8189C43.703 40.8189 43.703 40.4138 43.441 40.4138C43.179 40.4138 43.179 40.8189 43.441 40.8189Z" fill="black"/>
<path d="M42.5362 36.2975C42.7981 36.2975 42.7981 35.8924 42.5362 35.8924C42.2742 35.8924 42.2742 36.2975 42.5362 36.2975Z" fill="black"/>
<path d="M42.5362 30.4178C42.7981 30.4178 42.7981 30.0126 42.5362 30.0126C42.2742 30.0126 42.2742 30.4178 42.5362 30.4178Z" fill="black"/>
<path d="M43.892 26.1206C44.154 26.1206 44.154 25.7154 43.892 25.7154C43.6328 25.7154 43.6328 26.1206 43.892 26.1206Z" fill="black"/>
<path d="M44.3458 21.826C44.6077 21.826 44.6077 21.4209 44.3458 21.4209C44.0838 21.4209 44.0838 21.826 44.3458 21.826Z" fill="black"/>
<path d="M58.8173 18.8848C59.0793 18.8848 59.0793 18.4797 58.8173 18.4797C58.5553 18.4797 58.5553 18.8848 58.8173 18.8848Z" fill="black"/>
<path d="M69.7911 35.2955C70.7607 35.2955 71.5467 34.5095 71.5467 33.5399C71.5467 32.5703 70.7607 31.7843 69.7911 31.7843C68.8215 31.7843 68.0355 32.5703 68.0355 33.5399C68.0355 34.5095 68.8215 35.2955 69.7911 35.2955Z" fill="black"/>
<path d="M58.1772 34.7553C59.1468 34.7553 59.9328 33.9693 59.9328 32.9997C59.9328 32.0301 59.1468 31.2441 58.1772 31.2441C57.2076 31.2441 56.4216 32.0301 56.4216 32.9997C56.4216 33.9693 57.2076 34.7553 58.1772 34.7553Z" fill="black"/>
<circle cx="69.4125" cy="85.0781" r="1.62055" fill="white"/>
</svg>
